<?xml version="1.0" encoding="utf-8"?>
<!-- Generator: Adobe Illustrator 28.0.0, SVG Export Plug-In . SVG Version: 6.00 Build 0)  -->
<svg version="1.1" id="Layer_1" xmlns="http://www.w3.org/2000/svg" xmlns:xlink="http://www.w3.org/1999/xlink" x="0px" y="0px"
	 viewBox="0 0 1920 1080" style="enable-background:new 0 0 1920 1080;" xml:space="preserve">
<style type="text/css">
	.st0{fill:#EF8018;}
	.st1{fill-rule:evenodd;clip-rule:evenodd;fill:#FFFFFF;}
	.st2{fill-rule:evenodd;clip-rule:evenodd;}
	.st3{fill:#FFFFFF;}
	.st4{fill:#1D1D1B;}
	.st5{stroke:#1D1D1B;stroke-miterlimit:10;}
	.st6{fill:#1D1D1B;stroke:#1D1D1B;stroke-miterlimit:10;}
</style>
<g>
	<g>
		<path d="M920.24,314.26c-11.89,6.09-18.97,9.11-18.97,9.11c-4.46,2.25-11.02-1.78-16.99-6.71c-4.15-3.23-10.56-9.19-11.18-8.05
			c-4.67,1.46-10.39,4.26-16.84,7.96c-0.66-3.56-0.28-6.89,1.13-9.98c5.36-5.66,8.05-8.49,8.05-8.49c0-11.03-0.33-14.86-0.33-14.86
			c-0.26-4.4-1.3-7.61,6.59-1.23L920.24,314.26z"/>
	</g>
	<g>
		<path d="M969.83,294.88c2.17-1.21,2.61-0.44,2.6,1.2C971.55,295.66,970.68,295.26,969.83,294.88"/>
	</g>
	<g>
		<path class="st0" d="M511.08,331.2l-12.14-129.57c0,0,190.56-51.52,421.6-114.98v-0.1l0.19,0.05l0.19-0.05v0.1
			c231.04,63.46,421.6,114.98,421.6,114.98l-13.78,147.11l-55.04-37.01c-2.56-0.89-7.33-0.71-14.32,0.55
			c-5.53,1.57-10.57,0.75-15.15-2.48c-31.94-29.37-47.91-44.06-47.91-44.06c-0.68-2.05-10.22,1.62-28.64,11.02
			c-6.12,3.38-10.8,3.65-14.04,0.83c-37.45-23.13-56.17-34.7-56.17-34.7c-3.94-2.11-7.71-1.84-11.29,0.83
			c-53.23,34.02-79.85,51.03-79.85,51.03c-3.88,1.62-7.01,1.77-9.39,0.45c-13.64-12.42-19.57-14.1-24.59-11.18
			c-14.19,9.2-27.13,16.77-37.97,22.73c-6.9-3.09-34.33-15.86-69.4-38.6c-5.02-2.92-10.95-1.24-24.59,11.18
			c-2.38,1.33-5.51,1.18-9.39-0.45c0,0-26.62-17.01-79.85-51.03c-3.58-2.66-7.35-2.94-11.29-0.83c0,0-18.72,11.56-56.17,34.7
			c-3.24,2.83-7.93,2.55-14.04-0.82c-18.41-9.4-27.96-13.07-28.64-11.02c0,0-15.97,14.69-47.91,44.06
			c-4.57,3.23-9.62,4.05-15.14,2.48c-6.99-1.26-11.76-1.44-14.32-0.55L511.08,331.2z"/>
	</g>
	<g>
		<path d="M537.32,611.29l-24.96-266.46c1.05-0.25,1.93-0.43,2.65-0.56c18.48-10.43,27.72-15.65,27.72-15.65
			c3.9-1.94,5.54-0.45,4.92,4.47c-12.31,41.33-16.79,61.9-13.41,61.7c35.17-46.5,52.76-69.75,52.76-69.75
			c2.69-5.79,9.25-7.13,19.67-4.02c14.67,5.23,27.64,10.15,28.17,6.71c0.72-5.1,3.61-24.67,4.64-37.54
			c1.37-17.15,1.87-27.25,12.99-22.37c16.72,7.34,49.27,35.06,64.19,44.71c4.74,2.28,7.01,1.2,6.82-3.24
			c-4.92-11.77-7.38-17.66-7.38-17.66c-2.72,0.03,0.71-3.76,10.28-11.4c2.83-1.39,3.65-3.77,2.46-7.15
			c-3.88-6.41-5.81-9.61-5.81-9.61c-3.18-3.99,18.84-27.79,20.79-25.71c10.03,9.67,42.82,38.83,98.37,87.48
			c-27.13,17.54-61.4,43.42-86.68,55.38c-4.76,10.62-6.84,16.43-6.26,17.44c16.89-9.24,70.31-49.19,100.86-65.9l5.04,4.41
			c11.66,10.51,13.49,7.31,5.48-9.59c2.23-0.92,4.19-1.58,5.83-1.93c2.98-0.63,1.07,27.69,0.83,30.52
			c-1.14,8.85,10.49,1.1,30.4-12.52l32.93-21.88l9.03,6c19.92,13.62,31.54,21.37,30.4,12.52c-0.25-2.83-2.16-31.15,0.83-30.52
			c0.34,0.07,0.69,0.16,1.05,0.25c-0.01,1.36-0.02,2.88-0.02,4.57c0,0,2.68,2.83,8.05,8.49c2.67,5.85,1.63,12.56-3.13,20.12
			c-8.14,17.12-6.35,20.39,5.37,9.84c9.42-8.24,18.26-15.98,26.52-23.22c29.7,19.04,66,45.63,79.38,52.95
			c0.58-1-1.5-6.81-6.26-17.44c-19.22-9.09-43.63-26.23-66.15-41.63c43.17-37.9,69.11-61.06,77.84-69.47
			c1.95-2.08,23.97,21.72,20.79,25.71c0,0-1.94,3.2-5.81,9.61c-1.19,3.38-0.37,5.77,2.46,7.15c9.57,7.63,13,11.44,10.29,11.4
			c0,0-2.46,5.89-7.38,17.66c-0.19,4.44,2.08,5.52,6.82,3.24c14.91-9.65,47.47-37.37,64.19-44.71c11.12-4.88,11.62,5.22,12.99,22.37
			c1.03,12.87,3.93,32.44,4.64,37.54c0.53,3.44,13.49-1.48,28.17-6.71c10.43-3.11,16.98-1.77,19.67,4.02
			c0,0,17.59,23.25,52.76,69.75c3.37,0.19-1.1-20.37-13.41-61.7c-0.62-4.92,1.01-6.41,4.92-4.47c0,0,9.24,5.22,27.72,15.65
			c1.25,0.22,2.99,0.62,5.23,1.2l-23.41,249.94h-367.2H537.32z M920.92,986.53l-0.19-0.07l-0.19,0.07v-0.14
			c-157.74-57.7-270.52-122-328.92-187.17c115.1-8.96,230.22-14.33,345.32-14.34c104.94-0.01,209.93,4.45,314.93,12.03
			c-57.79,65.96-171.36,131.1-330.96,189.48V986.53z"/>
	</g>
	<g>
		<path d="M465.16,611.29l-41.58-443.77l-1.45-15.49l15.07-4.07c0.7-0.19,227.58-61.52,483.34-131.78v-0.1l0.19,0.05l0.19-0.05v0.1
			c255.77,70.27,482.65,131.6,483.34,131.78l15.07,4.07l-1.45,15.49l-41.58,443.77h-37.11l40.44-431.62
			c-52.09-14.11-234-63.45-458.9-125.24c-224.9,61.78-406.81,111.13-458.9,125.24l40.44,431.62H465.16z M920.92,1065l-0.19-0.07
			l-0.19,0.07v-0.13c-132.57-47.49-238.25-99.23-312.82-152.65c-39.64-28.39-70.76-57.5-92.78-86.98l-93.33-9.31
			c31.29-3.66,58.26-6.64,80.9-8.92l-0.09-0.15c14.02-1.3,28.04-2.56,42.06-3.77l0.03,0.05l0.03,0c0.35-0.41,0.37-0.37,0.05,0.12
			c19.56,26.13,47.98,52.53,84.7,78.83c69.61,49.87,167.98,98.44,291.42,143.49c123.44-45.05,221.81-93.62,291.42-143.49
			c37.95-27.19,67.05-54.48,86.65-81.47c-0.32-0.49-0.3-0.53,0.05-0.12c3.52,0.28,7.23,0.59,11.14,0.93l0.04,0l0.1,0.01
			c10.2,0.85,20.4,1.72,30.6,2.61l-0.17,0.28c22.71,2.29,49.78,5.28,81.22,8.96l-93.33,9.31c-22.12,30.37-53.9,60.38-94.73,89.62
			c-74.57,53.42-180.25,105.16-312.82,152.65V1065z"/>
	</g>
	<g>
		<path class="st1" d="M1041.08,572.3c-8.11-13.97-12.19-19.72-12.24-17.24c-5.15-0.24-10.34,2.36-15.58,7.79
			c-0.13,0.21,0.42,1.79,1.67,4.73c0,0-2.41-1.11-7.23-3.34c-8.01-1.07-16.35,0.51-25.03,4.73c-3.34,1.24-7.6-0.62-12.79-5.56
			c-7.73-0.15-24.41,4.86-50.07,15.02c24.29-3.89,36.44-5.84,36.44-5.84c0.56,4.08,0.83,6.12,0.83,6.12
			c5.43-3.68,12.76-3.78,21.97-0.28c5.45,2.18,8.79,2.55,10.01,1.11c-1.11-2.97-1.67-4.45-1.67-4.45c5.6-4.5,10.52-6.82,14.74-6.95
			c8.03,7.55,13.97,10.33,17.8,8.34c6.68-5.19,10.01-7.79,10.01-7.79C1037.37,571.1,1041.08,572.3,1041.08,572.3 M1172.16,564.11
			c9.08-13.36,13.55-18.81,13.43-16.34c5.16,0.13,10.15,3.08,14.99,8.87c0.12,0.22-0.55,1.75-2,4.6c0,0,2.48-0.94,7.45-2.82
			c8.06-0.5,16.27,1.67,24.64,6.49c3.25,1.47,7.63-0.08,13.16-4.64c7.72,0.4,24.01,6.57,48.88,18.52c-23.95-5.6-35.93-8.4-35.93-8.4
			c-0.84,4.03-1.27,6.05-1.27,6.05c-5.16-4.06-12.46-4.67-21.9-1.83c-5.59,1.79-8.95,1.92-10.07,0.4c1.32-2.88,1.98-4.32,1.98-4.32
			c-5.27-4.88-10.01-7.54-14.21-7.98c-8.55,6.96-14.66,9.32-18.35,7.07c-6.29-5.65-9.44-8.48-9.44-8.48
			C1175.95,563.17,1172.16,564.11,1172.16,564.11z M670.05,569.52c-8.11-13.97-12.19-19.72-12.24-17.24
			c-5.15-0.24-10.34,2.36-15.58,7.79c-0.13,0.21,0.42,1.79,1.67,4.73c0,0-2.41-1.11-7.23-3.34c-8.01-1.07-16.35,0.51-25.03,4.73
			c-3.34,1.24-7.6-0.62-12.79-5.56c-7.73-0.15-24.41,4.86-50.07,15.02c24.29-3.89,36.44-5.84,36.44-5.84
			c0.56,4.08,0.83,6.12,0.83,6.12c5.43-3.68,12.76-3.78,21.97-0.28c5.45,2.18,8.79,2.55,10.01,1.11c-1.11-2.97-1.67-4.45-1.67-4.45
			c5.6-4.5,10.52-6.82,14.74-6.95c8.03,7.55,13.97,10.33,17.8,8.34c6.68-5.19,10.01-7.79,10.01-7.79
			C666.34,568.31,670.05,569.52,670.05,569.52z"/>
	</g>
	<g>
		<path class="st1" d="M880.37,299.01c-4.39-3.01-9.22-6.49-13.53-9.93c-6.22-4.97-11.64-10.12-14.07-14.43l-0.15-0.31
			c-0.61-1.17-1.37-2.86-2.28-5.07l-0.06-0.16l0.21,3.6l0.09,1.52l-0.4,1.54c-0.74,2.86-2.27,5.67-4.59,8.41
			c-1.06,1.26-2.33,2.55-3.8,3.87l-0.27,2.17c1.31,2.51,2.2,4.39,2.98,6.37v0.04c0.92,2.34,1.62,4.56,2.55,7.76
			c3.08,4,6.39,8.41,9.91,13.23c0.94,1.28,1.84,2.53,2.71,3.73c2.43-2.62,4.89-5.3,7.34-7.97
			C871.46,308.52,875.89,303.69,880.37,299.01 M931.84,266.5c0-0.16-0.01-0.32-0.01-0.49c-1.02-0.74-2-1.52-2.91-2.36
			c-0.95-0.88-1.81-1.8-2.57-2.78c-2.12-0.39-5.1-0.9-9.05-1.52l-1.76-0.28l-1.53-0.85c-3.12-1.73-5.27-4.77-6.45-9.11
			c-0.23-0.85-0.44-1.8-0.62-2.85c-0.48-0.3-0.97-0.62-1.46-0.96c-2.08-1.44-4.51-3.37-7.28-5.8l-6-2.27l-0.5-0.23
			c-1.77-0.79-3.33-2.02-4.66-3.69l-0.72-0.09l-0.2,0.28c0.87,1.66,1.62,3.05,2.24,4.18l0.82,0.41l1.46,0.73l1.09,1.09
			c4.49,4.47,10.04,12.99,15.43,21.24c3.61,5.54,6.93,10.86,8.63,13.52c4.92-1.47,9.49-2.63,13.68-3.48
			c0.91-0.18,1.8-0.35,2.67-0.51C931.88,268.93,931.86,267.73,931.84,266.5z M990.76,497.03c-0.07-0.78-0.13-1.56-0.18-2.35
			c-0.45-0.12-0.91-0.26-1.37-0.44C989.85,495.17,990.36,496.1,990.76,497.03z M798.35,135.08c-0.2-4.7-0.29-11.2,0.24-17.45
			c0.86-10.13,3.54-20.13,10.18-24.87c9.78-6.98,19.51-11.08,29.25-12.57c9.44-1.45,18.76-0.42,28,2.83l6.86,0.59l2.58,0.22
			l2.14,1.44c7.05,4.76,14.01,9.85,20.86,15.25c6.77,5.35,13.08,10.73,18.91,16.16l0.8,0.75l0.63,0.92
			c2.43,3.54,3.29,7.57,2.72,11.45c-0.57,3.89-2.58,7.51-5.89,10.19c-1.81,1.47-3.67,2.92-5.57,4.35c-2.01,1.51-3.76,2.78-5.25,3.8
			l-0.84,0.58l-0.94,0.39c-1.89,0.79-3.83,1.28-6.25,1.52l0.56,0.88l0.35,0.55l0.15,0.3c1.52,3.01,2.14,6.33,1.86,9.95l-0.12,0.85
			c-1.16,7.13-2.31,12.69-3.45,16.67c-1.47,5.13-3.39,8.83-5.77,11.09l0,0c-0.35,0.35-0.72,0.68-1.08,0.99
			c2.24,0.62,4.33,1.07,6.27,1.35c1.91,0.27,3.62,0.36,5.12,0.25h0.08c4.66-0.29,8.47-0.36,11.41-0.23
			c2.57,0.12,4.78,0.46,6.62,1.03c0.54-2.3,1.88-4.42,4.05-6.35c2.44-2.18,5.89-3.53,10.34-4.05l0.44-0.05l0.87,0.01
			c4.08,0.06,7.76,0.72,11.05,1.97c3.64,1.38,6.78,3.44,9.4,6.17l0.16,0.15c2.52,2.75,4.85,5.48,6.99,8.19
			c2.13,2.71,4.16,5.51,6.06,8.39l1.32,2l0.26,2.42l0.26,2.35c4.65,5.7,8.36,10.98,11.11,15.84l0.2,0.36l0.37-1.25l1.5-5.11
			l-19.12-32.38l-0.37-0.63l-0.32-0.84c-3-7.79-1.96-13.55,2.13-17.8c3.66-3.81,8.84-5.01,15.03-4.48v0
			c8.5,0.74,14.89,2.48,14.91,2.48l3.01,0.75l2.07,2.39c15.78,18.22,31.23,36.75,46.72,55.32c13.35,16.02,26.73,32.06,41.75,49.52
			l0.43,0.54c2.85,3.85,2.6,6.34,1.94,12.77l-0.16,1.59c-0.05,0.53,0.06,0.75,0.52,1.58v0.04l0.41,0.75l1.33,2.42l-0.13,2.73
			c-0.17,3.73-0.59,7.47-1.24,11.22c-0.43,2.45-0.95,4.93-1.56,7.43l1.82,2.91c2.63,4.2,3.63,9.1,2.85,13.77
			c-0.78,4.67-3.27,8.98-7.61,12.06l-0.12,0.08c-2.66,1.85-6.34,4.51-10.08,7.21c19.26,0.89,36.3,2.96,50.85,6.22
			c16.75,3.75,30.38,9.09,40.5,16.02l2.29,1.57l1.16,2.58c1.26,2.79,1.65,5.79,1.18,8.98c16.93,9.25,31.41,22.07,42.14,37.32
			c40.48,57.51,12.82,139.16-55.71,157.23c0,0-27.73,0.46-83.19,1.39c-45.51-12.85-73.75-40.31-84.72-82.37l-0.17-1.02l-0.07,0.1
			l-0.1-0.37l-0.05,0.59l-1.34,2.04c-4.27,6.48-8.4,12.25-12.39,17.29c-4.14,5.23-8.11,9.68-11.9,13.33
			c-3.92,3.78-7.02,6.08-10.95,7.68c-3.75,1.53-7.53,2.12-13,2.55c-5.44,0.43-13.36,0.58-26.08,0.41
			c-12.44-0.16-29.21-0.64-52.57-1.47c-7.64-0.27-8.53,0.74-9.3,1.62c-2.55,2.91-4.88,5.58-10.41,6.55l-60.7-2.25
			c-8.49,14.71-22.27,25.09-41.37,31.14c0,0-19.13,1.16-57.4,3.49c-46.16-15.01-67.01-52.43-54.22-107.22
			c1.09-3.36,2.35-6.64,3.76-9.83l-16.56-4.55l-1.01-0.28l-0.77-0.38c-2.89-1.42-5.05-3.43-6.48-6.03
			c-1.52-2.77-2.01-5.79-1.46-9.08l0.21-1.24l0.49-1.12l13.16-30.07c-0.12-0.29-0.24-0.58-0.35-0.86c-1.04-2.74-1.38-5.35-1-7.83
			l0.08-0.51l0.2-0.69l6.04-21.5l0.08-0.23c0.5-1.61,1.33-3.16,2.5-4.66c0.86-1.1,1.83-2.12,2.9-3.07l0.3-0.26l0.63-0.43l8.17-5.63
			c0.19-0.73,0.32-1.24,0.44-1.69c0.28-1.06,0.39-1.42,0.46-1.69c0.14-0.58,0.29-1.16,0.45-1.72c-1.6-0.25-3.46-0.54-5.93-0.92
			c-2.45-0.38-4.36-0.87-6.42-1.69c-1.94-0.77-3.51-1.64-5.48-2.84c-1.14-0.7-5.85-3.6-9.43-7.01c-8.28-7.89-12.3-17,1.67-23.46
			c2.61-1.21,5.9-2.44,10.12-3.8c4.17-1.34,8.94-2.72,14.59-4.24l1.01-0.27l1.28-0.04c2.55-0.08,5.93,0.09,10.14,0.49
			c4.21,0.4,9.01,1,14.42,1.79l0.82,0.12l0.73,0.23c2.62,0.82,5.66,2.35,9.13,4.59c2.41,1.56,5.15,3.53,8.22,5.91l48.35,5.57
			c13,1.5,16.93,4.21,25.38,10.06c0.2,0.14,0.59,0.4,2.62,1.79c2.05,1.4,4.07,2.46,6.21,3.29l-16.17-23.91l0,0
			c-3.37-4.85-5.98-9.86-7.83-15.01c-1.86-5.2-2.93-10.6-3.21-16.17l-0.06-1.1l0.17-1.03l2.07-12.42c-0.55-0.77-1.04-1.63-1.43-2.59
			c-1.49-3.59-1.44-7.5,0.91-11.76c-0.24-0.34-0.99-0.53-1.48-1.63c-2.22-4.97-4.66-10.42-3.17-18l0.08-0.31l4.07-17.66l0.01,0
			c2.02-11.18,4.29-20.69,6.63-28.72c2.95-10.12,6.04-18.02,8.87-24.07c0.79-1.68,1.16-3.24,1.53-4.77
			c1.03-4.29,2.04-8.44,7.18-15.47c7.6-10.39,13.42-15.57,14.52-16.51l0,0c5.38-4.63,10.48-7.93,15.29-9.87
			C797.78,135.3,798.07,135.19,798.35,135.08z"/>
	</g>
	<g>
		<path class="st2" d="M895.91,297.34c-8.33-5.08-30.18-19.87-34.5-27.54c-1.02-1.97-2.57-5.73-4.65-11.27c0,0-3.52-4.8-10.57-14.41
			c-4.51,11.09-6.53,18.17-6.04,21.26c0.31,5.27,0.46,7.9,0.46,7.9c-0.72,2.79-3.43,6-8.14,9.64c-0.77,6.12-1.16,9.18-1.16,9.18
			c3.87,7.2,4.43,8.82,6.74,16.85c7.75,9.96,14.56,19.29,20.45,28C871.22,323.84,883.58,309.34,895.91,297.34 M940.89,260.04
			c1.49,6.58,0.23,5.93,1.46,11.33c0.33,1.48,9.52,7.22,2.14,8.08c-7.11-0.2-17.42,1.9-30.91,6.27
			c-5.28-1.94-20.6-30.63-28.81-38.81c0,0-1.16-0.58-3.49-1.74c-1.75-2.8-5.19-9.39-10.34-19.75c5.27-0.42,7.71-0.53,9.18-0.58
			c0.93-1.32,1.39-1.98,1.39-1.98c6.33,0.42,10.24,1,11.74,1.74c1.02,1.98,1.84,3.1,2.44,3.37c5.11,1.94,7.67,2.91,7.67,2.91
			c6.07,5.44,10.33,8.38,12.78,8.83c0.43,5.83,1.32,9.13,2.67,9.88c9.92,1.55,13.94,2.44,13.94,2.44
			C933.56,255.22,936.89,257.82,940.89,260.04z M705.42,406.73c0.56-1.12,1.76-3.65,4.76-6.57c0,0-0.54-0.99-5.35-4.71
			c-3.7,1.43-7.58,3.95-11.62,7.55C697.38,401.98,701.86,404.88,705.42,406.73z M1132.7,435.37l5.07-12.52
			c-5.91-2.31-12.16-3.97-18.62-4.88l0.36,13.19C1124.26,432.1,1128.67,433.55,1132.7,435.37z M1152.53,450.17l6.83-14.88
			c-3.73-2.99-7.76-5.67-12.03-7.99l-4.94,13.62C1146.35,443.72,1149.75,446.88,1152.53,450.17z M1177.67,488.36l9.58,1.43
			c-0.01-1.02-0.05-2.05-0.12-3.09c-0.04-0.59-0.08-1.18-0.13-1.76L1177.67,488.36z M1181.2,513.96l1.32,0.76l0.23-0.55
			L1181.2,513.96z M1158.98,507.2l4.05,0.55l-3.32-1.92C1159.47,506.3,1159.23,506.75,1158.98,507.2z M1152.8,543.94l1.6,2.36
			c0.27-0.16,0.54-0.32,0.8-0.47L1152.8,543.94z M1147.51,525.83l21.63,9.07c0.97-0.99,1.91-2.01,2.81-3.06l-17.42-15.01
			C1152.6,520.21,1150.22,523.2,1147.51,525.83z M1126.59,537.54l8.3,16.51c0.27-0.06,0.54-0.14,0.8-0.2l-1.73-18.97
			C1131.58,535.94,1129.11,536.83,1126.59,537.54z M1112.89,539.67l0.67,16.51c0.91,0.03,1.81,0.05,2.73,0.05l0.24,0l0.38-16.84
			C1115.57,539.53,1114.23,539.62,1112.89,539.67z M1104.33,430.02l-2.07-12.68c-1.49,0.1-2.97,0.24-4.44,0.41
			c3.42,8.56,5.02,12.34,5.02,12.34C1103.35,430.06,1103.84,430.04,1104.33,430.02z M1162.31,470.33l16.76-11.57
			c-0.96-1.79-2-3.54-3.11-5.25l-15.95,9.32C1160.91,465.19,1161.69,467.71,1162.31,470.33z M1056.53,530.76l3.63-3.97l-5.55,1.87
			C1055.24,529.37,1055.88,530.07,1056.53,530.76z M1101.02,538.94l-0.01,0.16l0.08-0.15L1101.02,538.94z M1082.24,532.18
			l-9.08,11.96c1.04,0.63,2.09,1.24,3.16,1.83l8.73-12.22C1084.09,533.26,1083.16,532.73,1082.24,532.18z M1052.36,506.93
			l-9.74,3.25c0.34,0.74,0.68,1.48,1.04,2.22l10.3-3.2c-0.2-0.52-0.41-1.05-0.6-1.6L1052.36,506.93z M1036.89,488.45l8.56-0.8
			c-0.61-3.98-1.11-8.51-1.53-13.57l-6.4-2.06c-0.8,4.73-1.08,9.64-0.76,14.67C1036.79,487.28,1036.84,487.87,1036.89,488.45z
			 M1041.19,506.75l8.45-2.82c-1.4-3.03-2.6-7.24-3.58-12.61l-8.74,0.81C1038.06,497.18,1039.37,502.07,1041.19,506.75z
			 M1052.06,525.61l13.29-4.48l1.33-1.46h-5.42c-2.1-1.19-4.03-3.54-5.79-7.07l-10.05,3.12
			C1047.36,519.18,1049.58,522.49,1052.06,525.61z M1070.03,542.14l9.12-12c-2.84-2.05-5.44-4.43-7.71-7.15l-4.01,1.35l-8.28,9.04
			C1062.49,536.59,1066.13,539.52,1070.03,542.14z M1093.63,553.07l3.38-6.39l0.33-8.46c-3.05-0.71-6.03-1.66-8.88-2.87l-8.82,12.35
			C1084.09,549.88,1088.77,551.69,1093.63,553.07z M1109.84,555.97l-0.66-16.27c-1.39-0.03-2.78-0.11-4.16-0.24l-4.34,8.22
			l-0.27,7.01C1103.5,555.29,1106.65,555.72,1109.84,555.97z M1131.14,554.85l-8.24-16.41c-0.75,0.16-1.51,0.3-2.27,0.43
			l-0.39,17.26C1123.97,555.95,1127.61,555.52,1131.14,554.85z M1151.11,548.08l-7.9-11.68l-4.8-3.78c-0.3,0.17-0.59,0.34-0.9,0.5
			l1.8,19.71C1143.44,551.57,1147.39,549.98,1151.11,548.08z M1166.22,537.7l-21.81-9.14c-0.44,0.35-0.88,0.69-1.33,1.03l2.88,4.26
			l12.56,9.88C1161.25,541.89,1163.82,539.88,1166.22,537.7z M1180.99,518.13l-9.49-5.48l-14.13-1.92
			c-0.34,0.93-0.71,1.83-1.11,2.71l18.02,15.53C1176.88,525.58,1179.13,521.96,1180.99,518.13z M1187.2,493.53l-16.81-2.51
			l-6.96,2.55c-0.47,3.07-1.21,6.04-2.25,8.83l11.54,6.66l11.34,1.54C1185.87,505.2,1186.94,499.48,1187.2,493.53z M1180.75,462.1
			l-17.63,12.18c0.68,3.94,1,8.02,0.93,12.05l5.96,0.89l16.55-6.07C1185.56,474.49,1183.58,468.09,1180.75,462.1z M1162.31,437.77
			l-7.21,15.71c0.22,0.32,0.44,0.64,0.66,0.95c1,1.5,1.93,3.16,2.78,4.94l15.32-8.95C1170.51,445.83,1166.63,441.58,1162.31,437.77z
			 M1141.21,424.28l-5.16,12.73c1.09,0.58,2.14,1.18,3.16,1.81l4.8-13.23C1143.09,425.13,1142.15,424.7,1141.21,424.28z
			 M1106,417.18l2.09,12.79c2.65,0.04,5.22,0.24,7.7,0.57l-0.35-13.01c-2.58-0.24-5.19-0.37-7.83-0.37
			C1107.07,417.17,1106.53,417.17,1106,417.18z M808.43,138.27c-0.52-8.26-1.38-32.13,6.08-37.46
			c16.92-12.07,33.24-14.13,49.44-8.03c5.42,0.46,8.13,0.7,8.13,0.7c14.18,9.57,27.04,19.72,38.58,30.44
			c1.93,2.82,1.39,6.27-1.23,8.39c-3.63,2.95-7.02,5.5-10.16,7.65c-2.35,0.98-5.14,1.14-11.62,0.7c-1.94,6.27-2.9,9.41-2.9,9.41
			c2.87,4.49,4.3,6.74,4.3,6.74c0.68,1.35,0.96,2.94,0.81,4.76c-2.16,13.3-4.29,20.74-6.39,22.31c-2.52,2.49-5.7,2.99-9.53,1.51
			c-7.63-5.64-14.06-8.85-19.29-9.64c-2.6,1.05-4.77,2.36-6.51,3.95c0.61,4.62,1.97,7.53,4.07,8.71c5.04,3.1,7.55,4.65,7.55,4.65
			c7.59,3.54,14.56,5.75,20.91,6.62c1.08,0.93,1.63,1.39,1.63,1.39c1.71-0.06,2.87-0.03,3.49,0.12c6.06,1.77,11.25,2.5,15.57,2.21
			c8.76-0.54,13.87-0.31,15.34,0.7c3.41,3.25,5.11,4.88,5.11,4.88c5.81-2.01,8.71-3.02,8.71-3.02c1.54-0.66,3.52-0.62,5.93,0.12
			c-4.96-5.03-7.44-7.55-7.44-7.55c-1.22-2.61,0.57-4.2,5.34-4.76c5.8,0.09,10.29,1.79,13.48,5.11c4.62,5.03,8.64,10.14,12.08,15.34
			c0.39,3.56,0.58,5.34,0.58,5.34c10.49,12.4,16.03,22.2,16.62,29.4c-2.4,5.11-3.6,7.67-3.6,7.67c3.1,4.88,4.65,7.32,4.65,7.32
			c2.6-2.37,4.58-4.54,5.93-6.51c4.73-16.11,7.09-24.17,7.09-24.17c2.01,0.16,3.02,0.23,3.02,0.23c1.24-3.87,1.86-5.81,1.86-5.81
			c-15.65-26.49-23.47-39.74-23.47-39.74c-2.83-7.34,0.56-9.4,7.09-8.84c7.67,0.66,13.36,2.22,13.36,2.22
			c30.56,35.28,57.98,69.4,88.42,104.81c0.64,0.87,0.37,2.6-0.12,7.51c-0.39,3.88,0.13,4.45,2.09,8.06
			c-0.3,6.42-1.5,13.31-3.6,20.68c2.02,3.24,3.39,5.42,4.09,6.54c2.63,4.2,2.13,9.55-2.09,12.55c-9.1,6.31-18.44,13.51-27.72,19.56
			c-2.45,2.3-2.92,2.61,1.63,10.46c6.25-3.73,7.87-5.27,14.41-5.07c42.74,1.32,74.67,8.25,93,20.8c0.93,2.07,0.54,4.7-1.16,7.9
			l-2.01,1.45c38.02,16.96,64.89,52.61,66.05,93.85c1.62,57.65-47.6,104.39-109.95,104.39c-62.34,0-114.2-46.73-115.82-104.39
			c-0.08-2.66-0.04-5.3,0.1-7.92c-2.35,1.35-4.13,2.2-5.34,2.55c-1.59,0.49-4.61,0.34-4.53-5.69c1.54-14.96,6.53-38.65,16.67-55.35
			c-2.07-2.25-3.86-4.18-5.36-5.8c-10.26-11.12-5.25-6.5-7.43,10.91c-3.02,4.64-7.88,10.82-8.92,16.25
			c-6.25,32.73-9.38,49.09-9.38,49.09c3.75,3.5,5.69,5.9,5.81,7.2c-8.22,12.48-15.86,22.12-22.89,28.92
			c-5.95,5.74-8.93,6.77-17.87,7.48c-10.7,0.84-30.62,0.61-77.52-1.05c-22.05-0.78-12.77,9.07-26.37,8.51
			c-40.51-1.65-59.03-2.6-59.03-2.6l-0.41-0.11c-12.01,28.41-37.89,48.56-67.89,49.39c-41.45,1.15-75.04-35.01-75.04-80.77
			c0-28.61,13.14-54.2,33.11-69.64l-2.59-2.52c-0.55-1.65-0.57-4.34-0.06-8.08c-5.81,7.58-11.74,17.07-17.78,28.47
			c-1.65,2.09-3.2,3.1-4.65,3.02c-15.49-4.26-23.24-6.39-23.24-6.39c-2.05-1.01-2.9-2.56-2.56-4.65
			c10.07-23.01,15.11-34.51,15.11-34.51c-1.94-2.9-2.8-5.15-2.56-6.74c4.03-14.33,6.04-21.5,6.04-21.5c0.28-0.91,1.11-1.98,2.5-3.19
			c6.86-4.73,10.28-7.09,10.28-7.09c0.5-0.47,0.89-0.96,1.16-1.45c0.85-3.51,1.23-4.72,1.61-6.31c0.82-3.41,1.89-6.13,6-6.52
			c3.72-0.23,5.58-0.35,5.58-0.35c-2.53-1.01-4.39-1.75-5.58-2.22c-2.15-0.86-1.49-0.33-2.15-2.83c-8.59-1.38-14.42-2.33-17.47-2.8
			c-3.51-0.54-5.08-1.26-8.21-3.18c-1.93-1.18-15.86-9.77-8.77-13.05c4.61-2.13,11.68-4.39,23.12-7.47
			c4.28-0.13,11.91,0.61,22.89,2.21c3.52,1.1,8.98,4.63,16.38,10.57c26.67,3.08,43.72,5.04,51.14,5.9
			c11.81,1.36,14.51,4.03,23.54,10.19c9.15,6.24,17.8,7.4,32.92,8.67c-19.44-28.74-29.17-43.11-29.17-43.11
			c-5.73-8.24-8.83-16.92-9.3-26.03c2.01-12.08,3.02-18.13,3.02-18.13c-2.87-1.06-4.52-2.88-1.86-6.62
			c2.12-6.12-6.03-12.62-4.3-21.38c2.71-11.77,4.07-17.66,4.07-17.66c4.36-24.39,10-40.55,14.81-50.81
			c3.23-6.89,1.35-9.83,7.75-18.58c7.67-10.48,13-14.85,13-14.85c9.19-7.92,16.67-10.94,22.42-9.06
			C809.55,141.58,808.85,139.53,808.43,138.27z"/>
	</g>
	<g>
		<path class="st1" d="M812.27,456.04c2.67,4.44,7.1,11.44,1.35,14.88c-4.89-1.88-9.61-3.89-17.43-2.79
			c6.51,2.38,7.08,4.4,12.44,9.18c8.19,1.07,28.22-5.64,31.72,4.36c0,0-5.33-1.1-9.35,0.29c4.39-0.05,8.97,0.98,10.03,4.17
			c0.52,1.56,0.6,4.04-1.37,6.4c0.98-1.36,0.52-2.91-1.39-4.65c-6.84-3.44-34.11,0.07-63.21,9.01c0,0,9.59-0.96,9.31,0.27
			c-0.23,1.01-0.5,2.31-0.71,3.74c-0.09-0.08-3.07,0.62-8.95,2.09c0.17,0.81,2.15,2.63,5.93,5.46c-2.96-0.88-6.64-2.58-11.04-5.11
			c-1.77-1.96-0.3-8.7,3.72-18.82c3.17-3.18,8.01-9.18,8.01-9.18c-4.05-0.75-7.93,0.96-8.37-0.46c0.42-3.27,0.71-15.48,4.24-17.81
			c5.91-3.9,13.56-5.62,20.7-6.22c-0.12,0.16-2.64-3.37-11.85-3.83c1.31-10.68,15.09-15.84,33.67-42.9c0.61-0.89,4.95,0.4,5.57-0.54
			c0.63-0.95-2.46-4.13-1.82-5.12c0.32-0.66,21.99-1.9,27.19-3.25c-5.08-1.73-17.86-1.57-29.51-13.48c12.79-0.7,43.44-4.69,7.2-7.44
			c0.98-3.65-4.84-9.64-3.02-11.04c3.41-2.62,5.55-2.23,8.37-10.34c-34.17-4.57-14.17-7.26-37.41-34.51
			c-0.99-1.33,7.8-7.83,16.85-9.3c-6.74-0.97-16.85,0.08-24.05,3.02c-0.32-0.35,0.53-3.56-2.33-8.25
			c-2.95-4.83-9.62-11.13-9.75-11.51c4.76-5.04,16.23-5.86,34.39-2.44c-12.86-5.19-24.32-7.05-34.38-5.6
			c-3.25,0.47-14.72,6.87-18.37,19.65c0.37-16.5,9.06-17.88,8.4-20.16c-0.29-1-0.68-2.68-1.19-4.12c0.58-0.28-0.93-0.32-4.53-0.12
			c22.41-14.6,43.57-2.15,62.17,8.13c0,0,0,0.46-1.86,3.25c3.16,2.91,6.19,6.55,9.06,10.92c-3.94-2.02-13.39-5.93-17.2-5.81
			c10.03,6.49,16.48,12.19,11.62,12.78c20.89,23.73,33.44,42.01,37.65,54.84c0,0-1.7,0.93-5.11,2.79c5.26,1.02,8.39,2.69,9.41,5
			c1.07,7.03,0.01,23.19-3.53,31.65c-2.21,5.27-3.52,4.35-8.79,6.35c-0.3,0.29,1.22,5.08,0.05,6.72c-1.26,1.77-4.61,7.14-6.6,9.82
			c-0.91,1.23-3.49,3.2-4.47,4.49c-9.42,12.48-20.06,27.96-21.86,30.32C819.6,459.25,815.52,456.22,812.27,456.04"/>
	</g>
	<g>
		<path class="st1" d="M900.04,125.16c-7.53-2.19-17.08-4.3-28.64-6.3c0,0-2.32-1.98-6.97-5.93c0,0-2.48,0.08-7.44,0.23
			c-12.76-8.64-26.08-11.35-39.97-8.13c15.89-11.31,30.45-13.52,45.08-7.78c9.68,5.19,14.52,7.78,14.52,7.78
			c-4.34-4.8-6.51-7.2-6.51-7.2c2.17,0.31,3.25,0.46,3.25,0.46c14.21,11.22,25.01,20.14,33.1,27.32c1.57,1.39,1.39,2.97-0.22,4.28
			c-5.07,3.66-7.61,5.49-7.61,5.49c-2.36,0.89-5.67,1.38-9.93,1.45c6.46-1.54,10.01-2.99,10.63-4.36c2.79-2.71,4.18-4.07,4.18-4.07
			C903.09,127.61,901.93,126.53,900.04,125.16"/>
	</g>
	<g>
		<path class="st1" d="M875.29,131.32c1.87,5.22,3.81,10.21,5.81,14.99c0,0,1.01-3.52,3.02-10.57
			c-6.82-7.59-10.23-11.39-10.23-11.39c-1.27,0.78-2.08,3.46-2.44,8.02C874.01,131.67,875.29,131.32,875.29,131.32"/>
	</g>
	<g>
		<path class="st1" d="M877.61,173.45c-2.05-4.96-7.45-11.7-10.92-15.46c-11.27-12.19-30.58-19.6-42.82-22.15
			c-5.46-1.13-9.09-0.02-8.01,6.28c-1.59-1.64-3.37-4.85-3.37-6.86c0-13.66,0.51-21.66,2.03-24.63c0.23,3.33,0.35,5,0.35,5
			c12.09-6.22,24.53-4.86,37.3,4.07c6.92,9.78,11.51,15.45,13.77,17.02c10.15,10.45,16.62,18.04,19.4,22.77
			c0.29,0.84,0.38,1.67,0.29,2.5c-1.66,9.08-3,14.47-4.01,16.15c-2.28,2.28-4.68,3.02-7.2,2.21
			C877.61,178.91,879.06,176.97,877.61,173.45"/>
	</g>
	<g>
		<path class="st1" d="M892.24,206.96c-1.08,1.53-1.76,3.66-2.03,6.39c-0.86,0.38-1.56-1.05-2.09-4.3c-3.98,0.82-6.5,3.07-9.41,9.53
			c0,0-1.51-1.2-2.67-2.21c-0.92-0.04-1.94,1.95-3.05,1.77c-10.84-1.67-30.16-9.31-41.83-13.57c-5.05-1.84-7.92,0.21-9.75,2.75
			c-5.11,7.11,1.73,9.27,7.46,12.53c-9.73-1.87-15.4-4.03-19.99-13.25c0,0-5.04-6.51-15.1-19.52c-4.14-7.99-6.07-14.81-5.81-20.45
			c-1.86,2.12-3.41,6.15-4.65,12.08c-1.11,1.14-4.22,0.83-4.72,2.07c-2.08,5.16-4.92,7.14-6.2,7.69c5.98-8.81,1.59-14.3,14.64-26.26
			c5.35-6.8,10.62-10.71,14.65-12.66c7.64-3.69,13.55,0.45,20.33,4.88c0,0-0.89-2.44-2.21-5.46c5.19-3.1,9.41-5.35,9.41-5.35
			c2.06-0.95,3.99,3.36,11.59,8.98c2.18,1.61,5.64,4.55,10.25,6.35c2.52,1.47,3.33,3.37,2.44,5.69c-5.19,4.78-8.95,9.11-11.27,13.01
			c-2.39-1.22-3.74-3.85-4.07-7.9c-2.86-10.45-6.97-17.27-12.32-20.45c2.38,7.55,1.57,14.35,3.6,21.5
			c-4.82-8.53-9.27-13.52-13.36-14.99c4.22,4.08,6.35,8.34,6.39,12.78c-3.95,0.08-5.93,0.12-5.93,0.12
			c5.21,2.21,11.09,7.59,16.27,14.99c-12.05,1.2-16.5,3.14-16.5,3.14c-1.42,0.97-1.81,3.48-1.16,7.55c7.06-6.5,16.28-8.12,21.61-7.2
			c8.55,4.11,16.99,8.91,26.26,11.85c5.66,1.97,12.17,3.79,16.5,4.3c0.05,0.81-3.37,1.36-5.16,3.02c-1.62,1.51-1.67,4-1,7.26
			c5.3-6.66,9.25-9,10.46-8.77C886.49,205.52,888.83,206.1,892.24,206.96"/>
	</g>
	<g>
		<path class="st1" d="M942.73,219.04c-5.15,0.22-6.93,1.15-5.35,2.79c4.81,2.13,11.09,9.02,18.82,20.68
			c5.53,6.9,9.95,10.69,13.25,11.39c0,0,0.77-2.05,2.33-6.16c0.99-1.94-4.63-12.86-12.32-21.61c-0.08,4.06,0.74,8.25,2.21,14.64
			c-3.43-6.56-5.59-13.06-6.51-19.52c0,0,0.04-2.28,0.12-6.86c0,0-4.07-4.96-12.2-14.87c-2.36-1.87-5.22-1.87-8.6,0
			c0,0,3.49,3.83,10.46,11.5c-6.6-2.05-10.51-2.6-11.74-1.63c0,0-3.6,1.39-10.81,4.18c-4.86,1.55-9,1.82-12.43,0.81
			c3.26,0.06,6.43-0.64,9.53-2.09c0.22,0.6-1.52-1.1-5.23-5.11c-1.4-0.58-1.55,0.39-0.46,2.9c0,0-1.55-0.97-4.65-2.9
			c0,0-3.76,0.66-11.27,1.98c-2.57,1.07-4.12,3.74-4.65,8.02c1.39-0.93,2.09-1.39,2.09-1.39c-0.85,3.45-0.23,6.2,1.86,8.25
			c-0.33-3.89,0.36-6.02,2.09-6.39c2.53,1.41,6.13,2.22,10.81,2.44c3.26,0.42,10.54-1.05,21.84-4.42
			c7.91-1.07,14.22,0.25,18.94,3.95C945.44,219.24,942.73,219.04,942.73,219.04"/>
	</g>
	<g>
		<path class="st1" d="M923.55,228.92c-1.35,1.77-5.46,2.9-12.32,3.37c0,0-2.21-1.82-6.62-5.46c-2.25-1.05-1.24-2.72,3.02-5
			c3.99-0.19,5.85-0.11,5.58,0.23c-1.16,1.26-2.4,2.26-3.72,3.02c-2.38,0.6-2.73,1.22-1.05,1.86c2.56,0.24,5.82-1.27,9.76-4.53
			c2.15-0.87,2.96-0.4,2.44,1.39c-1.3,2.04-4.32,3.75-9.06,5.11c0.73,0.53,1.62,0.8,2.67,0.81c5.25-2.06,7.73-3.22,7.44-3.49
			C923.5,226.51,924.12,227.41,923.55,228.92"/>
	</g>
	<g>
		<path class="st1" d="M917.74,236.47c1.53,1.13,3.58,1.64,6.16,1.51c0.72-2.76-0.28-4-3.02-3.72
			C916.34,234.84,915.3,235.57,917.74,236.47"/>
	</g>
	<g>
		<path class="st1" d="M933.2,227.87c5.84,19.99,7.16,24.33,12.55,28.82c-3.65-0.25-8.18-3.54-11.39-11.27c0,0-3.33,0.5-12.09,0.81
			c-1.13-0.6-1.41-2.23-0.81-4.88c4.99,0.17,10.65,0.13,11.85,1.51C933,238.9,927.86,219.13,933.2,227.87"/>
	</g>
	<g>
		<path class="st1" d="M968.87,271.21c-1.19,0.89-2.16,1.17-2.9,0.81c0,0-2.21-2.87-6.62-8.6c0,0-3.1,2.21-9.3,6.62
			c-2.31,0.44-3.2-0.14-2.67-1.74c0.85-3.94,5.07-8.4,12.67-13.36c5.34,1.09,7.7,2.72,7.09,4.88c-1.78,1.16-2.67,1.74-2.67,1.74
			c2.56,0.17,5.08,2.07,7.55,5.69C972.27,268.34,971.22,269.66,968.87,271.21"/>
	</g>
	<g>
		<path class="st1" d="M1071.35,314.32c0.73-5.12,1.31-8.76,1.74-10.92c-1.66-5.28-14.95-20.27-30.56-30.44
			c-0.48-0.12-3.88-0.04-6.97,0.7c-0.12,0,1.24,6.66,8.95,25.56c-9.69-16.07-16.97-26.95-21.84-32.65c0,0,0.97-0.31,7.55-3.72
			c0,0,4.35,1.19,7.26,1.82l-23.09-19.24c-15.09,10.55-21.37,16.52-19.75,16.04c4.16-9.48,5.51-15.09,7.29-19.15
			c2.48-5.64,2-7.09,7.6-4.95c10.99,4.21,19.67,7.58,25,9.67c-8.08-6.2-21.38-15.62-33.71-22.3c0,0-7.32-11.93-21.96-35.79
			c-2.04-3.78-1.41-5.52,1.88-5.24l45.14,49.39l-41.03-48.81l4.12,0.59c57.86,68.87,86.8,103.3,86.8,103.3
			c-0.29,2.9-0.25,5.13-0.35,6.98c-0.12,2.19-0.19,3.9,2.09,6.26c-1.7,12.08-2.56,18.13-2.56,18.13
			C1072.55,316.06,1071.35,314.32,1071.35,314.32"/>
	</g>
	<g>
		<path class="st1" d="M1053.22,304.68c9.7,3.92,15.08,5.43,16.15,4.53c0,0,0.5-1.63,1.51-4.88c0,0-1.55,0.39-4.65,1.16
			c-5.65-4.38-8.79-8.91-9.41-13.59c0,0-0.81,4.69-1.28,7.09c0,0-2.13-0.7-4.76-2.44c-0.53-0.45-3.09-5.18-7.67-14.18
			C1046.1,293.59,1049.47,301.03,1053.22,304.68"/>
	</g>
	<g>
		<path class="st1" d="M1025.73,315.83c1.71,1.1,3.37,2.16,4.89,3.12c4.49,2.8,9.2,3.86,14.46,4.29c0,0,5.87-0.01,17.6-0.03
			c2.05,0.03,3.17-0.24,4.94,2.03c0,0,3.5,4.3,8.77,10.81c-2.01-0.12-4.92-0.98-6.45,0.27c-0.89,0.73-2.52,2.11-5,4.15
			c-2.28,1.49-3,6.29-2.03,7.78c0,0,5.09-3.51,15.28-10.54c2.32-1.6,2.76-4.34,1.34-6.71c0,0-2.87-3.66-8.6-10.98
			c-1.95-2.39-3.66-2.66-6.51-2.68c-2.56-0.03-9.17-0.1-19.81-0.22c-2.98-0.02-5.61-0.71-8.6-2.44c0,0-8.75-5.69-19.46-12.03
			c-2.88-1.65-5.23-2.48-9.57-2.65l-0.01-0.01c-2.03-0.45-4.35-0.29-6.97,0.46c-27.74,5.93-29.65,6.4-41.05,8.84
			c-5.23,1.48-8.01,2.79-11.47,9.52c-5.58,12.39-8.37,18.59-8.37,18.59c-1.82,4.96-1.94,7.67,0,11.62
			c20.76,38.73,30.91,57.4,30.91,57.4c0.78,10.58-11.94,16.66-7.44,23.82c2.17,2.32,3.25,3.49,3.25,3.49
			c7.13-11.62,10.69-17.43,10.69-17.43c1.87-3.45,3.19-7.4,3.95-11.85c9.91-44.77,14.87-67.16,14.87-67.16
			c1.23-3.64,4.64-7.21,10.22-10.69L1025.73,315.83z M1007.87,306.27c0.19,0.2,0.36,0.31,0.5,0.35c1.96-0.08,6.29,2.29,11.08,5.23
			l-22.23,11.72c-4.6,3-7.85,7.26-9.76,12.78c0,0-4.76,20.22-14.29,60.66c0,0-9.3-16.93-27.89-50.78c-1.47-2.81-1.39-5.6,0.23-8.37
			c0,0,2.71-5.38,8.13-16.15c1.78-3.57,3.29-5.27,7.55-6.27c0,0,14.76-3.1,41.95-8.83C1004.79,306.3,1006.36,306.19,1007.87,306.27z
			"/>
	</g>
	<g>
		<path class="st1" d="M1002.14,293.83c5.86-1.53,10.74-0.6,17.43,3.49c0,0,3.87,2.32,21.38,13.48c0,0,0.32-0.8,1.53-2.85
			c0.35-0.59,8.36,2.16,15.55,3.14c0,0-14.29-5.78-14.69-6.45c-1.77-2.91-6.86-11.35-10.52-17.78c0,0,1.49,6-1.91,4.29
			c-6.46-3.26-12.12-7.07-22.95-12.88c-5.04-2.36-8.75-1.88-13.93-1.5c-4.16,0.31-10.98,0.81-20.46,1.5c0,0,3.72-3.95,11.15-11.85
			c-18.13,13.63-27.19,20.45-27.19,20.45c4.35,5.84,10.59,14.82,10.45,13.36c-0.13-1.32-5.4-12.54-4.23-12.79
			c12.79-2.74,19.96-3.95,24.52-4.53c7.05-0.91,7.7-1.08,11.79,6.52C1001.91,293.45,1002.14,293.83,1002.14,293.83"/>
	</g>
	<g>
		<path class="st1" d="M1106.7,402.76c50.13,0,93.12,37.58,96.01,83.94c2.89,46.36-35.4,83.94-85.53,83.94
			c-50.13,0-93.12-37.58-96.01-83.94c-0.72-11.55,1.11-22.54,5.05-32.56l10.46,1.29c-4.16,9.51-6.15,20.1-5.45,31.26
			c2.57,41.22,40.8,74.64,85.38,74.64c44.58,0,78.63-33.42,76.06-74.64c-2.57-41.22-40.8-74.64-85.38-74.64
			c-3.95,0-7.81,0.27-11.58,0.77l-3.25-9.03C1097.07,403.12,1101.83,402.76,1106.7,402.76"/>
	</g>
	<g>
		<path class="st1" d="M745.79,527.91c-8.93,22.82-28.42,39.42-49.87,40.06c-27.78,0.84-48.3-25.43-45.82-58.66
			c1.51-20.26,11.22-38.43,24.86-49.72l3.47,3.34c-13.05,10.19-22.42,27.2-23.84,46.24c-2.26,30.27,16.43,54.18,41.73,53.42
			c20.01-0.6,38.17-16.46,46-38.03L745.79,527.91z"/>
	</g>
	<g>
		<path class="st1" d="M694.61,560.55c-23.62-4.77-37.35-22.88-36.7-46.83c0.57-20.98,7.92-36.82,22.06-47.52
			c0.89-0.13,1.58,0.45,2.09,1.74c-13.16,11.67-19.95,26.93-20.36,45.78C661.24,535.14,673.04,555.16,694.61,560.55"/>
	</g>
	<g>
		<path class="st1" d="M741.61,501.12c0,0-22.43,4.61-53.33,11.04c-2.06,0.09-3.22-0.65-3.49-2.21c0,0-0.04-3.02-0.12-9.06
			c0.17-1.87,0.75-3.07,1.74-3.6c2.4-0.55,4.29-1.09,5.23-0.23c0.98,1.21,0.68,1.87,0.06,2.16c-0.79,0.37-1.71,0.19-1.46,1.26
			c0.54,1.9,0.25,2.85-0.69,3.27c-1.13,0.51-2.28,0.88-1.29,2.65c3.31,1.41,5.02-2.39,4.88-0.29c-0.47,1.28,0.81,1.51,3.83,0.7
			c1.11-0.18,1.85-1.34,2.21-3.49c1.06-0.37,2.2-0.12,3.43,0.76c0,0-0.15-3.99-0.46-11.97c0,0,4.07-0.93,12.2-2.79
			c-24.4-28.43-36.6-42.64-36.6-42.64c34.24,35.48,51.36,53.22,51.36,53.22C737.45,500.71,741.61,501.12,741.61,501.12"/>
	</g>
	<g>
		<path class="st1" d="M689.73,520.29c1.98,1.21,3.49,1.25,4.53,0.12c2.67-4.41,5.93-0.18,7.9,0.7c2.48-0.8,4.74-2.24,6.79-4.8
			c1.53-1.91-1.9-4.04,2.86-2.87c0,0,3.8-0.35,11.39-1.05c-3.63,14.12-15.99,22.74-27.66,23.34c-17.67,0.91-25.78-15.11-23.69-31.15
			c1.64-12.59,9.78-25.13,23-29.95c1.95,0.95,3.97,2.66,6.04,5.11c-5.98,2.09,3.28,5.64-0.93,6.62c-1.38,0.81-1.84,1.06-2.66,1.54
			c-1.21,0.71,0.39,2.64,0.39,2.64c-2.43-0.61-4.76-2.08-6.81-0.82c-5.03,3.09-7.85,7.41-8.81,12.28
			C680.81,508.47,683.68,517.48,689.73,520.29"/>
	</g>
	<g>
		<path class="st1" d="M953.99,437.9c2.3,3.7-1.54,8-5.35,4.88c0,0-1.82-1.98-5.46-5.93c-0.34-0.89,0.63-1.47,2.9-1.74
			c-4.08-2.38-9.54-1.25-14.76,4.07c0,0-17.16,17.35-53.57,52.52c-2.39,1.56-3.93,1.52-4.18-1.28c-0.2-3.6,2.51-7.86,8.13-12.78
			c29.75-29.75,44.62-44.62,44.62-44.62c6.54-5.6,13.89-9.24,20.95-2.01C952.22,436.07,953.99,437.9,953.99,437.9"/>
	</g>
	<g>
		<path class="st1" d="M939,417.1c-5.87,0.36-6.7,1.25-8.95,6.62c-0.79,1.42-6.48,6.69-6.97,5.11c0.56-7.17,3.13-16.66,12.67-17.2
			c6.39-0.17,10.5-0.26,12.46-0.26c4.43,0,5.1,4.69,3.11,5.72C943.1,417.1,939,417.1,939,417.1"/>
	</g>
	<g>
		<path class="st1" d="M955.96,297.32c-4.59-5.81-9.82-11.42-17.87-9.72c-9.43,1.99-24.09,4.42-31.48,11.02
			c-15.06,13.47-29.34,28.33-43.31,45.04c15.49-11.16,23.24-16.73,23.24-16.73c1.73-1,3.13-0.61,4.18,1.16
			c4.96,14.56,7.44,21.84,7.44,21.84c-8.37-0.16-12.55-0.23-12.55-0.23c-8.21,8.06-12.32,12.08-12.32,12.08
			c-2.03,3.07-1.64,4.93,1.16,5.58c7.28-6.35,10.92-9.53,10.92-9.53c21.84,3.25,32.77,4.88,32.77,4.88
			c4.12-0.03,6.18-2.2,12.27-8.32l-19.22-33.68c-3.35-5.88-1.07-9.69,3.85-10.74c4.49-0.95,18.99-3.48,39.87-7.37
			C956.78,302.27,957.56,299.35,955.96,297.32"/>
	</g>
	<g>
		<path class="st1" d="M933.71,336.54l10.68-24.99c-4.13,0.76-10.83,2.01-20.88,3.88c-7.37,1.88-5.84,1.98-2.74,2.84
			c1.08,0.3,9.15,2.58,10.31,3.17c0.82,1.48-4.52,2.42-3.8,3.73C930.43,330.82,932.5,334.44,933.71,336.54"/>
	</g>
	<g>
		<path class="st1" d="M1039.5,387.93c0,0-6.99-10.88-22.37-35.21c-0.39-1.17,1.16-2.41,4.65-3.72c-0.42-1.24-3.59-1.09-9.53,0.46
			c0,0-1.01-1.55-3.02-4.65c-0.88-2.86-0.42-4.87,1.39-6.04c5.37-2.14,9.4-1.68,12.08,1.39c3.1,5.58,4.65,8.37,4.65,8.37
			c-0.58,0.77-0.87,1.16-0.87,1.16c10.38,16.62,15.69,25.06,18.07,28.94C1046.95,382.52,1043.65,385.02,1039.5,387.93"/>
	</g>
	<g>
		<path class="st1" d="M1149.59,393.92c4.79-0.61,7.23-2.08,7.32-4.42c-21.89-11.08-52.12-16.52-90.69-16.33
			c-17.2,13.94-25.8,20.91-25.8,20.91c2.79-0.15,14.41-1.63,14.41-1.63c16.63,25.78,32.56,52.82,41.29,67.14
			c5.01,8.22-7.59,4.67-7.59,4.67c6.83,10.25,20.83,3.42,17.2-6.74c-15.18-41.99-22.77-62.98-22.77-62.98
			c9.64-7.24,14.47-10.86,14.47-10.86c21.75-0.36,39.53,1.85,53.33,6.62C1150.22,392.93,1149.83,394.13,1149.59,393.92"/>
	</g>
	<g>
		<path class="st1" d="M1099.86,475.02c-2.74-0.47-6.11,0.89-11.5,5c-8.19-13.97-8.73-12.96-1.63,3.02
			c-3.7,6.66-6.88,10.07-9.53,10.23c0,0-2.48,0-7.44,0c0,0,1.7-1.63,5.11-4.88c-0.62-1.24-1.55-3.1-2.79-5.58
			c1.24-1.99,1.24-4.32,0-6.97c0,0-0.77-1.39-2.32-4.18c-0.52-1.89,1.96-3.75,7.44-5.58c3.4-1.76,3.09-2.84-0.93-3.25
			c-13.79,2.17-20.68,3.25-20.68,3.25c-3.21,2.62-4.6,5.17-4.18,7.67c-0.62-8.62-1.7-14.66-3.25-18.13c0.56,11,0.8,17.5,0.7,19.52
			c0.34,7.09,1.51,11.51,3.49,13.25c4.34-1.24,6.51-1.86,6.51-1.86c0.84,2.81,0.38,4.98-1.39,6.51c-2,3.33-2,4.87,0,4.65
			c3.56-1.24,5.35-1.86,5.35-1.86c-1.05,3.67-0.9,5.45,0.46,5.35c10.69-2.48,16.04-3.72,16.04-3.72c2.27-0.57,3.97-1.58,5.11-3.02
			C1090.81,483.46,1095.96,476.99,1099.86,475.02"/>
	</g>
	<g>
		<path class="st1" d="M1110.61,474.15c1.78,0.02,2.01,0.62,0.7,1.8c1.84,1.3,0.84,4.26-1.86,2.09
			C1108.41,476.73,1108.39,474.89,1110.61,474.15 M1110.9,483.44c-5.04,1.86-9.46,3.53-11.62,6.62c0,0-0.16-0.81-0.47-2.44
			c0,0-0.89-1.08-2.67-3.25c-0.51-3.02,1.89-5.42,7.2-7.2c2.14,1.25,2.91,1.02,2.32-0.7c1.26-8.35,8.43-5.67,9.7-1.26
			C1116.09,477.68,1115.29,481.52,1110.9,483.44z"/>
	</g>
	<g>
		<path class="st1" d="M1158.4,492.1c-5.8,35.53-55.99,47.03-81.03,19.92c-2.37-2.99-2.37-5.04,0-6.16c0,0,3.56-2.6,10.69-7.79
			c2.25,0.53,2.84,1.97,1.74,4.3c-1.32,1.68-1.05,3.58,0.81,5.69c8.68,4.33,16.31,6.42,22.89,6.27c1.19-0.2,1.77-1.01,1.74-2.44
			c0.05-6.11,1.8-8.32,5.23-6.62c1.41,0.75,2.81,2.19,4.18,4.3c0.43,1.55,1.4,2.02,2.9,1.39c8.64-3.26,14.14-8.64,16.5-15.45
			c-0.76-4.86-7.56-2.37-5.81-8.6c0.98-1.93,2.37-2.58,4.18-1.98c2.92,0.72,4.39,0.25,4.42-1.39c0.93-9.22-1.54-16.73-7.44-22.54
			c-1.24-0.26-2.1-0.06-2.56,0.58c-3.45,1.94-5.97,2.37-7.55,1.28c-1.71-1.54-1.87-3.33-0.47-5.35c1.69-2.02,1.84-3.68,0.47-5
			c-6.56-4.33-13.69-6.39-22.31-6.62c-1.47-6.58-2.67-10.11-2.67-10.11C1135.4,433.13,1163.76,459.23,1158.4,492.1"/>
	</g>
	<g>
		<path class="st1" d="M1012.67,452.64c-4.08,9.39-10.43,11.08-15.57,19.29c5.61-30.19,18-52.03,37.18-65.53
			c-2.35,2.81-3.12,4.9-2.32,6.27c7.9,3.56,11.85,5.35,11.85,5.35c-3.02,0.37-5.58,1.14-7.67,2.32c6.58,7.17,9.98,14.3,10.22,21.38
			c-4.38-12.8-11.2-20.94-20.45-24.4c3.37,3.47,4.57,5.56,5.23,6.74C1023.16,432,1017.13,441.95,1012.67,452.64"/>
	</g>
	<g>
		<path class="st1" d="M907.04,372.01c-23.63,19.26-35.64,28.55-36.02,27.89c1.35-4.44,2.43-10.41,3.25-17.89
			c5.51-3.63,13.02-8.84,12.54-9.65c-3.49-5.91,0.12-5.87,0.24-5.69C902.52,371.05,906.86,372.21,907.04,372.01"/>
	</g>
	<g>
		<path class="st1" d="M959.32,401.05c2.86,1.72,4.02,3.27,3.49,4.65c0,0-1.12,2.09-3.37,6.27c0.2-0.15-1.5-2.32-5.11-6.51
			c0,0,1.71-0.23,5.12-0.7c0,0-8.09-2.94-24.28-8.83c0,0-4.65-9.06-13.94-27.19c-4.49-1.08-6.74-1.63-6.74-1.63
			c5.42,0,8.13,0,8.13,0c2.61-0.21,3.38-0.8,10.69-7.09c5.81,13.87,8.71,20.8,8.71,20.8c-3.1,7.28-4.65,10.92-4.65,10.92
			C952,397.95,959.32,401.05,959.32,401.05"/>
	</g>
	<g>
		<path class="st1" d="M925.85,403.73c-0.5,4.41-1.36,6.77-2.56,7.09c0,0-1.16,0.5-3.49,1.51c0,0-0.74,3.04-2.21,9.12
			c-0.29,0.86-0.75,1.31-1.39,1.34c-4.92-0.71-7.98-1.76-9.18-3.14c-0.32-0.54,2.6-0.7,4.71-0.47c-3.62-1.38-4.68-4.6-4.59-6.86
			c0,0,3.35,0.19,9.88,0.23c-0.47-0.47-5-2.29-13.59-5.46c0,0-0.85,3.58-2.56,10.75c-0.67,2.79-0.21,4.38,2.55,5.14
			c1.73,0.48,5.41,1.5,11.05,3.05c0,0-0.19,1.01-0.58,3.02c0,0-4.2-1.09-14.24-3.39c-2.38-0.54-3.22-2.29-2.72-4.75
			c0,0,1.78-9.49,5.34-28.47c-0.75-1.1-1.02-2.85-0.81-5.23c0,0,0.35-1.74,1.05-5.23c0.6-1.15,3.07-1.34,7.44-0.58
			c1.55-1.63,2.32-2.44,2.32-2.44c4.41,9.3,7.01,14.33,7.32,13.94c-9.84-0.31-13.59-0.35-13.59-0.35
			c0.08,3.41,15.57,4.53,15.57,4.53C925.19,402.99,925.85,403.73,925.85,403.73"/>
	</g>
	<g>
		<path class="st1" d="M887.77,398.9c-3.66,4.15-3.87,6.64-0.63,7.47c0,0,2.33,0.3,6.99,0.91c1.25-0.63,1.65-2.56,1.19-5.8
			c-1-1.17-2.09-0.1-3.28,3.21c0,0-0.23-1.72-0.7-5.17C891.71,399.56,890.53,399.35,887.77,398.9"/>
	</g>
	<g>
		<path class="st1" d="M864.64,440.05c3.43,1.59,5.82,5.19,5.82,9.36c0,5.66-4.39,10.24-9.81,10.24c-4.86,0-8.89-3.69-9.67-8.52
			c1.37,3.33,4.53,5.66,8.22,5.66c4.93,0,8.94-4.18,8.94-9.33C868.13,444.44,866.76,441.76,864.64,440.05 M861.13,435.68
			c7.16,0,12.96,6.06,12.96,13.53c0,7.47-5.8,13.53-12.96,13.53c-7.16,0-12.96-6.06-12.96-13.53
			C848.17,441.74,853.97,435.68,861.13,435.68z"/>
	</g>
	<g>
		<path class="st1" d="M887.91,451.48c-0.68-11.6-6.11-19.85-16.27-24.75c0,0,0.66,1.28,1.98,3.83c0,0-1.08,1.47-3.25,4.42
			c4.59,3.64,6.76,8.24,6.51,13.83c4.65,0.39,6.97,0.58,6.97,0.58c0.64,9.7-3.46,16.83-12.32,21.38
			c-10.09,3.51-17.91,1.57-23.47-5.81c2.63,1.32,3.95,1.98,3.95,1.98c0.93-2.25,1.28-2.67,1.28-2.67
			c-8.18-5.04-11.05-13.67-6.74-25.68c-9.7,12.3-6.57,31.39,9.38,36.8C873.45,481.33,887.58,469.26,887.91,451.48"/>
	</g>
	<g>
		<path class="st1" d="M908.82,436.49c-20.37-8.56-27.49-10.65-21.38-6.27c7.44,6.66,11.15,9.99,11.15,9.99
			c-2.63-0.39-3.95-0.58-3.95-0.58c-0.46,6.74-0.7,10.11-0.7,10.11c0.45,2.43,1.42,2.89,2.9,1.39
			C904.83,441.37,908.82,436.49,908.82,436.49"/>
	</g>
	<g>
		<path class="st1" d="M927.99,452.99c2.83-2.46,4.69-3.32,5.58-2.56c0.37,10.13,0.6,12.74-5.12,16.42
			c-4.47,2.87-14.77,9.7-30.9,20.29c-0.82-2.32-0.16-3.6,2.32-5.58c5.69-4.47,8.33-7.96,7.9-10.46c3.64-3.18,5.46-4.76,5.46-4.76
			C924.21,469.15,929.98,463.61,927.99,452.99"/>
	</g>
	<g>
		<path class="st1" d="M959.89,459.67c2.23,0.94,3.35,5.35,3.37,13.25c0,0-1.24,0.74-8.37,5c-1.5-2.71-2.12-7.48-2.44-12.43
			c-1.02-1.85-4.04-0.69-3.95,1.86c0.67,11.1,1.6,16.37,3.72,22.31c-5.92-5.2-8.27-4.58-12.35-1.51c-4.4,3.31-10.98,8.36-26.46,20.1
			c-2.82,2.61-9.6,5.56-12.67,5.58c0,0-8.87,1.01-33.11,1.98c-1.86,0.54-2.59,1.9-3.84,3.37c-2.57-3.22,5.19-12.46,9.8-12.63
			c8.04-0.31,25.64-1.24,31.91-3.64c0.49-0.37-9.49-1.9-9.01-2.27c35.75-27.38,52.24-39.91,52.24-39.91
			c4.94-2.17,9.16-2.95,12.67-2.32C960.39,459.25,959.89,459.67,959.89,459.67"/>
	</g>
	<g>
		<path class="st1" d="M835.79,525.32c-3.34,2.7-3.92,3.9-1.74,3.6c0,0,28.66-1.24,85.98-3.72c4.22-0.3,8.45-1.84,12.67-4.65
			c0,0,7.71-5.62,23.12-16.85c2.37-2.03,4.46-2.53,6.27-1.51c0,0,1.67,0.85,5,2.56c0,0,0.7-0.93,2.09-2.79
			c0.64-1,2.23-1.23,4.76-0.7c0,0-2.87-1.9-8.6-5.69c-2.22-1.54-4.42-1.39-6.62,0.46c0,0-8.29,6.35-24.87,19.06
			c-3.61,3.16-7.71,5.25-12.32,6.27C921.54,521.37,892.96,522.69,835.79,525.32"/>
	</g>
	<g>
		<path class="st1" d="M858.11,515.8c0.1,2.98-0.19,4.35-2.77,4.53c-5.57,0.4-25.63,1.82-60.15,4.28
			c-7.98,0.56-13.95-0.01-20.85-4.86c0,0-3.41-2.9-10.23-8.71c-2.17-1.85-0.77-7.13,5-4.18c11,5.39,12.41,7.64,24.98,6.86
			c0,0,7.24-0.46,21.73-1.39c0.09,2.16,2.64,6.22,5.11,6.86c-1.16-1.93-2.51-6.35-1.51-7.9c0,0,14.83-1.43,44.5-4.3
			C860.49,510.24,858.82,511.33,858.11,515.8"/>
	</g>
	<g>
		<path class="st1" d="M661.39,371.16c1.67-0.27,7.8-1.02,8.17-0.95c3.08,0.6,19.74,3.93,51.03,10.01c2.56,0.15,3.68,1.7,3.37,4.65
			c0,0-0.43,2.32-1.28,6.97c-0.82,3.34-2.29,5.43-4.42,6.27c0,0-8.13-6.04-24.4-18.13c0,0,7.09,6.82,21.26,20.45
			c0,0-1.32,1.16-3.95,3.49c-1.55,1.32-2.56,2.83-3.02,4.53c0,0-1.59,5.19-4.76,15.57c-1.61,3.71-6.88,4.68-15.8,2.91
			c0,0-12.9-3.18-38.69-9.53c-1.67-0.35-3.19-0.91-4.56-1.68c-1.59-1.39-3.28-3.12-5.43-5.63c-0.57-0.72-1.11-1.07-0.64-2.67
			c0,0,1.29-5.1,3.34-13.39c0.44-1.26,1.35-2.39,2.73-3.37c6.44-4.48,9.67-6.71,9.67-6.71c2.3-1.78,3.62-3.66,3.95-5.64
			c0.5-3.6,0.75-5.4,0.75-5.4C658.86,371.9,659.75,371.32,661.39,371.16 M641.68,388.85c1.73-1.42,6.18-4.7,9.13-7.14
			c2.13-1.76,3.15-2.65,3.37-4.19c0,0,0.43-2.09,1.28-6.27c0.38-2.01,1.5-3.21,3.37-3.6c0,0,2.91-0.58,8.72-1.74
			c17.14,3.87,35.58,7.35,55.31,10.46c16.41,3.39,32.9,16.12,40.79,25.25c-5.56-11.2-17.84-21.41-23.16-24.5l5.85-1.91
			c-4.87-2.83-9.51-5.07-13.94-6.74c-2.5-0.68-3.12-2.23-1.86-4.65c-0.7-1.2-3.64-2.37-8.83-3.49c-2.01-3.41-3.02-5.11-3.02-5.11
			c13.48,1.24,20.22,1.86,20.22,1.86c-1.4,1.49-2.52,3.62-3.37,6.39c3.25-3.57,6-5.16,8.25-4.76c2.46,0.46,5.52,2.28,9.18,5.46
			c11.71,9.22,29.28,10.67,43.69,11.85c3,3.13,6.33,6.57,11.39,10.81c1.98,1.63,0.74,5.93-3.49,5.69
			c-14.07-3.17-16.44-4.54-21.1-5.61c-2.63-0.6-0.16,8.98-0.16,8.98c-5.73-6.62-16.97-19.98-26.96-20.91
			c7.22,5.74,16.01,16.19,23.35,27.89c0.97,2.9-0.26,4.54-3.05,4.97c-19.83,3.07-33.59,3.21-47.73,4.91
			c20.45-3.25,31.61-6.74,31.61-6.74c-2.67-4.91-19.09-19.63-31.49-23.82c-1.78,8.6-2.67,11.39-2.67,11.39
			c-0.92,3.14-2.5,5.54-4.76,7.2c-3.95,3.56-5.93,5.35-5.93,5.35c-1.83,0.97-3.03,2.59-3.6,4.88c-2.63,9.61-3.95,14.41-3.95,14.41
			c-2.99,8.6-13.36,7.61-20.8,6.04c-20.77-4.94-33.51-7.92-38.68-9.15c-4.69-1.11-6.59-2.93-10.18-6.31
			c-3.36-3.95-4.58-3.7-3.21-8.68c2.64-9.63,3.97-14.45,3.97-14.45C639.72,390.91,640.55,389.58,641.68,388.85z"/>
	</g>
	<g>
		<path class="st1" d="M700.14,421.23c-0.23,1.35-2.54-0.52-5.39-2.85c-3.72-3.03-8.2-7.01-8.5-7.26
			c1.63,2.26,10.79,12.54,9.41,13.33c-0.42,0.24-1.06,0.29-1.92,0.15c0,0-6.24-1.51-18.71-4.53c-1.21-0.15-1.17-1.43,0.12-3.83
			c3.54-5.28,4.43-7.64,2.67-7.09c0,0-1.78,1.67-5.35,5c2.14-5.65,3.88-8.75,5.23-9.3c6.3,0.73,10.36,1.35,12.2,1.86
			c-1.47,0.93-2.21,1.39-2.21,1.39c7.9,1.24,11.85,1.86,11.85,1.86c2.09,0.56,3.13,1.33,3.14,2.32
			C701.53,416.88,700.68,419.86,700.14,421.23"/>
	</g>
	<g>
		<path class="st1" d="M710,431.48c0.16-0.3,0.01,0.31,0.14-0.02c1.39-4.65,2.09-6.97,2.09-6.97c1.01-2.29,2.48-2.63,4.42-1.05
			c4.88,6.97,7.32,10.46,7.32,10.46c2.4,3.68,4.22,6.39,4.07,6.51c-0.34,2.23-1.35,3.4-1.62,5.02c-0.27,1.65,1.26,3.85,1.13,4.61
			L710,431.48z M741.95,470.22c-2.03,2.9-10.01,10.92-5.2,13.76c3.47-5.05,6.32-8.48,8.55-10.28c0.34-0.27,6.04,5.41,6.35,5.21
			c0.33-0.21-4.74-6.31-4.44-6.43c1.19-0.8,3.86-2.07,8.02-3.84c0,0,2.48,2.71,7.44,8.13c0,0-2.83,1.59-8.48,4.76
			c-0.81,0.49-1.78,1.27-2.91,2.32c0,0-3.52,4.38-10.57,13.13c0,0-2.75-2.75-8.25-8.25c0,0-17.35-18.59-52.06-55.77
			c8.61,2.3,16.08,3.39,22.43,3.25c1.86-0.12,3.4-0.56,4.61-1.33L741.95,470.22z"/>
	</g>
	<g>
		<path class="st1" d="M765.03,483.38c-1.02,12.15-2.57,18-4.07,15.1c0,0-1.05-1.55-5.46-9.53c-0.44-1.06-1.64-0.95-3.6,0.35
			c0,0,0.97-1.2,2.91-3.6C757.25,484.45,765.2,478.64,765.03,483.38"/>
	</g>
	<g>
		<path class="st1" d="M720.99,372.47c2.28,1.5,1.98-2.62,0.87-4.48c-6.16-10.39-11.29-15.82-15.4-16.27c0,0-9.14-1.01-27.42-3.02
			c-4.51-5.26-10.93-9.93-17.93-10.66c-2.86-0.3-7.74-0.8-14.64-1.51c-3.34-0.34-4.36,0.17-7.79,1.21
			c-3.11,0.95-6.79,2.18-13.66,4.29c-3.35,1.02,1.99,4.71,3.36,5.74c-0.71-1.71-0.67-2.8,0.12-3.25c5.62-1.85,8.89-2.78,11.43-3.54
			c2.87-0.86,3.42-0.93,6.31-0.7c7.18,0.56,11.78,1.33,14.29,1.53c3.79,0.3,7.74,3.62,10.02,6.61c-6.59,1-9.3,2.73-8.37,3.31
			c21.09,2.44,33.11,4.01,39.09,4.7C710.13,357.45,716.13,365.28,720.99,372.47"/>
	</g>
	<g>
		<path class="st1" d="M771.02,453.34c-3.42,1.66-7.72,3.84-9.88,4.76c-5.58,2.38-6.47,0.26-7.44-0.46c0,0-5.52-5.79-13.88-15.22
			c1.17,2.78,4.18,7.51,5.24,10.59c0.51,1.48,0.82,2.74-0.19,2.89c-0.09,0.1-2.65-0.75-7.67-2.56c-2.67-1.32-2.86-1.96-2.61-3.89
			c0,0,0.91-2.54,2.85-9.12c-3.25-4.49-4.88-6.74-4.88-6.74c-0.62-0.64,0.5-2.03,3.37-4.18c2.38-1.67,4.28-1.71,5.69-0.12
			c10.3,13.48,15.45,20.22,15.45,20.22c8.13-7.13,14.52-12.66,14.52-12.66c-4.4,6.54-8.67,11.81-10.67,14.19
			c-1.12,1.34-2.58,3.35,0.68,3.71C763.49,454.94,774.77,449.66,771.02,453.34"/>
	</g>
	<g>
		<path class="st1" d="M831.51,263.74c3.42-15.54,10.16-27.12,13.71-34.51c-2.79,11.51-8.32,23.85-9.39,32.23
			c-0.54,4.3,0.41,6.71,0.32,9.95c-0.56,2.39-2.34,4.06-5.35,7.09c0.59-9.82,0.09-7.35-3.49-16.27
			C830.74,263.63,831.51,263.74,831.51,263.74"/>
	</g>
	<g>
		<path class="st1" d="M901,291.28c0.19,1.24-0.86,3.22,0.35,2.38c1.08-1.45,4.37-3.46,6.97-5.35
			c-9.47-11.23-17.36-25.7-27.31-37.94c-0.5-0.78-1.74-1.09-3.72-0.93c-2.42,2.02-2.96,2.17-1.63,0.46c0,0,0-1.63,0-4.88
			c0,0-3.1-6.43-9.3-19.29c-6.97-0.31-10.46-0.46-10.46-0.46c-1.71,0.98-1.56,2.84,0.46,5.58c3.41,0.16,5.11,0.23,5.11,0.23
			c-1.13,2.13-2.91,3.84-5.35,5.11c3.72,0.31,5.58,0.46,5.58,0.46c7.3,15.11,12.49,23.63,15.57,25.56c2.32-0.62,3.49-0.93,3.49-0.93
			c-1.51,3.52-3.45,6.15-5.81,7.9c4.34,0.46,6.51,0.7,6.51,0.7C892.49,281.37,899,288.5,901,291.28"/>
	</g>
	<g>
		<path class="st1" d="M761.65,218.77c-1.45,18.81-1.44,31.59,0.55,38.11c0,0,1.94,3.02,5.81,9.06c-9.33-4.36-12.08-4.78-8.25-1.28
			c-0.25-0.7,2.11,1.67,7.09,7.09c-2.9,0.38-6.39-1.83-9.06-4.07c-0.97-3.76-4.75-8.53-4.39-11.19
			C754.08,251.55,757.18,238.5,761.65,218.77"/>
	</g>
	<g>
		<path class="st1" d="M756.98,270.76c0.9,5.82,1.5,7,4.66,3.91C762.49,273.84,760.8,272.76,756.98,270.76"/>
	</g>
	<g>
		<path class="st1" d="M1067.27,508.45c-1.72,2.93-3.33,3.09-4.82,0.47c-0.9-0.99-0.77-1.9,0.41-2.73
			C1066.71,505.14,1068.18,505.9,1067.27,508.45"/>
	</g>
	<g>
		<path class="st1" d="M626.43,450.64c11.13,5,14.26,6.81,9.41,5.4c0,0-3.58-1.22-12.26-4.01c-2.35-0.99-1.48-2.69-0.89-3.84
			c1.77-3.45,6.04-12.99,12.8-28.63c1.35,1.36,2.38,2.13,3.08,2.32c-8.52,18.2-12.78,27.31-12.78,27.31
			C625.77,449.87,625.99,450.35,626.43,450.64 M642.81,406.66c1.09,3.93,3.34,6.14,6.74,6.62c4.95-9.52,10.84-17.35,17.66-23.47
			c0,0,7.01-2.71,21.03-8.13c0,0-5.04-1.59-15.11-4.76c0,0-1.12-1.05-3.37-3.14c0,2.32,0,3.49,0,3.49
			c-1.63,1.47-2.44,2.21-2.44,2.21c6.12,1.78,9.18,2.67,9.18,2.67c-1.88,2.6-6.26,3.6-13.13,3.02c-5.24,4.44-9.62,8.31-13.13,11.62
			c0.31,3.8,0.47,5.69,0.47,5.69C647.42,404.02,644.78,405.42,642.81,406.66z"/>
	</g>
	<g>
		<path class="st1" d="M1000.15,369.03c-0.08,16.27,6.01,27.25,18.28,32.93c-10.78-6.72-15.67-19.52-14.66-38.38
			C1001.15,364,999.94,365.82,1000.15,369.03"/>
	</g>
	<g>
		<path class="st1" d="M747.86,421.78c14.91,2.98,25.37,3.57,30.52,4.71c2.56,0.57-1.48,9.81-0.78,8.76c0,0,22.31-25.87,25.1-29.75
			c0,0-16.54,14.03-18.48,14.21C779.1,420.19,766.51,420.68,747.86,421.78"/>
	</g>
	<g>
		<path class="st1" d="M1048.79,331.96c-4.83,0.51-13.92-1.17-17.43-2.57c0,0,5.21,9.09,15.64,27.26c0,0-2.42-9.97-5.76-20.55
			C1040.93,335.1,1046.35,333.08,1048.79,331.96"/>
	</g>
	<g>
		<path class="st1" d="M803.37,271.56c7.12,2.08,14.05,5.51,18,8.46c-4.03-10.55-8.25-16.35-12.68-17.39
			c2.45,5.65,1.01,8.13,1.01,8.13c-5.25-3.45-15.07-12.26-20.16-12.49C796.45,263.08,800.13,266.89,803.37,271.56"/>
	</g>
	<g>
		<path class="st2" d="M477.95,611.83h-99.02v-32.26h99.02V611.83z M1462.54,611.83h-99.02v-32.26h99.02V611.83z"/>
	</g>
</g>
<g>
	<path class="st3" d="M732.59,810.5h33.99c8.44,0,14.57,1.75,18.39,5.26c3.82,3.51,5.73,9.02,5.73,16.53c0,7.39-2,12.8-6.01,16.25
		c-4,3.45-10.32,5.17-18.95,5.17h-10.24v8.94l4.28,9.68h-27.19l2.51-9.68v-42.55L732.59,810.5z M770.86,832.56
		c0-3.35-0.54-5.66-1.63-6.94c-1.09-1.27-3.06-1.91-5.91-1.91h-8.19v17.13h8.01c2.92,0,4.94-0.57,6.05-1.72
		C770.3,837.98,770.86,835.79,770.86,832.56z"/>
	<path class="st3" d="M873.65,872.33h-24.68l-0.28-8.1l-0.47-1.12h-23.47l-0.47,1.12l-0.28,8.1h-20.67l23.09-54.57l-2.98-7.26h24.58
		L873.65,872.33z M843.48,850.54l-6.89-18.16l-6.98,18.16H843.48z"/>
	<path class="st3" d="M931.01,872.33l-0.47-8.19l-7.26-13.32h-6.43v11.83l2.61,9.68h-25.51l2.51-9.68v-42.55l-2.51-9.59h34.83
		c8.32,0,14.42,1.66,18.3,4.98c3.88,3.32,5.82,8.27,5.82,14.85c0,3.91-0.96,7.28-2.89,10.1c-1.92,2.82-4.87,4.92-8.85,6.29
		l16.39,25.61H931.01z M930.92,835.92c1.43-1.06,2.14-2.79,2.14-5.21c0-2.48-0.57-4.28-1.72-5.4c-1.15-1.12-3.09-1.68-5.82-1.68
		h-9.03v13.87h7.91C927.32,837.5,929.49,836.97,930.92,835.92z"/>
	<path class="st3" d="M1015.56,824.84v37.9l4.19,9.59h-28.77l4.19-9.59v-37.9h-9.22l-9.78,2.7l2.61-17.04h53.26l2.51,17.04
		l-9.68-2.7H1015.56z"/>
	<path class="st3" d="M1059.23,871.49l-2.98-19.74l13.04,7.08c2.86,0.68,5.28,1.16,7.26,1.44c1.99,0.28,3.94,0.42,5.87,0.42
		c2.55,0,4.48-0.42,5.82-1.26c1.34-0.84,2-2,2-3.49c0-1.12-0.28-2.03-0.84-2.75c-0.56-0.71-1.63-1.4-3.21-2.05
		c-1.58-0.65-3.93-1.32-7.03-2c-7.82-1.86-13.56-4.38-17.23-7.54c-3.66-3.17-5.49-7.51-5.49-13.04c0-5.96,2.28-10.71,6.84-14.25
		c4.56-3.54,11.34-5.31,20.35-5.31c7.57,0,14.99,0.62,22.25,1.86l2.79,18.9l-12.48-6.24c-3.66-0.87-7.26-1.3-10.8-1.3
		c-2.48,0-4.47,0.39-5.96,1.16c-1.49,0.78-2.24,1.85-2.24,3.21c0,1.55,0.71,2.84,2.14,3.86c1.43,1.02,4.35,2.03,8.75,3.03
		c8.01,1.86,13.83,4.39,17.46,7.59c3.63,3.2,5.45,7.4,5.45,12.62c0,4.04-1.07,7.57-3.21,10.62c-2.14,3.04-5.26,5.4-9.36,7.08
		c-4.1,1.68-9.03,2.51-14.8,2.51c-4.78,0-8.89-0.2-12.34-0.6C1067.84,872.9,1063.82,872.29,1059.23,871.49z"/>
</g>
<g>
	<g>
		<path class="st4" d="M410.35,635.88c-7,43.98-13.85,87.99-20.56,132.02c-3.4,10.58-6.76,21.17-10.09,31.77
			c14.65-2.45,29.32-4.81,44-7.1c5.48-43.9,11.05-87.78,16.71-131.66c0.01-8.35,0.02-16.69,0.03-25.04
			C430.41,635.87,420.38,635.87,410.35,635.88z"/>
		<path class="st4" d="M470.53,635.85c6.66,39.94,13.41,79.86,20.28,119.77c3.32,8.67,6.67,17.32,10.05,25.97
			c-14.7,1.93-29.39,3.95-44.07,6.04c-5.53-42.23-10.99-84.47-16.38-126.72c0.01-8.35,0.02-16.69,0.03-25.04
			C450.47,635.86,460.5,635.86,470.53,635.85z"/>
		<path class="st4" d="M455.16,750.84c-11.23,1.23-22.46,2.5-33.68,3.82c0.01-8.38,0.02-16.76,0.02-25.14
			c11.23-1.04,22.46-2.05,33.69-3.01C455.19,734.61,455.18,742.73,455.16,750.84z"/>
		<g>
			<path class="st5" d="M587.22,636.79c-27.27-0.3-54.55-0.61-81.82-0.95c2.78,9.81,5.56,19.62,8.37,29.42
				c-0.07,29.43-0.14,58.85-0.21,88.28c-2.85,9.72-5.68,19.45-8.49,29.18c27.13-3.5,54.29-6.69,81.49-9.57
				c14.45-1.66,24.73-15.69,24.82-29.7c0.08-26.49,0.16-52.99,0.24-79.48C611.67,650.35,601.54,637.02,587.22,636.79z
				 M573.42,745.92c-7.4,0.64-14.81,1.3-22.21,1.98c0.08-27.64,0.15-55.28,0.23-82.92c7.4-0.18,14.81-0.35,22.21-0.52
				C573.57,691.61,573.49,718.77,573.42,745.92z"/>
		</g>
		<path class="st6" d="M620.42,635.81c10.54,43.25,21.28,86.46,32.23,129.61c18.1-1.48,36.2-2.82,54.32-4.05
			c11.11-41.9,22.39-83.76,33.82-125.58c-18.56,0-37.12,0.01-55.68,0.01c3.33,8.8,6.68,17.6,10.05,26.39
			c-4.98,24.22-9.93,48.44-14.84,72.67c-4.65-24.07-9.27-48.14-13.85-72.22c3.2-8.95,6.41-17.9,9.64-26.84
			C657.54,635.8,638.98,635.81,620.42,635.81z"/>
		<path class="st6" d="M745.84,635.79c2.88,8.55,5.76,17.1,8.66,25.64c-0.06,24.31-0.12,48.63-0.17,72.94
			c-3.51,8.73-7,17.46-10.48,26.2c34.54-1.86,69.08-3.21,103.66-4.05c0.02-13.85,0.03-27.69,0.05-41.54
			c-11.58,5.74-23.13,11.54-34.66,17.4c-6.85,0.18-13.71,0.38-20.56,0.6c0.02-8.8,0.03-17.6,0.05-26.41
			c9.66-0.22,19.33-0.42,28.99-0.6c0.01-7.43,0.02-14.86,0.03-22.28c-9.76,0.12-19.51,0.26-29.27,0.41
			c0.02-8.05,0.03-16.11,0.05-24.16c7.31-0.06,14.63-0.11,21.94-0.16c10.3,5.23,20.61,10.43,30.93,15.62
			c0.02-12.84,0.03-25.68,0.05-38.51c-32.93,0.11-65.85,0.23-98.78,0.36"/>
		<path class="st6" d="M1360.02,635.85c2.94,10.4,5.87,20.81,8.78,31.22c0.05,29.6,0.11,59.2,0.16,88.8
			c-3.42,9.93-6.86,19.86-10.33,29.78c34.48,4.78,68.87,10.07,103.19,15.86c0-18.99,0-37.99,0-56.98
			c-11.43,6.23-22.92,12.32-34.49,18.29c-6.82-0.86-13.65-1.71-20.48-2.53c-0.01-11.27-0.03-22.53-0.04-33.8
			c9.64,0.85,19.28,1.73,28.91,2.63c-0.01-9.87-0.01-19.73-0.02-29.6c-9.74-0.62-19.47-1.23-29.21-1.81
			c-0.01-10.31-0.02-20.61-0.04-30.92c7.31,0.22,14.61,0.45,21.92,0.68c10.4,7.42,20.7,14.95,30.91,22.61c0-17.56,0-35.11,0-52.67
			c-32.92,0.07-65.85,0.14-98.77,0.2"/>
		<path class="st6" d="M854.11,635.78c3.45,8.29,6.92,16.57,10.38,24.85c-0.02,23.29-0.04,46.58-0.06,69.87
			c-3.49,8.63-6.97,17.25-10.45,25.88c14.93-0.29,29.86-0.5,44.8-0.62c0.01-22.75,0.02-45.5,0.02-68.25
			c13.05,22.74,26.11,45.47,39.14,68.22c15.22,0.1,30.43,0.29,45.65,0.57c-3.38-8.34-6.77-16.68-10.16-25.02
			c-0.02-24.01-0.04-48.02-0.06-72.04c3.37-7.82,6.74-15.64,10.1-23.46c-14.44,0-28.87,0-43.31,0c0.01,22.93,0.01,45.86,0.02,68.79
			c-13.31-22.93-26.65-45.85-39.96-68.79C884.86,635.77,869.48,635.77,854.11,635.78z"/>
		<path class="st6" d="M987.69,635.78c0.02,15.03,0.03,30.06,0.05,45.09c9.48-6.76,18.95-13.52,28.39-20.32
			c5.63,0.03,8.44,0.05,14.07,0.09c0.04,23.65,0.08,47.29,0.12,70.94c-3.26,8.55-6.54,17.1-9.82,25.65
			c19.26,0.63,38.5,1.4,57.74,2.32c-3.3-9.3-6.6-18.6-9.92-27.9c-0.05-23.38-0.1-46.75-0.15-70.13c6.08,0.06,9.11,0.09,15.19,0.16
			c9.15,6.58,18.27,13.2,27.34,19.89c-0.04-15.26-0.08-30.52-0.12-45.78C1069.62,635.78,1028.65,635.78,987.69,635.78z"/>
		<path class="st6" d="M1164.01,635.8c-16.31,0-32.62-0.01-48.93-0.01c3.51,8.7,7,17.4,10.48,26.1c0.07,25.67,0.14,51.33,0.21,77
			c-0.38,12.49,10.5,23.9,22.73,24.88c8.59,0.61,17.17,1.26,25.75,1.94c-0.03-9.14-0.05-18.27-0.08-27.41
			c-4.16-0.26-6.25-0.39-10.41-0.64C1163.84,703.7,1163.93,669.75,1164.01,635.8z"/>
		<path class="st6" d="M1183.7,635.8c16.31,0,32.62,0.01,48.93,0.01c-3.42,9.23-6.86,18.46-10.32,27.68
			c0.08,27.22,0.17,54.44,0.25,81.66c0.09,11.93-9.62,24.43-22.57,22.7c-8.58-0.75-17.16-1.46-25.75-2.14
			c-0.03-9.14-0.05-18.27-0.08-27.41c4.16,0.26,6.25,0.39,10.41,0.66C1184.28,704.57,1183.99,670.19,1183.7,635.8z"/>
		<g>
			<path class="st5" d="M1346.88,755.28c-0.02-7.3-0.03-14.6-0.05-21.9c0.35-10.75-6.6-21.8-16.97-24.96
				c-1.03-0.25-1.54-0.38-2.56-0.63l0,0c11.64,0.1,20-11.1,19.43-22.31c-0.02-8.69-0.04-17.38-0.06-26.06
				c0-11.37-7.43-23.02-19.55-23.58c-29.68-0.01-59.37-0.02-89.05-0.03c2.86,8.97,5.69,17.94,8.52,26.92
				c0.08,26.78,0.16,53.56,0.24,80.34c-3.27,9.41-6.55,18.82-9.85,28.22c16.32,1.64,32.62,3.37,48.91,5.21
				c-0.05-19.07-0.11-38.14-0.16-57.22c7.5,0.51,14.99,1.03,22.49,1.57c0.04,14.87,0.08,29.73,0.12,44.6
				c0.09,6.98,4.55,13.91,11.74,15.14c11.83,1.48,23.66,3.02,35.47,4.64C1352.67,775.24,1349.78,765.26,1346.88,755.28z
				 M1308.52,693.49c-7.37-0.36-14.74-0.71-22.11-1.05c-0.03-9.25-0.05-18.51-0.08-27.76c7.37,0.17,14.75,0.35,22.12,0.54
				C1308.47,674.63,1308.5,684.06,1308.52,693.49z"/>
		</g>
	</g>
</g>
</svg>
