<svg version="1.1" id="Layer_1" xmlns="http://www.w3.org/2000/svg" xmlns:xlink="http://www.w3.org/1999/xlink" x="0px" y="0px"
	 viewBox="0 0 1920 1080" style="enable-background:new 0 0 1920 1080;" xml:space="preserve">
<style type="text/css">
	.st0{stroke:#000000;stroke-miterlimit:10;}
	.st1{fill:#1D1D1B;}
	.st2{stroke:#1D1D1B;stroke-miterlimit:10;}
	.st3{fill:#1D1D1B;stroke:#1D1D1B;stroke-miterlimit:10;}
</style>
<g>
	<path class="st0" d="M771.37,556.49h33.99c8.44,0,14.57,1.75,18.39,5.26c3.82,3.51,5.73,9.02,5.73,16.53c0,7.39-2,12.8-6.01,16.25
		c-4,3.45-10.32,5.17-18.95,5.17h-10.24v8.94l4.28,9.68h-27.19l2.51-9.68v-42.55L771.37,556.49z M809.64,578.56
		c0-3.35-0.54-5.66-1.63-6.94c-1.09-1.27-3.06-1.91-5.91-1.91h-8.19v17.13h8.01c2.92,0,4.94-0.57,6.05-1.72
		C809.08,583.97,809.64,581.78,809.64,578.56z"/>
	<path class="st0" d="M912.43,618.32h-24.68l-0.28-8.1l-0.47-1.12h-23.47l-0.47,1.12l-0.28,8.1h-20.67l23.09-54.57l-2.98-7.26h24.58
		L912.43,618.32z M882.27,596.53l-6.89-18.16l-6.98,18.16H882.27z"/>
	<path class="st0" d="M969.79,618.32l-0.47-8.19l-7.26-13.32h-6.43v11.83l2.61,9.68h-25.51l2.51-9.68v-42.55l-2.51-9.59h34.83
		c8.32,0,14.42,1.66,18.3,4.98c3.88,3.32,5.82,8.27,5.82,14.85c0,3.91-0.96,7.28-2.89,10.1s-4.87,4.92-8.85,6.29l16.39,25.61H969.79
		z M969.7,581.91c1.43-1.06,2.14-2.79,2.14-5.21c0-2.48-0.57-4.28-1.72-5.4c-1.15-1.12-3.09-1.68-5.82-1.68h-9.03v13.87h7.91
		C966.1,583.49,968.27,582.96,969.7,581.91z"/>
	<path class="st0" d="M1054.34,570.83v37.9l4.19,9.59h-28.77l4.19-9.59v-37.9h-9.22l-9.78,2.7l2.61-17.04h53.26l2.51,17.04
		l-9.68-2.7H1054.34z"/>
	<path class="st0" d="M1098.01,617.48l-2.98-19.74l13.04,7.08c2.86,0.68,5.28,1.16,7.26,1.44c1.99,0.28,3.94,0.42,5.87,0.42
		c2.55,0,4.48-0.42,5.82-1.26c1.34-0.84,2-2,2-3.49c0-1.12-0.28-2.03-0.84-2.75s-1.63-1.4-3.21-2.05c-1.58-0.65-3.93-1.32-7.03-2
		c-7.82-1.86-13.56-4.38-17.23-7.54c-3.66-3.17-5.49-7.51-5.49-13.04c0-5.96,2.28-10.71,6.84-14.25c4.56-3.54,11.34-5.31,20.35-5.31
		c7.57,0,14.99,0.62,22.25,1.86l2.79,18.9l-12.48-6.24c-3.66-0.87-7.26-1.3-10.8-1.3c-2.48,0-4.47,0.39-5.96,1.16
		c-1.49,0.78-2.24,1.85-2.24,3.21c0,1.55,0.71,2.84,2.14,3.86c1.43,1.02,4.35,2.03,8.75,3.03c8.01,1.86,13.83,4.39,17.46,7.59
		c3.63,3.2,5.45,7.4,5.45,12.62c0,4.04-1.07,7.57-3.21,10.62c-2.14,3.04-5.26,5.4-9.36,7.08c-4.1,1.68-9.03,2.51-14.8,2.51
		c-4.78,0-8.89-0.2-12.34-0.6C1106.62,618.89,1102.6,618.29,1098.01,617.48z"/>
</g>
<g>
	<g>
		<path class="st1" d="M449.13,420.87c-7,43.98-13.85,87.99-20.56,132.02c-3.4,10.58-6.76,21.17-10.09,31.77
			c14.65-2.45,29.32-4.81,44-7.1c5.48-43.9,11.05-87.78,16.71-131.66c0.01-8.35,0.02-16.69,0.03-25.04
			C469.19,420.86,459.16,420.86,449.13,420.87z"/>
		<path class="st1" d="M509.31,420.85c6.66,39.94,13.41,79.86,20.28,119.77c3.32,8.67,6.67,17.32,10.05,25.97
			c-14.7,1.93-29.39,3.95-44.07,6.04c-5.53-42.23-10.99-84.47-16.38-126.72c0.01-8.35,0.02-16.69,0.03-25.04
			C489.25,420.85,499.28,420.85,509.31,420.85z"/>
		<path class="st1" d="M493.95,535.83c-11.23,1.23-22.46,2.5-33.68,3.82c0.01-8.38,0.02-16.76,0.02-25.14
			c11.23-1.04,22.46-2.05,33.69-3.01C493.97,519.6,493.96,527.72,493.95,535.83z"/>
		<g>
			<path class="st2" d="M626,421.78c-27.27-0.3-54.55-0.61-81.82-0.95c2.78,9.81,5.56,19.62,8.37,29.42
				c-0.07,29.43-0.14,58.85-0.21,88.28c-2.85,9.72-5.68,19.45-8.49,29.18c27.13-3.5,54.29-6.69,81.49-9.57
				c14.45-1.66,24.73-15.69,24.82-29.7c0.08-26.49,0.16-52.99,0.24-79.48C650.45,435.35,640.32,422.01,626,421.78z M612.2,530.91
				c-7.4,0.64-14.81,1.3-22.21,1.98c0.08-27.64,0.15-55.28,0.23-82.92c7.4-0.18,14.81-0.35,22.21-0.52
				C612.35,476.61,612.28,503.76,612.2,530.91z"/>
		</g>
		<path class="st3" d="M659.2,420.8c10.54,43.25,21.28,86.46,32.23,129.61c18.1-1.48,36.2-2.82,54.32-4.05
			c11.11-41.9,22.39-83.76,33.82-125.58c-18.56,0-37.12,0.01-55.68,0.01c3.33,8.8,6.68,17.6,10.05,26.39
			c-4.98,24.22-9.93,48.44-14.84,72.67c-4.65-24.07-9.27-48.14-13.85-72.22c3.2-8.95,6.41-17.9,9.64-26.84
			C696.32,420.79,677.76,420.8,659.2,420.8z"/>
		<path class="st3" d="M784.62,420.78c2.88,8.55,5.76,17.1,8.66,25.64c-0.06,24.31-0.12,48.63-0.17,72.94
			c-3.51,8.73-7,17.46-10.48,26.2c34.54-1.86,69.08-3.21,103.66-4.05c0.02-13.85,0.03-27.69,0.05-41.54
			c-11.58,5.74-23.13,11.54-34.66,17.4c-6.85,0.18-13.71,0.38-20.56,0.6c0.02-8.8,0.03-17.6,0.05-26.41
			c9.66-0.22,19.33-0.42,28.99-0.6c0.01-7.43,0.02-14.86,0.03-22.28c-9.76,0.12-19.51,0.26-29.27,0.41
			c0.02-8.05,0.03-16.11,0.05-24.16c7.31-0.06,14.63-0.11,21.94-0.16c10.3,5.23,20.61,10.43,30.93,15.62
			c0.02-12.84,0.03-25.68,0.05-38.51c-32.93,0.11-65.85,0.23-98.78,0.36"/>
		<path class="st3" d="M1398.8,420.84c2.94,10.4,5.87,20.81,8.78,31.22c0.05,29.6,0.11,59.2,0.16,88.8
			c-3.42,9.93-6.86,19.86-10.33,29.78c34.48,4.78,68.87,10.07,103.19,15.86c0-18.99,0-37.99,0-56.98
			c-11.43,6.23-22.92,12.32-34.49,18.29c-6.82-0.86-13.65-1.71-20.48-2.53c-0.01-11.27-0.03-22.53-0.04-33.8
			c9.64,0.85,19.28,1.73,28.91,2.63c-0.01-9.87-0.01-19.73-0.02-29.6c-9.74-0.62-19.47-1.23-29.21-1.81
			c-0.01-10.31-0.02-20.61-0.04-30.92c7.31,0.22,14.61,0.45,21.92,0.68c10.4,7.42,20.7,14.95,30.91,22.61c0-17.56,0-35.11,0-52.67
			c-32.92,0.07-65.85,0.14-98.77,0.2"/>
		<path class="st3" d="M892.89,420.77c3.45,8.29,6.92,16.57,10.38,24.85c-0.02,23.29-0.04,46.58-0.06,69.87
			c-3.49,8.63-6.97,17.25-10.45,25.88c14.93-0.29,29.86-0.5,44.8-0.62c0.01-22.75,0.02-45.5,0.02-68.25
			c13.05,22.74,26.11,45.47,39.14,68.22c15.22,0.1,30.43,0.29,45.65,0.57c-3.38-8.34-6.77-16.68-10.16-25.02
			c-0.02-24.01-0.04-48.02-0.06-72.04c3.37-7.82,6.74-15.64,10.1-23.46c-14.44,0-28.87,0-43.31,0c0.01,22.93,0.01,45.86,0.02,68.79
			c-13.31-22.93-26.65-45.85-39.96-68.79C923.64,420.77,908.26,420.77,892.89,420.77z"/>
		<path class="st3" d="M1026.47,420.77c0.02,15.03,0.03,30.06,0.05,45.09c9.48-6.76,18.94-13.52,28.39-20.32
			c5.63,0.03,8.44,0.05,14.07,0.09c0.04,23.65,0.08,47.29,0.12,70.94c-3.26,8.55-6.54,17.1-9.82,25.65
			c19.26,0.63,38.5,1.4,57.74,2.32c-3.3-9.3-6.6-18.6-9.92-27.9c-0.05-23.38-0.1-46.75-0.15-70.13c6.08,0.06,9.11,0.09,15.19,0.16
			c9.15,6.58,18.27,13.2,27.34,19.89c-0.04-15.26-0.08-30.52-0.12-45.78C1108.4,420.77,1067.44,420.77,1026.47,420.77z"/>
		<path class="st3" d="M1202.8,420.79c-16.31,0-32.62-0.01-48.93-0.01c3.51,8.7,7,17.4,10.48,26.1c0.07,25.67,0.14,51.33,0.21,77
			c-0.38,12.49,10.5,23.9,22.73,24.88c8.59,0.61,17.17,1.26,25.75,1.94c-0.03-9.14-0.05-18.27-0.08-27.41
			c-4.16-0.26-6.25-0.39-10.41-0.64C1202.62,488.69,1202.71,454.74,1202.8,420.79z"/>
		<path class="st3" d="M1222.48,420.79c16.31,0,32.62,0.01,48.93,0.01c-3.42,9.23-6.86,18.46-10.32,27.68
			c0.08,27.22,0.17,54.44,0.25,81.66c0.09,11.94-9.62,24.43-22.57,22.7c-8.58-0.75-17.16-1.46-25.75-2.14
			c-0.03-9.14-0.05-18.27-0.08-27.41c4.16,0.26,6.25,0.39,10.41,0.66C1223.06,489.56,1222.77,455.18,1222.48,420.79z"/>
		<g>
			<path class="st2" d="M1385.66,540.28c-0.02-7.3-0.03-14.6-0.05-21.9c0.35-10.75-6.6-21.8-16.97-24.96
				c-1.03-0.25-1.54-0.38-2.56-0.63l0,0c11.64,0.1,20-11.1,19.43-22.31c-0.02-8.69-0.04-17.38-0.06-26.06
				c0-11.37-7.43-23.02-19.55-23.58c-29.68-0.01-59.37-0.02-89.05-0.03c2.86,8.97,5.69,17.94,8.52,26.92
				c0.08,26.78,0.16,53.56,0.24,80.34c-3.27,9.41-6.55,18.82-9.85,28.22c16.32,1.64,32.62,3.37,48.91,5.21
				c-0.05-19.07-0.11-38.14-0.16-57.22c7.5,0.51,14.99,1.03,22.49,1.57c0.04,14.86,0.08,29.73,0.12,44.6
				c0.09,6.98,4.55,13.91,11.74,15.14c11.83,1.48,23.66,3.02,35.47,4.64C1391.45,560.23,1388.56,550.25,1385.66,540.28z
				 M1347.3,478.48c-7.37-0.36-14.74-0.71-22.11-1.05c-0.03-9.25-0.05-18.51-0.08-27.76c7.37,0.17,14.75,0.35,22.12,0.54
				C1347.25,459.62,1347.28,469.05,1347.3,478.48z"/>
		</g>
	</g>
</g>
</svg>
