<?xml version="1.0" encoding="utf-8"?>
<!-- Generator: Adobe Illustrator 28.0.0, SVG Export Plug-In . SVG Version: 6.00 Build 0)  -->
<svg version="1.0" id="Layer_1" xmlns="http://www.w3.org/2000/svg" xmlns:xlink="http://www.w3.org/1999/xlink" x="0px" y="0px"
	 viewBox="0 0 1320.98 200.12" style="enable-background:new 0 0 1320.98 200.12;" xml:space="preserve">
<style type="text/css">
	.st0{stroke:#000000;stroke-miterlimit:10;}
	.st1{fill:#1D1D1B;}
	.st2{stroke:#1D1D1B;stroke-miterlimit:10;}
	.st3{fill:#1D1D1B;stroke:#1D1D1B;stroke-miterlimit:10;}
	.st4{fill:#EF8018;}
	.st5{fill-rule:evenodd;clip-rule:evenodd;fill:#FFFFFF;}
	.st6{fill-rule:evenodd;clip-rule:evenodd;}
	.st7{fill:#FFFFFF;}
</style>
<g>
	<path class="st0" d="M591.25,136.22h33.99c8.44,0,14.57,1.75,18.39,5.26s5.73,9.02,5.73,16.53c0,7.39-2,12.8-6.01,16.25
		c-4,3.45-10.32,5.17-18.95,5.17h-10.24v8.94l4.28,9.68h-27.19l2.51-9.68v-42.55L591.25,136.22z M629.52,158.29
		c0-3.35-0.54-5.66-1.63-6.94c-1.09-1.27-3.06-1.91-5.91-1.91h-8.19v17.13h8.01c2.92,0,4.94-0.57,6.05-1.72
		C628.96,163.7,629.52,161.51,629.52,158.29z"/>
	<path class="st0" d="M732.31,198.05h-24.68l-0.28-8.1l-0.47-1.12h-23.47l-0.47,1.12l-0.28,8.1h-20.67l23.09-54.57l-2.98-7.26h24.58
		L732.31,198.05z M702.15,176.26l-6.89-18.16l-6.98,18.16H702.15z"/>
	<path class="st0" d="M789.67,198.05l-0.47-8.19l-7.26-13.32h-6.43v11.83l2.61,9.68h-25.51l2.51-9.68v-42.55l-2.51-9.59h34.83
		c8.32,0,14.42,1.66,18.3,4.98s5.82,8.27,5.82,14.85c0,3.91-0.96,7.28-2.89,10.1s-4.87,4.92-8.85,6.29l16.39,25.61L789.67,198.05
		L789.67,198.05z M789.58,161.64c1.43-1.06,2.14-2.79,2.14-5.21c0-2.48-0.57-4.28-1.72-5.4c-1.15-1.12-3.09-1.68-5.82-1.68h-9.03
		v13.87h7.91C785.98,163.22,788.15,162.69,789.58,161.64z"/>
	<path class="st0" d="M874.22,150.56v37.9l4.19,9.59h-28.77l4.19-9.59v-37.9h-9.22l-9.78,2.7l2.61-17.04h53.26l2.51,17.04l-9.68-2.7
		H874.22z"/>
	<path class="st0" d="M917.89,197.21l-2.98-19.74l13.04,7.08c2.86,0.68,5.28,1.16,7.26,1.44c1.99,0.28,3.94,0.42,5.87,0.42
		c2.55,0,4.48-0.42,5.82-1.26s2-2,2-3.49c0-1.12-0.28-2.03-0.84-2.75s-1.63-1.4-3.21-2.05c-1.58-0.65-3.93-1.32-7.03-2
		c-7.82-1.86-13.56-4.38-17.23-7.54c-3.66-3.17-5.49-7.51-5.49-13.04c0-5.96,2.28-10.71,6.84-14.25c4.56-3.54,11.34-5.31,20.35-5.31
		c7.57,0,14.99,0.62,22.25,1.86l2.79,18.9l-12.48-6.24c-3.66-0.87-7.26-1.3-10.8-1.3c-2.48,0-4.47,0.39-5.96,1.16
		c-1.49,0.78-2.24,1.85-2.24,3.21c0,1.55,0.71,2.84,2.14,3.86c1.43,1.02,4.35,2.03,8.75,3.03c8.01,1.86,13.83,4.39,17.46,7.59
		s5.45,7.4,5.45,12.62c0,4.04-1.07,7.57-3.21,10.62c-2.14,3.04-5.26,5.4-9.36,7.08s-9.03,2.51-14.8,2.51c-4.78,0-8.89-0.2-12.34-0.6
		C926.5,198.62,922.48,198.02,917.89,197.21z"/>
</g>
<g>
	<g>
		<path class="st1" d="M269.01,0.6c-7,43.98-13.85,87.99-20.56,132.02c-3.4,10.58-6.76,21.17-10.09,31.77
			c14.65-2.45,29.32-4.81,44-7.1c5.48-43.9,11.05-87.78,16.71-131.66c0.01-8.35,0.02-16.69,0.03-25.04
			C289.07,0.59,279.04,0.59,269.01,0.6z"/>
		<path class="st1" d="M329.19,0.58c6.66,39.94,13.41,79.86,20.28,119.77c3.32,8.67,6.67,17.32,10.05,25.97
			c-14.7,1.93-29.39,3.95-44.07,6.04c-5.53-42.23-10.99-84.47-16.38-126.72c0.01-8.35,0.02-16.69,0.03-25.04
			C309.13,0.58,319.16,0.58,329.19,0.58z"/>
		<path class="st1" d="M313.83,115.56c-11.23,1.23-22.46,2.5-33.68,3.82c0.01-8.38,0.02-16.76,0.02-25.14
			c11.23-1.04,22.46-2.05,33.69-3.01C313.85,99.33,313.84,107.45,313.83,115.56z"/>
		<g>
			<path class="st2" d="M445.88,1.51c-27.27-0.3-54.55-0.61-81.82-0.95c2.78,9.81,5.56,19.62,8.37,29.42
				c-0.07,29.43-0.14,58.85-0.21,88.28c-2.85,9.72-5.68,19.45-8.49,29.18c27.13-3.5,54.29-6.69,81.49-9.57
				c14.45-1.66,24.73-15.69,24.82-29.7c0.08-26.49,0.16-52.99,0.24-79.48C470.33,15.08,460.2,1.74,445.88,1.51z M432.08,110.64
				c-7.4,0.64-14.81,1.3-22.21,1.98c0.08-27.64,0.15-55.28,0.23-82.92c7.4-0.18,14.81-0.35,22.21-0.52
				C432.23,56.34,432.16,83.49,432.08,110.64z"/>
		</g>
		<path class="st3" d="M479.08,0.53c10.54,43.25,21.28,86.46,32.23,129.61c18.1-1.48,36.2-2.82,54.32-4.05
			c11.11-41.9,22.39-83.76,33.82-125.58c-18.56,0-37.12,0.01-55.68,0.01c3.33,8.8,6.68,17.6,10.05,26.39
			c-4.98,24.22-9.93,48.44-14.84,72.67c-4.65-24.07-9.27-48.14-13.85-72.22c3.2-8.95,6.41-17.9,9.64-26.84
			C516.2,0.52,497.64,0.53,479.08,0.53z"/>
		<path class="st3" d="M604.5,0.51c2.88,8.55,5.76,17.1,8.66,25.64c-0.06,24.31-0.12,48.63-0.17,72.94
			c-3.51,8.73-7,17.46-10.48,26.2c34.54-1.86,69.08-3.21,103.66-4.05c0.02-13.85,0.03-27.69,0.05-41.54
			c-11.58,5.74-23.13,11.54-34.66,17.4c-6.85,0.18-13.71,0.38-20.56,0.6c0.02-8.8,0.03-17.6,0.05-26.41
			c9.66-0.22,19.33-0.42,28.99-0.6c0.01-7.43,0.02-14.86,0.03-22.28c-9.76,0.12-19.51,0.26-29.27,0.41
			c0.02-8.05,0.03-16.11,0.05-24.16c7.31-0.06,14.63-0.11,21.94-0.16c10.3,5.23,20.61,10.43,30.93,15.62
			c0.02-12.84,0.03-25.68,0.05-38.51c-32.93,0.11-65.85,0.23-98.78,0.36"/>
		<path class="st3" d="M1218.68,0.57c2.94,10.4,5.87,20.81,8.78,31.22c0.05,29.6,0.11,59.2,0.16,88.8
			c-3.42,9.93-6.86,19.86-10.33,29.78c34.48,4.78,68.87,10.07,103.19,15.86c0-18.99,0-37.99,0-56.98
			c-11.43,6.23-22.92,12.32-34.49,18.29c-6.82-0.86-13.65-1.71-20.48-2.53c-0.01-11.27-0.03-22.53-0.04-33.8
			c9.64,0.85,19.28,1.73,28.91,2.63c-0.01-9.87-0.01-19.73-0.02-29.6c-9.74-0.62-19.47-1.23-29.21-1.81
			c-0.01-10.31-0.02-20.61-0.04-30.92c7.31,0.22,14.61,0.45,21.92,0.68c10.4,7.42,20.7,14.95,30.91,22.61c0-17.56,0-35.11,0-52.67
			c-32.92,0.07-65.85,0.14-98.77,0.2"/>
		<path class="st3" d="M712.77,0.5c3.45,8.29,6.92,16.57,10.38,24.85c-0.02,23.29-0.04,46.58-0.06,69.87
			c-3.49,8.63-6.97,17.25-10.45,25.88c14.93-0.29,29.86-0.5,44.8-0.62c0.01-22.75,0.02-45.5,0.02-68.25
			c13.05,22.74,26.11,45.47,39.14,68.22c15.22,0.1,30.43,0.29,45.65,0.57c-3.38-8.34-6.77-16.68-10.16-25.02
			c-0.02-24.01-0.04-48.02-0.06-72.04c3.37-7.82,6.74-15.64,10.1-23.46c-14.44,0-28.87,0-43.31,0c0.01,22.93,0.01,45.86,0.02,68.79
			c-13.31-22.93-26.65-45.85-39.96-68.79C743.52,0.5,728.14,0.5,712.77,0.5z"/>
		<path class="st3" d="M846.35,0.5c0.02,15.03,0.03,30.06,0.05,45.09c9.48-6.76,18.94-13.52,28.39-20.32
			c5.63,0.03,8.44,0.05,14.07,0.09c0.04,23.65,0.08,47.29,0.12,70.94c-3.26,8.55-6.54,17.1-9.82,25.65
			c19.26,0.63,38.5,1.4,57.74,2.32c-3.3-9.3-6.6-18.6-9.92-27.9c-0.05-23.38-0.1-46.75-0.15-70.13c6.08,0.06,9.11,0.09,15.19,0.16
			c9.15,6.58,18.27,13.2,27.34,19.89c-0.04-15.26-0.08-30.52-0.12-45.78C928.28,0.5,887.32,0.5,846.35,0.5z"/>
		<path class="st3" d="M1022.68,0.52c-16.31,0-32.62-0.01-48.93-0.01c3.51,8.7,7,17.4,10.48,26.1c0.07,25.67,0.14,51.33,0.21,77
			c-0.38,12.49,10.5,23.9,22.73,24.88c8.59,0.61,17.17,1.26,25.75,1.94c-0.03-9.14-0.05-18.27-0.08-27.41
			c-4.16-0.26-6.25-0.39-10.41-0.64C1022.5,68.42,1022.59,34.47,1022.68,0.52z"/>
		<path class="st3" d="M1042.36,0.52c16.31,0,32.62,0.01,48.93,0.01c-3.42,9.23-6.86,18.46-10.32,27.68
			c0.08,27.22,0.17,54.44,0.25,81.66c0.09,11.94-9.62,24.43-22.57,22.7c-8.58-0.75-17.16-1.46-25.75-2.14
			c-0.03-9.14-0.05-18.27-0.08-27.41c4.16,0.26,6.25,0.39,10.41,0.66C1042.94,69.29,1042.65,34.91,1042.36,0.52z"/>
		<g>
			<path class="st2" d="M1205.54,120.01c-0.02-7.3-0.03-14.6-0.05-21.9c0.35-10.75-6.6-21.8-16.97-24.96
				c-1.03-0.25-1.54-0.38-2.56-0.63l0,0c11.64,0.1,20-11.1,19.43-22.31c-0.02-8.69-0.04-17.38-0.06-26.06
				c0-11.37-7.43-23.02-19.55-23.58c-29.68-0.01-59.37-0.02-89.05-0.03c2.86,8.97,5.69,17.94,8.52,26.92
				c0.08,26.78,0.16,53.56,0.24,80.34c-3.27,9.41-6.55,18.82-9.85,28.22c16.32,1.64,32.62,3.37,48.91,5.21
				c-0.05-19.07-0.11-38.14-0.16-57.22c7.5,0.51,14.99,1.03,22.49,1.57c0.04,14.86,0.08,29.73,0.12,44.6
				c0.09,6.98,4.55,13.91,11.74,15.14c11.83,1.48,23.66,3.02,35.47,4.64C1211.33,139.96,1208.44,129.98,1205.54,120.01z
				 M1167.18,58.21c-7.37-0.36-14.74-0.71-22.11-1.05c-0.03-9.25-0.05-18.51-0.08-27.76c7.37,0.17,14.75,0.35,22.12,0.54
				C1167.13,39.35,1167.16,48.78,1167.18,58.21z"/>
		</g>
	</g>
</g>
<g>
	<g>
		<path d="M102.71,57.17c-2.26,1.16-3.6,1.73-3.6,1.73c-0.85,0.43-2.09-0.34-3.22-1.27c-0.79-0.61-2-1.74-2.12-1.53
			c-0.89,0.28-1.97,0.81-3.2,1.51c-0.13-0.68-0.05-1.31,0.21-1.89c1.02-1.07,1.53-1.61,1.53-1.61c0-2.09-0.06-2.82-0.06-2.82
			c-0.05-0.83-0.25-1.44,1.25-0.23L102.71,57.17z"/>
	</g>
	<g>
		<path d="M112.12,53.49c0.41-0.23,0.5-0.08,0.49,0.23C112.45,53.64,112.28,53.56,112.12,53.49"/>
	</g>
	<g>
		<path class="st4" d="M25.08,60.38l-2.3-24.59c0,0,36.16-9.78,80-21.82v-0.02l0.04,0.01l0.04-0.01v0.02
			c43.84,12.04,80,21.82,80,21.82l-2.61,27.91l-10.44-7.02c-0.49-0.17-1.39-0.13-2.72,0.1c-1.05,0.3-2.01,0.14-2.87-0.47
			c-6.06-5.57-9.09-8.36-9.09-8.36c-0.13-0.39-1.94,0.31-5.43,2.09c-1.16,0.64-2.05,0.69-2.66,0.16
			c-7.11-4.39-10.66-6.58-10.66-6.58c-0.75-0.4-1.46-0.35-2.14,0.16c-10.1,6.46-15.15,9.68-15.15,9.68
			c-0.74,0.31-1.33,0.34-1.78,0.09c-2.59-2.36-3.71-2.68-4.67-2.12c-2.69,1.75-5.15,3.18-7.2,4.31c-1.31-0.59-6.51-3.01-13.17-7.32
			c-0.95-0.55-2.08-0.24-4.67,2.12c-0.45,0.25-1.05,0.22-1.78-0.09c0,0-5.05-3.23-15.15-9.68c-0.68-0.5-1.39-0.56-2.14-0.16
			c0,0-3.55,2.19-10.66,6.58c-0.61,0.54-1.5,0.48-2.66-0.16c-3.49-1.78-5.31-2.48-5.43-2.09c0,0-3.03,2.79-9.09,8.36
			c-0.87,0.61-1.83,0.77-2.87,0.47c-1.33-0.24-2.23-0.27-2.72-0.1L25.08,60.38z"/>
	</g>
	<g>
		<path d="M30.05,113.53l-4.74-50.56c0.2-0.05,0.37-0.08,0.5-0.11c3.51-1.98,5.26-2.97,5.26-2.97c0.74-0.37,1.05-0.09,0.93,0.85
			c-2.34,7.84-3.19,11.75-2.54,11.71c6.67-8.82,10.01-13.23,10.01-13.23c0.51-1.1,1.76-1.35,3.73-0.76
			c2.78,0.99,5.24,1.93,5.35,1.27c0.14-0.97,0.68-4.68,0.88-7.12c0.26-3.25,0.35-5.17,2.46-4.24c3.17,1.39,9.35,6.65,12.18,8.48
			c0.9,0.43,1.33,0.23,1.29-0.61c-0.93-2.23-1.4-3.35-1.4-3.35c-0.52,0.01,0.13-0.71,1.95-2.16c0.54-0.26,0.69-0.72,0.47-1.36
			c-0.74-1.22-1.1-1.82-1.1-1.82c-0.6-0.76,3.57-5.27,3.94-4.88c1.9,1.83,8.12,7.37,18.67,16.6c-5.15,3.33-11.65,8.24-16.45,10.51
			c-0.9,2.02-1.3,3.12-1.19,3.31c3.2-1.75,13.34-9.33,19.14-12.5l0.96,0.84c2.21,1.99,2.56,1.39,1.04-1.82
			c0.42-0.17,0.8-0.3,1.11-0.37c0.57-0.12,0.2,5.25,0.16,5.79c-0.22,1.68,1.99,0.21,5.77-2.38l6.25-4.15l1.71,1.14
			c3.78,2.58,5.98,4.05,5.77,2.38c-0.05-0.54-0.41-5.91,0.16-5.79c0.06,0.01,0.13,0.03,0.2,0.05c0,0.26,0,0.55,0,0.87
			c0,0,0.51,0.54,1.53,1.61c0.51,1.11,0.31,2.38-0.59,3.82c-1.54,3.25-1.2,3.87,1.02,1.87c1.79-1.56,3.46-3.03,5.03-4.41
			c5.64,3.61,12.52,8.66,15.06,10.05c0.11-0.19-0.28-1.29-1.19-3.31c-3.65-1.72-8.28-4.98-12.55-7.9
			c8.19-7.19,13.11-11.59,14.77-13.18c0.37-0.39,4.55,4.12,3.94,4.88c0,0-0.37,0.61-1.1,1.82c-0.23,0.64-0.07,1.09,0.47,1.36
			c1.82,1.45,2.47,2.17,1.95,2.16c0,0-0.47,1.12-1.4,3.35c-0.04,0.84,0.39,1.05,1.29,0.61c2.83-1.83,9.01-7.09,12.18-8.48
			c2.11-0.93,2.2,0.99,2.46,4.24c0.2,2.44,0.75,6.16,0.88,7.12c0.1,0.65,2.56-0.28,5.35-1.27c1.98-0.59,3.22-0.34,3.73,0.76
			c0,0,3.34,4.41,10.01,13.23c0.64,0.04-0.21-3.87-2.54-11.71c-0.12-0.93,0.19-1.22,0.93-0.85c0,0,1.75,0.99,5.26,2.97
			c0.24,0.04,0.57,0.12,0.99,0.23l-4.44,47.43h-69.68L30.05,113.53L30.05,113.53z M102.84,184.73l-0.04-0.01l-0.04,0.01v-0.03
			c-29.93-10.95-51.33-23.15-62.41-35.52c21.84-1.7,43.68-2.72,65.52-2.72c19.91,0,39.83,0.84,59.76,2.28
			c-10.97,12.52-32.52,24.88-62.8,35.95L102.84,184.73L102.84,184.73z"/>
	</g>
	<g>
		<path d="M16.36,113.53l-7.89-84.2L8.2,26.39l2.86-0.77c0.13-0.04,43.18-11.67,91.71-25V0.59l0.04,0.01l0.04-0.01v0.02
			c48.53,13.33,91.58,24.97,91.71,25l2.86,0.77l-0.28,2.94l-7.89,84.2h-7.04l7.67-81.9c-9.88-2.68-44.4-12.04-87.08-23.76
			C60.13,19.59,25.61,28.95,15.73,31.63l7.67,81.9H16.36z M102.84,199.62l-0.04-0.01l-0.04,0.01v-0.02
			c-25.15-9.01-45.21-18.83-59.36-28.96c-7.52-5.39-13.43-10.91-17.6-16.5L8.1,152.36c5.94-0.69,11.05-1.26,15.35-1.69l-0.02-0.03
			c2.66-0.25,5.32-0.49,7.98-0.72l0.01,0.01h0.01c0.07-0.08,0.07-0.07,0.01,0.02c3.71,4.96,9.1,9.97,16.07,14.96
			c13.21,9.46,31.87,18.68,55.3,27.23c23.42-8.55,42.09-17.76,55.3-27.23c7.2-5.16,12.72-10.34,16.44-15.46
			c-0.06-0.09-0.06-0.1,0.01-0.02c0.67,0.05,1.37,0.11,2.11,0.18h0.01l0.02,0c1.94,0.16,3.87,0.33,5.81,0.5l-0.03,0.05
			c4.31,0.43,9.45,1,15.41,1.7l-17.71,1.77c-4.2,5.76-10.23,11.46-17.97,17.01c-14.15,10.14-34.2,19.95-59.36,28.96L102.84,199.62
			L102.84,199.62z"/>
	</g>
	<g>
		<path class="st5" d="M125.64,106.13c-1.54-2.65-2.31-3.74-2.32-3.27c-0.98-0.05-1.96,0.45-2.96,1.48
			c-0.02,0.04,0.08,0.34,0.32,0.9c0,0-0.46-0.21-1.37-0.63c-1.52-0.2-3.1,0.1-4.75,0.9c-0.63,0.24-1.44-0.12-2.43-1.06
			c-1.47-0.03-4.63,0.92-9.5,2.85c4.61-0.74,6.91-1.11,6.91-1.11c0.11,0.77,0.16,1.16,0.16,1.16c1.03-0.7,2.42-0.72,4.17-0.05
			c1.03,0.41,1.67,0.48,1.9,0.21c-0.21-0.56-0.32-0.84-0.32-0.84c1.06-0.85,2-1.29,2.8-1.32c1.52,1.43,2.65,1.96,3.38,1.58
			c1.27-0.98,1.9-1.48,1.9-1.48C124.94,105.9,125.64,106.13,125.64,106.13 M150.51,104.58c1.72-2.54,2.57-3.57,2.55-3.1
			c0.98,0.02,1.93,0.58,2.84,1.68c0.02,0.04-0.1,0.33-0.38,0.87c0,0,0.47-0.18,1.41-0.54c1.53-0.09,3.09,0.32,4.68,1.23
			c0.62,0.28,1.45-0.02,2.5-0.88c1.46,0.08,4.56,1.25,9.27,3.51c-4.54-1.06-6.82-1.59-6.82-1.59c-0.16,0.76-0.24,1.15-0.24,1.15
			c-0.98-0.77-2.36-0.89-4.16-0.35c-1.06,0.34-1.7,0.36-1.91,0.08c0.25-0.55,0.38-0.82,0.38-0.82c-1-0.93-1.9-1.43-2.7-1.51
			c-1.62,1.32-2.78,1.77-3.48,1.34c-1.19-1.07-1.79-1.61-1.79-1.61C151.23,104.4,150.51,104.58,150.51,104.58z M55.24,105.6
			c-1.54-2.65-2.31-3.74-2.32-3.27c-0.98-0.05-1.96,0.45-2.96,1.48c-0.02,0.04,0.08,0.34,0.32,0.9c0,0-0.46-0.21-1.37-0.63
			c-1.52-0.2-3.1,0.1-4.75,0.9c-0.63,0.24-1.44-0.12-2.43-1.05c-1.47-0.03-4.63,0.92-9.5,2.85c4.61-0.74,6.91-1.11,6.91-1.11
			c0.11,0.77,0.16,1.16,0.16,1.16c1.03-0.7,2.42-0.72,4.17-0.05c1.03,0.41,1.67,0.48,1.9,0.21c-0.21-0.56-0.32-0.84-0.32-0.84
			c1.06-0.85,2-1.29,2.8-1.32c1.52,1.43,2.65,1.96,3.38,1.58c1.27-0.98,1.9-1.48,1.9-1.48C54.54,105.37,55.24,105.6,55.24,105.6z"/>
	</g>
	<g>
		<path class="st5" d="M95.15,54.28c-0.83-0.57-1.75-1.23-2.57-1.88c-1.18-0.94-2.21-1.92-2.67-2.74l-0.03-0.06
			c-0.12-0.22-0.26-0.54-0.43-0.96l-0.01-0.03l0.04,0.68l0.02,0.29l-0.08,0.29c-0.14,0.54-0.43,1.08-0.87,1.6
			c-0.2,0.24-0.44,0.48-0.72,0.73l-0.05,0.41c0.25,0.48,0.42,0.83,0.57,1.21v0.01c0.17,0.44,0.31,0.87,0.48,1.47
			c0.58,0.76,1.21,1.6,1.88,2.51c0.18,0.24,0.35,0.48,0.51,0.71c0.46-0.5,0.93-1.01,1.39-1.51C93.46,56.08,94.3,55.16,95.15,54.28
			 M104.91,48.11c0-0.03,0-0.06,0-0.09c-0.19-0.14-0.38-0.29-0.55-0.45c-0.18-0.17-0.34-0.34-0.49-0.53
			c-0.4-0.07-0.97-0.17-1.72-0.29l-0.33-0.05l-0.29-0.16c-0.59-0.33-1-0.91-1.22-1.73c-0.04-0.16-0.08-0.34-0.12-0.54
			c-0.09-0.06-0.18-0.12-0.28-0.18c-0.39-0.27-0.86-0.64-1.38-1.1l-1.14-0.43l-0.09-0.04c-0.34-0.15-0.63-0.38-0.88-0.7l-0.14-0.02
			l-0.04,0.05c0.17,0.31,0.31,0.58,0.43,0.79l0.16,0.08l0.28,0.14l0.21,0.21c0.85,0.85,1.91,2.46,2.93,4.03
			c0.68,1.05,1.31,2.06,1.64,2.57c0.93-0.28,1.8-0.5,2.6-0.66c0.17-0.03,0.34-0.07,0.51-0.1C104.92,48.57,104.92,48.34,104.91,48.11
			z M116.09,91.85c-0.01-0.15-0.02-0.3-0.03-0.45c-0.09-0.02-0.17-0.05-0.26-0.08C115.92,91.5,116.02,91.67,116.09,91.85z
			 M79.58,23.17c-0.04-0.89-0.06-2.13,0.05-3.31c0.16-1.92,0.67-3.82,1.93-4.72c1.86-1.32,3.7-2.1,5.55-2.39
			c1.79-0.28,3.56-0.08,5.31,0.54l1.3,0.11l0.49,0.04l0.41,0.27c1.34,0.9,2.66,1.87,3.96,2.89c1.28,1.02,2.48,2.04,3.59,3.07
			l0.15,0.14l0.12,0.17c0.46,0.67,0.62,1.44,0.52,2.17c-0.11,0.74-0.49,1.43-1.12,1.93c-0.34,0.28-0.7,0.55-1.06,0.83
			c-0.38,0.29-0.71,0.53-1,0.72l-0.16,0.11l-0.18,0.07c-0.36,0.15-0.73,0.24-1.19,0.29l0.11,0.17l0.07,0.1l0.03,0.06
			c0.29,0.57,0.41,1.2,0.35,1.89l-0.02,0.16c-0.22,1.35-0.44,2.41-0.65,3.16c-0.28,0.97-0.64,1.68-1.09,2.1l0,0
			c-0.07,0.07-0.14,0.13-0.2,0.19c0.43,0.12,0.82,0.2,1.19,0.26c0.36,0.05,0.69,0.07,0.97,0.05h0.02c0.88-0.06,1.61-0.07,2.17-0.04
			c0.49,0.02,0.91,0.09,1.26,0.2c0.1-0.44,0.36-0.84,0.77-1.2c0.46-0.41,1.12-0.67,1.96-0.77l0.08-0.01l0.17,0
			c0.77,0.01,1.47,0.14,2.1,0.37c0.69,0.26,1.29,0.65,1.78,1.17l0.03,0.03c0.48,0.52,0.92,1.04,1.33,1.55
			c0.4,0.51,0.79,1.05,1.15,1.59l0.25,0.38l0.05,0.46l0.05,0.45c0.88,1.08,1.59,2.08,2.11,3.01l0.04,0.07l0.07-0.24l0.28-0.97
			l-3.63-6.14l-0.07-0.12l-0.06-0.16c-0.57-1.48-0.37-2.57,0.4-3.38c0.69-0.72,1.68-0.95,2.85-0.85l0,0
			c1.61,0.14,2.83,0.47,2.83,0.47l0.57,0.14l0.39,0.45c2.99,3.46,5.93,6.97,8.87,10.5c2.53,3.04,5.07,6.08,7.92,9.4l0.08,0.1
			c0.54,0.73,0.49,1.2,0.37,2.42l-0.03,0.3c-0.01,0.1,0.01,0.14,0.1,0.3v0.01l0.08,0.14l0.25,0.46l-0.02,0.52
			c-0.03,0.71-0.11,1.42-0.24,2.13c-0.08,0.46-0.18,0.94-0.3,1.41l0.35,0.55c0.5,0.8,0.69,1.73,0.54,2.61
			c-0.15,0.89-0.62,1.7-1.44,2.29l-0.02,0.02c-0.5,0.35-1.2,0.86-1.91,1.37c3.65,0.17,6.89,0.56,9.65,1.18
			c3.18,0.71,5.76,1.72,7.68,3.04l0.43,0.3l0.22,0.49c0.24,0.53,0.31,1.1,0.22,1.7c3.21,1.76,5.96,4.19,8,7.08
			c7.68,10.91,2.43,26.41-10.57,29.83c0,0-5.26,0.09-15.79,0.26c-8.64-2.44-13.99-7.65-16.08-15.63l-0.03-0.19l-0.01,0.02
			l-0.02-0.07l-0.01,0.11l-0.25,0.39c-0.81,1.23-1.59,2.32-2.35,3.28c-0.79,0.99-1.54,1.84-2.26,2.53
			c-0.74,0.72-1.33,1.15-2.08,1.46c-0.71,0.29-1.43,0.4-2.47,0.48c-1.03,0.08-2.54,0.11-4.95,0.08c-2.36-0.03-5.54-0.12-9.98-0.28
			c-1.45-0.05-1.62,0.14-1.76,0.31c-0.48,0.55-0.93,1.06-1.98,1.24l-11.52-0.43c-1.61,2.79-4.23,4.76-7.85,5.91
			c0,0-3.63,0.22-10.89,0.66c-8.76-2.85-12.71-9.95-10.29-20.34c0.21-0.64,0.45-1.26,0.71-1.87l-3.14-0.86l-0.19-0.05l-0.15-0.07
			c-0.55-0.27-0.96-0.65-1.23-1.14c-0.29-0.53-0.38-1.1-0.28-1.72l0.04-0.24l0.09-0.21l2.5-5.71c-0.02-0.06-0.05-0.11-0.07-0.16
			c-0.2-0.52-0.26-1.02-0.19-1.49l0.02-0.1l0.04-0.13l1.15-4.08l0.02-0.04c0.09-0.31,0.25-0.6,0.47-0.88
			c0.16-0.21,0.35-0.4,0.55-0.58l0.06-0.05l0.12-0.08l1.55-1.07c0.04-0.14,0.06-0.24,0.08-0.32c0.05-0.2,0.07-0.27,0.09-0.32
			c0.03-0.11,0.06-0.22,0.09-0.33c-0.3-0.05-0.66-0.1-1.13-0.17c-0.46-0.07-0.83-0.17-1.22-0.32c-0.37-0.15-0.67-0.31-1.04-0.54
			c-0.22-0.13-1.11-0.68-1.79-1.33c-1.57-1.5-2.33-3.23,0.32-4.45c0.5-0.23,1.12-0.46,1.92-0.72c0.79-0.25,1.7-0.52,2.77-0.8
			l0.19-0.05l0.24-0.01c0.48-0.02,1.13,0.02,1.92,0.09c0.8,0.08,1.71,0.19,2.74,0.34l0.16,0.02l0.14,0.04
			c0.5,0.16,1.07,0.45,1.73,0.87c0.46,0.3,0.98,0.67,1.56,1.12l9.17,1.06c2.47,0.28,3.21,0.8,4.82,1.91
			c0.04,0.03,0.11,0.08,0.5,0.34c0.39,0.27,0.77,0.47,1.18,0.62l-3.07-4.54l0,0c-0.64-0.92-1.13-1.87-1.49-2.85
			c-0.35-0.99-0.56-2.01-0.61-3.07l-0.01-0.21l0.03-0.2l0.39-2.36c-0.1-0.15-0.2-0.31-0.27-0.49c-0.28-0.68-0.27-1.42,0.17-2.23
			c-0.05-0.06-0.19-0.1-0.28-0.31c-0.42-0.94-0.88-1.98-0.6-3.42l0.02-0.06l0.77-3.35h0c0.38-2.12,0.81-3.93,1.26-5.45
			c0.56-1.92,1.15-3.42,1.68-4.57c0.15-0.32,0.22-0.61,0.29-0.91c0.2-0.81,0.39-1.6,1.36-2.94c1.44-1.97,2.55-2.95,2.76-3.13l0,0
			c1.02-0.88,1.99-1.5,2.9-1.87C79.48,23.21,79.53,23.19,79.58,23.17z"/>
	</g>
	<g>
		<path class="st6" d="M98.1,53.96c-1.58-0.96-5.73-3.77-6.55-5.23c-0.19-0.37-0.49-1.09-0.88-2.14c0,0-0.67-0.91-2.01-2.73
			c-0.86,2.1-1.24,3.45-1.15,4.03c0.06,1,0.09,1.5,0.09,1.5c-0.14,0.53-0.65,1.14-1.54,1.83c-0.15,1.16-0.22,1.74-0.22,1.74
			c0.73,1.37,0.84,1.67,1.28,3.2c1.47,1.89,2.76,3.66,3.88,5.31C93.41,58.99,95.76,56.24,98.1,53.96 M106.63,46.88
			c0.28,1.25,0.04,1.13,0.28,2.15c0.06,0.28,1.81,1.37,0.41,1.53c-1.35-0.04-3.31,0.36-5.87,1.19c-1-0.37-3.91-5.81-5.47-7.36
			c0,0-0.22-0.11-0.66-0.33c-0.33-0.53-0.98-1.78-1.96-3.75c1-0.08,1.46-0.1,1.74-0.11c0.18-0.25,0.26-0.38,0.26-0.38
			c1.2,0.08,1.94,0.19,2.23,0.33c0.19,0.38,0.35,0.59,0.46,0.64c0.97,0.37,1.46,0.55,1.46,0.55c1.15,1.03,1.96,1.59,2.42,1.68
			c0.08,1.11,0.25,1.73,0.51,1.87c1.88,0.29,2.65,0.46,2.65,0.46C105.24,45.97,105.87,46.46,106.63,46.88z M61.95,74.72
			c0.11-0.21,0.33-0.69,0.9-1.25c0,0-0.1-0.19-1.02-0.89c-0.7,0.27-1.44,0.75-2.2,1.43C60.43,73.81,61.28,74.36,61.95,74.72z
			 M143.03,80.15l0.96-2.38c-1.12-0.44-2.31-0.75-3.53-0.93l0.07,2.5C141.42,79.53,142.26,79.8,143.03,80.15z M146.79,82.96
			l1.3-2.82c-0.71-0.57-1.47-1.08-2.28-1.52l-0.94,2.58C145.62,81.73,146.26,82.33,146.79,82.96z M151.56,90.2l1.82,0.27
			c0-0.19-0.01-0.39-0.02-0.59c-0.01-0.11-0.02-0.22-0.02-0.33L151.56,90.2z M152.23,95.06l0.25,0.14l0.04-0.1L152.23,95.06z
			 M148.01,93.78l0.77,0.1l-0.63-0.36C148.11,93.61,148.06,93.69,148.01,93.78z M146.84,100.75l0.3,0.45
			c0.05-0.03,0.1-0.06,0.15-0.09L146.84,100.75z M145.84,97.31l4.1,1.72c0.18-0.19,0.36-0.38,0.53-0.58l-3.31-2.85
			C146.8,96.25,146.35,96.81,145.84,97.31z M141.87,99.54l1.57,3.13c0.05-0.01,0.1-0.03,0.15-0.04l-0.33-3.6
			C142.81,99.23,142.34,99.4,141.87,99.54z M139.27,99.94l0.13,3.13c0.17,0.01,0.34,0.01,0.52,0.01h0.05l0.07-3.2
			C139.78,99.91,139.52,99.93,139.27,99.94z M137.64,79.13l-0.39-2.41c-0.28,0.02-0.56,0.05-0.84,0.08
			c0.65,1.62,0.95,2.34,0.95,2.34C137.46,79.14,137.55,79.14,137.64,79.13z M148.64,86.78l3.18-2.2c-0.18-0.34-0.38-0.67-0.59-1
			l-3.03,1.77C148.38,85.81,148.53,86.29,148.64,86.78z M128.57,98.25l0.69-0.75l-1.05,0.35C128.33,97.99,128.45,98.12,128.57,98.25
			z M137.01,99.8l0,0.03l0.02-0.03L137.01,99.8z M133.45,98.52l-1.72,2.27c0.2,0.12,0.4,0.24,0.6,0.35l1.66-2.32
			C133.8,98.72,133.63,98.62,133.45,98.52z M127.78,93.73l-1.85,0.62c0.06,0.14,0.13,0.28,0.2,0.42l1.95-0.61
			c-0.04-0.1-0.08-0.2-0.11-0.3L127.78,93.73z M124.85,90.22l1.62-0.15c-0.12-0.76-0.21-1.61-0.29-2.57l-1.21-0.39
			c-0.15,0.9-0.2,1.83-0.14,2.78C124.83,90,124.84,90.11,124.85,90.22z M125.66,93.69l1.6-0.54c-0.27-0.57-0.49-1.37-0.68-2.39
			l-1.66,0.15C125.07,91.88,125.32,92.81,125.66,93.69z M127.72,97.27l2.52-0.85l0.25-0.28h-1.03c-0.4-0.23-0.76-0.67-1.1-1.34
			l-1.91,0.59C126.83,96.05,127.25,96.68,127.72,97.27z M131.13,100.41l1.73-2.28c-0.54-0.39-1.03-0.84-1.46-1.36l-0.76,0.26
			l-1.57,1.72C129.7,99.36,130.39,99.91,131.13,100.41z M135.61,102.48l0.64-1.21l0.06-1.61c-0.58-0.13-1.14-0.31-1.68-0.54
			l-1.67,2.34C133.8,101.88,134.69,102.22,135.61,102.48z M138.69,103.03l-0.13-3.09c-0.26-0.01-0.53-0.02-0.79-0.05l-0.82,1.56
			l-0.05,1.33C137.49,102.9,138.08,102.99,138.69,103.03z M142.73,102.82l-1.56-3.11c-0.14,0.03-0.29,0.06-0.43,0.08l-0.07,3.28
			C141.37,103.03,142.06,102.95,142.73,102.82z M146.52,101.54l-1.5-2.22l-0.91-0.72c-0.06,0.03-0.11,0.06-0.17,0.09l0.34,3.74
			C145.06,102.2,145.81,101.9,146.52,101.54z M149.39,99.57l-4.14-1.73c-0.08,0.07-0.17,0.13-0.25,0.2l0.55,0.81l2.38,1.87
			C148.44,100.36,148.93,99.98,149.39,99.57z M152.19,95.85l-1.8-1.04l-2.68-0.36c-0.06,0.18-0.13,0.35-0.21,0.51l3.42,2.95
			C151.41,97.27,151.84,96.58,152.19,95.85z M153.37,91.19l-3.19-0.48l-1.32,0.48c-0.09,0.58-0.23,1.15-0.43,1.68l2.19,1.26
			l2.15,0.29C153.11,93.4,153.32,92.31,153.37,91.19z M152.14,85.22l-3.35,2.31c0.13,0.75,0.19,1.52,0.18,2.29l1.13,0.17l3.14-1.15
			C153.06,87.57,152.68,86.36,152.14,85.22z M148.64,80.6l-1.37,2.98c0.04,0.06,0.08,0.12,0.13,0.18c0.19,0.28,0.37,0.6,0.53,0.94
			l2.91-1.7C150.2,82.13,149.46,81.33,148.64,80.6z M144.64,78.05l-0.98,2.42c0.21,0.11,0.41,0.22,0.6,0.34l0.91-2.51
			C145,78.21,144.82,78.12,144.64,78.05z M137.96,76.7l0.4,2.43c0.5,0.01,0.99,0.05,1.46,0.11l-0.07-2.47
			c-0.49-0.05-0.98-0.07-1.49-0.07C138.16,76.7,138.06,76.7,137.96,76.7z M81.5,23.78c-0.1-1.57-0.26-6.1,1.15-7.11
			c3.21-2.29,6.31-2.68,9.38-1.52c1.03,0.09,1.54,0.13,1.54,0.13c2.69,1.82,5.13,3.74,7.32,5.78c0.37,0.54,0.26,1.19-0.23,1.59
			c-0.69,0.56-1.33,1.04-1.93,1.45c-0.45,0.19-0.98,0.22-2.2,0.13c-0.37,1.19-0.55,1.79-0.55,1.79c0.54,0.85,0.82,1.28,0.82,1.28
			c0.13,0.26,0.18,0.56,0.15,0.9c-0.41,2.52-0.81,3.94-1.21,4.23c-0.48,0.47-1.08,0.57-1.81,0.29c-1.45-1.07-2.67-1.68-3.66-1.83
			c-0.49,0.2-0.91,0.45-1.24,0.75c0.12,0.88,0.37,1.43,0.77,1.65c0.96,0.59,1.43,0.88,1.43,0.88c1.44,0.67,2.76,1.09,3.97,1.26
			c0.2,0.18,0.31,0.26,0.31,0.26c0.32-0.01,0.54-0.01,0.66,0.02c1.15,0.34,2.13,0.47,2.95,0.42c1.66-0.1,2.63-0.06,2.91,0.13
			c0.65,0.62,0.97,0.93,0.97,0.93c1.1-0.38,1.65-0.57,1.65-0.57c0.29-0.13,0.67-0.12,1.13,0.02c-0.94-0.95-1.41-1.43-1.41-1.43
			c-0.23-0.5,0.11-0.8,1.01-0.9c1.1,0.02,1.95,0.34,2.56,0.97c0.88,0.95,1.64,1.92,2.29,2.91c0.07,0.68,0.11,1.01,0.11,1.01
			c1.99,2.35,3.04,4.21,3.15,5.58c-0.46,0.97-0.68,1.46-0.68,1.46c0.59,0.93,0.88,1.39,0.88,1.39c0.49-0.45,0.87-0.86,1.13-1.24
			c0.9-3.06,1.35-4.59,1.35-4.59c0.38,0.03,0.57,0.04,0.57,0.04c0.24-0.73,0.35-1.1,0.35-1.1c-2.97-5.03-4.45-7.54-4.45-7.54
			c-0.54-1.39,0.11-1.78,1.35-1.68c1.46,0.13,2.54,0.42,2.54,0.42c5.8,6.69,11,13.17,16.78,19.89c0.12,0.17,0.07,0.49-0.02,1.43
			c-0.07,0.74,0.02,0.84,0.4,1.53c-0.06,1.22-0.28,2.53-0.68,3.92c0.38,0.61,0.64,1.03,0.78,1.24c0.5,0.8,0.4,1.81-0.4,2.38
			c-1.73,1.2-3.5,2.56-5.26,3.71c-0.46,0.44-0.55,0.5,0.31,1.98c1.19-0.71,1.49-1,2.73-0.96c8.11,0.25,14.17,1.57,17.65,3.95
			c0.18,0.39,0.1,0.89-0.22,1.5l-0.38,0.28c7.21,3.22,12.31,9.98,12.53,17.81c0.31,10.94-9.03,19.81-20.86,19.81
			c-11.83,0-21.67-8.87-21.98-19.81c-0.02-0.5-0.01-1.01,0.02-1.5c-0.45,0.26-0.78,0.42-1.01,0.48c-0.3,0.09-0.87,0.06-0.86-1.08
			c0.29-2.84,1.24-7.33,3.16-10.5c-0.39-0.43-0.73-0.79-1.02-1.1c-1.95-2.11-1-1.23-1.41,2.07c-0.57,0.88-1.5,2.05-1.69,3.08
			c-1.19,6.21-1.78,9.31-1.78,9.31c0.71,0.66,1.08,1.12,1.1,1.37c-1.56,2.37-3.01,4.2-4.34,5.49c-1.13,1.09-1.69,1.28-3.39,1.42
			c-2.03,0.16-5.81,0.12-14.71-0.2c-4.18-0.15-2.42,1.72-5,1.61c-7.69-0.31-11.2-0.49-11.2-0.49l-0.08-0.02
			c-2.28,5.39-7.19,9.21-12.88,9.37c-7.87,0.22-14.24-6.64-14.24-15.33c0-5.43,2.49-10.28,6.28-13.21l-0.49-0.48
			c-0.1-0.31-0.11-0.82-0.01-1.53c-1.1,1.44-2.23,3.24-3.37,5.4c-0.31,0.4-0.61,0.59-0.88,0.57c-2.94-0.81-4.41-1.21-4.41-1.21
			c-0.39-0.19-0.55-0.49-0.49-0.88c1.91-4.37,2.87-6.55,2.87-6.55c-0.37-0.55-0.53-0.98-0.49-1.28c0.76-2.72,1.15-4.08,1.15-4.08
			c0.05-0.17,0.21-0.38,0.47-0.61c1.3-0.9,1.95-1.35,1.95-1.35c0.09-0.09,0.17-0.18,0.22-0.28c0.16-0.67,0.23-0.9,0.31-1.2
			c0.16-0.65,0.36-1.16,1.14-1.24c0.71-0.04,1.06-0.07,1.06-0.07c-0.48-0.19-0.83-0.33-1.06-0.42c-0.41-0.16-0.28-0.06-0.41-0.54
			c-1.63-0.26-2.74-0.44-3.31-0.53c-0.67-0.1-0.96-0.24-1.56-0.6c-0.37-0.22-3.01-1.85-1.66-2.48c0.87-0.4,2.22-0.83,4.39-1.42
			c0.81-0.02,2.26,0.12,4.34,0.42c0.67,0.21,1.7,0.88,3.11,2.01c5.06,0.58,8.3,0.96,9.7,1.12c2.24,0.26,2.75,0.76,4.47,1.93
			c1.74,1.18,3.38,1.4,6.25,1.65c-3.69-5.45-5.53-8.18-5.53-8.18c-1.09-1.56-1.68-3.21-1.76-4.94c0.38-2.29,0.57-3.44,0.57-3.44
			c-0.54-0.2-0.86-0.55-0.35-1.26c0.4-1.16-1.14-2.39-0.82-4.06c0.51-2.23,0.77-3.35,0.77-3.35c0.83-4.63,1.9-7.69,2.81-9.64
			c0.61-1.31,0.26-1.87,1.47-3.53c1.46-1.99,2.47-2.82,2.47-2.82c1.74-1.5,3.16-2.08,4.25-1.72C81.71,24.4,81.58,24.01,81.5,23.78z"
			/>
	</g>
	<g>
		<path class="st5" d="M82.23,84.07c0.51,0.84,1.35,2.17,0.26,2.82c-0.93-0.36-1.82-0.74-3.31-0.53c1.24,0.45,1.34,0.83,2.36,1.74
			c1.55,0.2,5.35-1.07,6.02,0.83c0,0-1.01-0.21-1.77,0.06c0.83-0.01,1.7,0.19,1.9,0.79c0.1,0.3,0.11,0.77-0.26,1.21
			c0.19-0.26,0.1-0.55-0.26-0.88c-1.3-0.65-6.47,0.01-11.99,1.71c0,0,1.82-0.18,1.77,0.05c-0.04,0.19-0.09,0.44-0.13,0.71
			c-0.02-0.02-0.58,0.12-1.7,0.4c0.03,0.15,0.41,0.5,1.13,1.04c-0.56-0.17-1.26-0.49-2.09-0.97c-0.34-0.37-0.06-1.65,0.71-3.57
			c0.6-0.6,1.52-1.74,1.52-1.74c-0.77-0.14-1.5,0.18-1.59-0.09c0.08-0.62,0.13-2.94,0.8-3.38c1.12-0.74,2.57-1.07,3.93-1.18
			c-0.02,0.03-0.5-0.64-2.25-0.73c0.25-2.03,2.86-3.01,6.39-8.14c0.12-0.17,0.94,0.08,1.06-0.1c0.12-0.18-0.47-0.78-0.35-0.97
			c0.06-0.13,4.17-0.36,5.16-0.62c-0.96-0.33-3.39-0.3-5.6-2.56c2.43-0.13,8.24-0.89,1.37-1.41c0.19-0.69-0.92-1.83-0.57-2.09
			c0.65-0.5,1.05-0.42,1.59-1.96c-6.48-0.87-2.69-1.38-7.1-6.55c-0.19-0.25,1.48-1.49,3.2-1.76c-1.28-0.18-3.2,0.02-4.56,0.57
			c-0.06-0.07,0.1-0.68-0.44-1.57c-0.56-0.92-1.83-2.11-1.85-2.18c0.9-0.96,3.08-1.11,6.53-0.46c-2.44-0.98-4.61-1.34-6.52-1.06
			c-0.62,0.09-2.79,1.3-3.49,3.73c0.07-3.13,1.72-3.39,1.59-3.83c-0.06-0.19-0.13-0.51-0.23-0.78c0.11-0.05-0.18-0.06-0.86-0.02
			c4.25-2.77,8.27-0.41,11.8,1.54c0,0,0,0.09-0.35,0.62c0.6,0.55,1.17,1.24,1.72,2.07c-0.75-0.38-2.54-1.13-3.26-1.1
			c1.9,1.23,3.13,2.31,2.2,2.42c3.96,4.5,6.35,7.97,7.14,10.41c0,0-0.32,0.18-0.97,0.53c1,0.19,1.59,0.51,1.79,0.95
			c0.2,1.33,0,4.4-0.67,6.01c-0.42,1-0.67,0.83-1.67,1.2c-0.06,0.06,0.23,0.96,0.01,1.28c-0.24,0.34-0.87,1.35-1.25,1.86
			c-0.17,0.23-0.66,0.61-0.85,0.85c-1.79,2.37-3.81,5.31-4.15,5.75C83.62,84.68,82.84,84.11,82.23,84.07"/>
	</g>
	<g>
		<path class="st5" d="M98.88,21.29c-1.43-0.42-3.24-0.82-5.43-1.2c0,0-0.44-0.38-1.32-1.13c0,0-0.47,0.02-1.41,0.04
			c-2.42-1.64-4.95-2.15-7.58-1.54c3.02-2.15,5.78-2.57,8.55-1.48c1.84,0.98,2.76,1.48,2.76,1.48c-0.82-0.91-1.24-1.37-1.24-1.37
			c0.41,0.06,0.62,0.09,0.62,0.09c2.7,2.13,4.75,3.82,6.28,5.18c0.3,0.26,0.26,0.56-0.04,0.81c-0.96,0.69-1.44,1.04-1.44,1.04
			c-0.45,0.17-1.08,0.26-1.88,0.28c1.23-0.29,1.9-0.57,2.02-0.83c0.53-0.51,0.79-0.77,0.79-0.77
			C99.46,21.75,99.24,21.55,98.88,21.29"/>
	</g>
	<g>
		<path class="st5" d="M94.18,22.46c0.35,0.99,0.72,1.94,1.1,2.84c0,0,0.19-0.67,0.57-2.01c-1.29-1.44-1.94-2.16-1.94-2.16
			c-0.24,0.15-0.39,0.66-0.46,1.52C93.94,22.52,94.18,22.46,94.18,22.46"/>
	</g>
	<g>
		<path class="st5" d="M94.62,30.45c-0.39-0.94-1.41-2.22-2.07-2.93c-2.14-2.31-5.8-3.72-8.12-4.2c-1.04-0.21-1.72,0-1.52,1.19
			c-0.3-0.31-0.64-0.92-0.64-1.3c0-2.59,0.1-4.11,0.39-4.67c0.04,0.63,0.07,0.95,0.07,0.95c2.29-1.18,4.65-0.92,7.08,0.77
			c1.31,1.86,2.18,2.93,2.61,3.23c1.93,1.98,3.15,3.42,3.68,4.32c0.06,0.16,0.07,0.32,0.06,0.47c-0.31,1.72-0.57,2.75-0.76,3.06
			c-0.43,0.43-0.89,0.57-1.37,0.42C94.62,31.49,94.9,31.12,94.62,30.45"/>
	</g>
	<g>
		<path class="st5" d="M97.4,36.81c-0.2,0.29-0.33,0.69-0.39,1.21c-0.16,0.07-0.3-0.2-0.4-0.82c-0.76,0.16-1.23,0.58-1.79,1.81
			c0,0-0.29-0.23-0.51-0.42c-0.17-0.01-0.37,0.37-0.58,0.34c-2.06-0.32-5.72-1.77-7.94-2.57c-0.96-0.35-1.5,0.04-1.85,0.52
			c-0.97,1.35,0.33,1.76,1.42,2.38c-1.85-0.35-2.92-0.76-3.79-2.51c0,0-0.96-1.24-2.87-3.7c-0.79-1.52-1.15-2.81-1.1-3.88
			c-0.35,0.4-0.65,1.17-0.88,2.29c-0.21,0.22-0.8,0.16-0.9,0.39c-0.39,0.98-0.93,1.35-1.18,1.46c1.13-1.67,0.3-2.71,2.78-4.98
			c1.02-1.29,2.02-2.03,2.78-2.4c1.45-0.7,2.57,0.09,3.86,0.93c0,0-0.17-0.46-0.42-1.04c0.98-0.59,1.79-1.02,1.79-1.02
			c0.39-0.18,0.76,0.64,2.2,1.7c0.41,0.31,1.07,0.86,1.94,1.2c0.48,0.28,0.63,0.64,0.46,1.08c-0.98,0.91-1.7,1.73-2.14,2.47
			c-0.45-0.23-0.71-0.73-0.77-1.5c-0.54-1.98-1.32-3.28-2.34-3.88c0.45,1.43,0.3,2.72,0.68,4.08c-0.91-1.62-1.76-2.57-2.54-2.84
			c0.8,0.77,1.2,1.58,1.21,2.42c-0.75,0.02-1.13,0.02-1.13,0.02c0.99,0.42,2.1,1.44,3.09,2.84c-2.29,0.23-3.13,0.6-3.13,0.6
			c-0.27,0.18-0.34,0.66-0.22,1.43c1.34-1.23,3.09-1.54,4.1-1.37c1.62,0.78,3.22,1.69,4.98,2.25c1.07,0.37,2.31,0.72,3.13,0.82
			c0.01,0.15-0.64,0.26-0.98,0.57c-0.31,0.29-0.32,0.76-0.19,1.38c1.01-1.26,1.76-1.71,1.98-1.66
			C96.31,36.54,96.75,36.65,97.4,36.81"/>
	</g>
	<g>
		<path class="st5" d="M106.98,39.1c-0.98,0.04-1.31,0.22-1.02,0.53c0.91,0.4,2.1,1.71,3.57,3.92c1.05,1.31,1.89,2.03,2.51,2.16
			c0,0,0.15-0.39,0.44-1.17c0.19-0.37-0.88-2.44-2.34-4.1c-0.02,0.77,0.14,1.57,0.42,2.78c-0.65-1.24-1.06-2.48-1.24-3.7
			c0,0,0.01-0.43,0.02-1.3c0,0-0.77-0.94-2.31-2.82c-0.45-0.35-0.99-0.35-1.63,0c0,0,0.66,0.73,1.98,2.18
			c-1.25-0.39-1.99-0.49-2.23-0.31c0,0-0.68,0.26-2.05,0.79c-0.92,0.29-1.71,0.35-2.36,0.15c0.62,0.01,1.22-0.12,1.81-0.4
			c0.04,0.11-0.29-0.21-0.99-0.97c-0.27-0.11-0.29,0.07-0.09,0.55c0,0-0.29-0.18-0.88-0.55c0,0-0.71,0.13-2.14,0.38
			c-0.49,0.2-0.78,0.71-0.88,1.52c0.26-0.18,0.4-0.26,0.4-0.26c-0.16,0.65-0.04,1.18,0.35,1.57c-0.06-0.74,0.07-1.14,0.4-1.21
			c0.48,0.27,1.16,0.42,2.05,0.46c0.62,0.08,2-0.2,4.14-0.84c1.5-0.2,2.7,0.05,3.59,0.75C107.49,39.14,106.98,39.1,106.98,39.1"/>
	</g>
	<g>
		<path class="st5" d="M103.34,40.98c-0.26,0.34-1.04,0.55-2.34,0.64c0,0-0.42-0.35-1.26-1.04c-0.43-0.2-0.24-0.52,0.57-0.95
			c0.76-0.04,1.11-0.02,1.06,0.04c-0.22,0.24-0.46,0.43-0.71,0.57c-0.45,0.11-0.52,0.23-0.2,0.35c0.49,0.05,1.1-0.24,1.85-0.86
			c0.41-0.17,0.56-0.08,0.46,0.26c-0.25,0.39-0.82,0.71-1.72,0.97c0.14,0.1,0.31,0.15,0.51,0.15c1-0.39,1.47-0.61,1.41-0.66
			C103.33,40.52,103.45,40.69,103.34,40.98"/>
	</g>
	<g>
		<path class="st5" d="M102.24,42.41c0.29,0.21,0.68,0.31,1.17,0.29c0.14-0.52-0.05-0.76-0.57-0.71
			C101.97,42.1,101.77,42.24,102.24,42.41"/>
	</g>
	<g>
		<path class="st5" d="M105.17,40.78c1.11,3.79,1.36,4.62,2.38,5.47c-0.69-0.05-1.55-0.67-2.16-2.14c0,0-0.63,0.09-2.29,0.15
			c-0.21-0.11-0.27-0.42-0.15-0.93c0.95,0.03,2.02,0.02,2.25,0.29C105.13,42.87,104.16,39.12,105.17,40.78"/>
	</g>
	<g>
		<path class="st5" d="M111.94,49c-0.23,0.17-0.41,0.22-0.55,0.15c0,0-0.42-0.54-1.26-1.63c0,0-0.59,0.42-1.76,1.26
			c-0.44,0.08-0.61-0.03-0.51-0.33c0.16-0.75,0.96-1.59,2.4-2.54c1.01,0.21,1.46,0.52,1.35,0.93c-0.34,0.22-0.51,0.33-0.51,0.33
			c0.49,0.03,0.96,0.39,1.43,1.08C112.58,48.46,112.39,48.71,111.94,49"/>
	</g>
	<g>
		<path class="st5" d="M131.39,57.18c0.14-0.97,0.25-1.66,0.33-2.07c-0.31-1-2.84-3.85-5.8-5.78c-0.09-0.02-0.74-0.01-1.32,0.13
			c-0.02,0,0.24,1.26,1.7,4.85c-1.84-3.05-3.22-5.11-4.14-6.2c0,0,0.18-0.06,1.43-0.71c0,0,0.83,0.23,1.38,0.35l-4.38-3.65
			c-2.86,2-4.05,3.13-3.75,3.04c0.79-1.8,1.05-2.86,1.38-3.63c0.47-1.07,0.38-1.35,1.44-0.94c2.09,0.8,3.73,1.44,4.74,1.83
			c-1.53-1.18-4.06-2.96-6.4-4.23c0,0-1.39-2.26-4.17-6.79c-0.39-0.72-0.27-1.05,0.36-0.99l8.57,9.37l-7.79-9.26l0.78,0.11
			c10.98,13.07,16.47,19.6,16.47,19.6c-0.06,0.55-0.05,0.97-0.07,1.32c-0.02,0.42-0.04,0.74,0.4,1.19
			c-0.32,2.29-0.49,3.44-0.49,3.44C131.61,57.51,131.39,57.18,131.39,57.18"/>
	</g>
	<g>
		<path class="st5" d="M127.94,55.35c1.84,0.74,2.86,1.03,3.06,0.86c0,0,0.09-0.31,0.29-0.93c0,0-0.29,0.07-0.88,0.22
			c-1.07-0.83-1.67-1.69-1.79-2.58c0,0-0.15,0.89-0.24,1.35c0,0-0.4-0.13-0.9-0.46c-0.1-0.09-0.59-0.98-1.46-2.69
			C126.59,53.25,127.23,54.66,127.94,55.35"/>
	</g>
	<g>
		<path class="st5" d="M122.73,57.47c0.32,0.21,0.64,0.41,0.93,0.59c0.85,0.53,1.75,0.73,2.74,0.81c0,0,1.11,0,3.34-0.01
			c0.39,0.01,0.6-0.05,0.94,0.39c0,0,0.66,0.82,1.66,2.05c-0.38-0.02-0.93-0.19-1.22,0.05c-0.17,0.14-0.48,0.4-0.95,0.79
			c-0.43,0.28-0.57,1.19-0.39,1.48c0,0,0.97-0.67,2.9-2c0.44-0.3,0.52-0.82,0.25-1.27c0,0-0.54-0.69-1.63-2.08
			c-0.37-0.45-0.69-0.5-1.24-0.51c-0.49-0.01-1.74-0.02-3.76-0.04c-0.57,0-1.06-0.13-1.63-0.46c0,0-1.66-1.08-3.69-2.28
			c-0.55-0.31-0.99-0.47-1.82-0.5l0,0c-0.39-0.09-0.83-0.06-1.32,0.09c-5.26,1.13-5.63,1.21-7.79,1.68
			c-0.99,0.28-1.52,0.53-2.18,1.81c-1.06,2.35-1.59,3.53-1.59,3.53c-0.35,0.94-0.37,1.46,0,2.2c3.94,7.35,5.87,10.89,5.87,10.89
			c0.15,2.01-2.27,3.16-1.41,4.52c0.41,0.44,0.62,0.66,0.62,0.66c1.35-2.2,2.03-3.31,2.03-3.31c0.35-0.65,0.61-1.4,0.75-2.25
			c1.88-8.5,2.82-12.74,2.82-12.74c0.23-0.69,0.88-1.37,1.94-2.03L122.73,57.47z M119.34,55.65c0.04,0.04,0.07,0.06,0.09,0.07
			c0.37-0.02,1.19,0.43,2.1,0.99l-4.22,2.22c-0.87,0.57-1.49,1.38-1.85,2.42c0,0-0.9,3.84-2.71,11.51c0,0-1.76-3.21-5.29-9.64
			c-0.28-0.53-0.26-1.06,0.04-1.59c0,0,0.51-1.02,1.54-3.06c0.34-0.68,0.62-1,1.43-1.19c0,0,2.8-0.59,7.96-1.68
			C118.76,55.66,119.05,55.64,119.34,55.65z"/>
	</g>
	<g>
		<path class="st5" d="M118.25,53.29c1.11-0.29,2.04-0.11,3.31,0.66c0,0,0.73,0.44,4.06,2.56c0,0,0.06-0.15,0.29-0.54
			c0.07-0.11,1.59,0.41,2.95,0.6c0,0-2.71-1.1-2.79-1.22c-0.34-0.55-1.3-2.15-2-3.37c0,0,0.28,1.14-0.36,0.81
			c-1.23-0.62-2.3-1.34-4.35-2.44c-0.96-0.45-1.66-0.36-2.64-0.28c-0.79,0.06-2.08,0.15-3.88,0.28c0,0,0.71-0.75,2.12-2.25
			c-3.44,2.59-5.16,3.88-5.16,3.88c0.83,1.11,2.01,2.81,1.98,2.54c-0.02-0.25-1.02-2.38-0.8-2.43c2.43-0.52,3.79-0.75,4.65-0.86
			c1.34-0.17,1.46-0.2,2.24,1.24C118.21,53.22,118.25,53.29,118.25,53.29"/>
	</g>
	<g>
		<path class="st5" d="M138.09,73.96c9.51,0,17.67,7.13,18.22,15.93s-6.72,15.93-16.23,15.93s-17.67-7.13-18.22-15.93
			c-0.14-2.19,0.21-4.28,0.96-6.18l1.98,0.24c-0.79,1.8-1.17,3.81-1.03,5.93c0.49,7.82,7.74,14.16,16.2,14.16
			c8.46,0,14.92-6.34,14.43-14.16c-0.49-7.82-7.74-14.16-16.2-14.16c-0.75,0-1.48,0.05-2.2,0.15l-0.62-1.71
			C136.27,74.03,137.17,73.96,138.09,73.96"/>
	</g>
	<g>
		<path class="st5" d="M69.61,97.71c-1.69,4.33-5.39,7.48-9.46,7.6c-5.27,0.16-9.16-4.83-8.69-11.13c0.29-3.84,2.13-7.29,4.72-9.43
			l0.66,0.63c-2.48,1.93-4.25,5.16-4.52,8.77c-0.43,5.74,3.12,10.28,7.92,10.14c3.8-0.11,7.24-3.12,8.73-7.22L69.61,97.71z"/>
	</g>
	<g>
		<path class="st5" d="M59.9,103.9c-4.48-0.91-7.09-4.34-6.96-8.89c0.11-3.98,1.5-6.99,4.19-9.02c0.17-0.02,0.3,0.09,0.4,0.33
			c-2.5,2.21-3.79,5.11-3.86,8.69C53.57,99.08,55.81,102.88,59.9,103.9"/>
	</g>
	<g>
		<path class="st5" d="M68.82,92.63c0,0-4.26,0.87-10.12,2.09c-0.39,0.02-0.61-0.12-0.66-0.42c0,0-0.01-0.57-0.02-1.72
			c0.03-0.35,0.14-0.58,0.33-0.68c0.46-0.1,0.81-0.21,0.99-0.04c0.19,0.23,0.13,0.35,0.01,0.41c-0.15,0.07-0.32,0.04-0.28,0.24
			c0.1,0.36,0.05,0.54-0.13,0.62c-0.21,0.1-0.43,0.17-0.24,0.5c0.63,0.27,0.95-0.45,0.93-0.06c-0.09,0.24,0.15,0.29,0.73,0.13
			c0.21-0.03,0.35-0.25,0.42-0.66c0.2-0.07,0.42-0.02,0.65,0.14c0,0-0.03-0.76-0.09-2.27c0,0,0.77-0.18,2.31-0.53
			c-4.63-5.39-6.94-8.09-6.94-8.09c6.5,6.73,9.75,10.1,9.75,10.1C68.03,92.55,68.82,92.63,68.82,92.63"/>
	</g>
	<g>
		<path class="st5" d="M58.97,96.26c0.38,0.23,0.66,0.24,0.86,0.02c0.51-0.84,1.13-0.03,1.5,0.13c0.47-0.15,0.9-0.43,1.29-0.91
			c0.29-0.36-0.36-0.77,0.54-0.54c0,0,0.72-0.07,2.16-0.2c-0.69,2.68-3.03,4.31-5.25,4.43c-3.35,0.17-4.89-2.87-4.5-5.91
			c0.31-2.39,1.86-4.77,4.36-5.68c0.37,0.18,0.75,0.5,1.15,0.97c-1.13,0.4,0.62,1.07-0.18,1.26c-0.26,0.15-0.35,0.2-0.5,0.29
			c-0.23,0.13,0.07,0.5,0.07,0.5c-0.46-0.12-0.9-0.39-1.29-0.16c-0.95,0.59-1.49,1.41-1.67,2.33
			C57.28,94.02,57.83,95.73,58.97,96.26"/>
	</g>
	<g>
		<path class="st5" d="M109.12,80.63c0.44,0.7-0.29,1.52-1.02,0.93c0,0-0.35-0.38-1.04-1.13c-0.06-0.17,0.12-0.28,0.55-0.33
			c-0.77-0.45-1.81-0.24-2.8,0.77c0,0-3.26,3.29-10.16,9.97c-0.45,0.3-0.75,0.29-0.79-0.24c-0.04-0.68,0.48-1.49,1.54-2.42
			c5.64-5.64,8.47-8.47,8.47-8.47c1.24-1.06,2.64-1.75,3.98-0.38C108.78,80.28,109.12,80.63,109.12,80.63"/>
	</g>
	<g>
		<path class="st5" d="M106.27,76.68c-1.11,0.07-1.27,0.24-1.7,1.26c-0.15,0.27-1.23,1.27-1.32,0.97c0.11-1.36,0.59-3.16,2.4-3.26
			c1.21-0.03,1.99-0.05,2.36-0.05c0.84,0,0.97,0.89,0.59,1.09C107.05,76.68,106.27,76.68,106.27,76.68"/>
	</g>
	<g>
		<path class="st5" d="M109.49,53.95c-0.87-1.1-1.86-2.17-3.39-1.84c-1.79,0.38-4.57,0.84-5.97,2.09c-2.86,2.56-5.57,5.38-8.22,8.55
			c2.94-2.12,4.41-3.17,4.41-3.17c0.33-0.19,0.59-0.12,0.79,0.22c0.94,2.76,1.41,4.14,1.41,4.14c-1.59-0.03-2.38-0.04-2.38-0.04
			c-1.56,1.53-2.34,2.29-2.34,2.29c-0.39,0.58-0.31,0.94,0.22,1.06c1.38-1.2,2.07-1.81,2.07-1.81c4.14,0.62,6.22,0.93,6.22,0.93
			c0.78-0.01,1.17-0.42,2.33-1.58L101,58.39c-0.64-1.12-0.2-1.84,0.73-2.04c0.85-0.18,3.6-0.66,7.57-1.4
			C109.65,54.89,109.79,54.34,109.49,53.95"/>
	</g>
	<g>
		<path class="st5" d="M105.27,61.4l2.03-4.74c-0.78,0.14-2.05,0.38-3.96,0.74c-1.4,0.36-1.11,0.38-0.52,0.54
			c0.2,0.06,1.74,0.49,1.96,0.6c0.16,0.28-0.86,0.46-0.72,0.71C104.65,60.31,105.04,61,105.27,61.4"/>
	</g>
	<g>
		<path class="st5" d="M125.34,71.15c0,0-1.33-2.06-4.24-6.68c-0.07-0.22,0.22-0.46,0.88-0.71c-0.08-0.24-0.68-0.21-1.81,0.09
			c0,0-0.19-0.29-0.57-0.88c-0.17-0.54-0.08-0.92,0.26-1.15c1.02-0.41,1.78-0.32,2.29,0.26c0.59,1.06,0.88,1.59,0.88,1.59
			c-0.11,0.15-0.17,0.22-0.17,0.22c1.97,3.15,2.98,4.76,3.43,5.49C126.76,70.12,126.13,70.6,125.34,71.15"/>
	</g>
	<g>
		<path class="st5" d="M146.23,72.28c0.91-0.12,1.37-0.39,1.39-0.84c-4.15-2.1-9.89-3.13-17.21-3.1c-3.26,2.65-4.9,3.97-4.9,3.97
			c0.53-0.03,2.73-0.31,2.73-0.31c3.16,4.89,6.18,10.02,7.83,12.74c0.95,1.56-1.44,0.89-1.44,0.89c1.3,1.94,3.95,0.65,3.26-1.28
			c-2.88-7.97-4.32-11.95-4.32-11.95c1.83-1.37,2.75-2.06,2.75-2.06c4.13-0.07,7.5,0.35,10.12,1.26
			C146.35,72.1,146.28,72.32,146.23,72.28"/>
	</g>
	<g>
		<path class="st5" d="M136.79,87.67c-0.52-0.09-1.16,0.17-2.18,0.95c-1.55-2.65-1.66-2.46-0.31,0.57c-0.7,1.26-1.31,1.91-1.81,1.94
			c0,0-0.47,0-1.41,0c0,0,0.32-0.31,0.97-0.93c-0.12-0.24-0.29-0.59-0.53-1.06c0.24-0.38,0.24-0.82,0-1.32c0,0-0.15-0.26-0.44-0.79
			c-0.1-0.36,0.37-0.71,1.41-1.06c0.65-0.33,0.59-0.54-0.18-0.62c-2.62,0.41-3.92,0.62-3.92,0.62c-0.61,0.5-0.87,0.98-0.79,1.46
			c-0.12-1.64-0.32-2.78-0.62-3.44c0.11,2.09,0.15,3.32,0.13,3.7c0.06,1.35,0.29,2.18,0.66,2.51c0.82-0.24,1.24-0.35,1.24-0.35
			c0.16,0.53,0.07,0.94-0.26,1.24c-0.38,0.63-0.38,0.92,0,0.88c0.68-0.24,1.02-0.35,1.02-0.35c-0.2,0.7-0.17,1.03,0.09,1.02
			c2.03-0.47,3.04-0.71,3.04-0.71c0.43-0.11,0.75-0.3,0.97-0.57C135.08,89.27,136.05,88.05,136.79,87.67"/>
	</g>
	<g>
		<path class="st5" d="M138.83,87.51c0.34,0,0.38,0.12,0.13,0.34c0.35,0.25,0.16,0.81-0.35,0.4C138.42,88,138.41,87.65,138.83,87.51
			 M138.89,89.27c-0.96,0.35-1.8,0.67-2.2,1.26c0,0-0.03-0.15-0.09-0.46c0,0-0.17-0.2-0.51-0.62c-0.1-0.57,0.36-1.03,1.37-1.37
			c0.41,0.24,0.55,0.19,0.44-0.13c0.24-1.58,1.6-1.08,1.84-0.24C139.87,88.18,139.72,88.91,138.89,89.27z"/>
	</g>
	<g>
		<path class="st5" d="M147.9,90.91c-1.1,6.74-10.62,8.92-15.38,3.78c-0.45-0.57-0.45-0.96,0-1.17c0,0,0.68-0.49,2.03-1.48
			c0.43,0.1,0.54,0.37,0.33,0.82c-0.25,0.32-0.2,0.68,0.15,1.08c1.65,0.82,3.09,1.22,4.34,1.19c0.23-0.04,0.34-0.19,0.33-0.46
			c0.01-1.16,0.34-1.58,0.99-1.26c0.27,0.14,0.53,0.42,0.79,0.82c0.08,0.29,0.27,0.38,0.55,0.26c1.64-0.62,2.68-1.64,3.13-2.93
			c-0.14-0.92-1.43-0.45-1.1-1.63c0.19-0.37,0.45-0.49,0.79-0.38c0.55,0.14,0.83,0.05,0.84-0.26c0.18-1.75-0.29-3.17-1.41-4.28
			c-0.24-0.05-0.4-0.01-0.49,0.11c-0.65,0.37-1.13,0.45-1.43,0.24c-0.32-0.29-0.35-0.63-0.09-1.02c0.32-0.38,0.35-0.7,0.09-0.95
			c-1.24-0.82-2.6-1.21-4.23-1.26c-0.28-1.25-0.51-1.92-0.51-1.92C143.54,79.72,148.92,84.68,147.9,90.91"/>
	</g>
	<g>
		<path class="st5" d="M120.25,83.43c-0.77,1.78-1.98,2.1-2.95,3.66c1.06-5.73,3.42-9.87,7.05-12.43c-0.45,0.53-0.59,0.93-0.44,1.19
			c1.5,0.68,2.25,1.02,2.25,1.02c-0.57,0.07-1.06,0.22-1.46,0.44c1.25,1.36,1.89,2.71,1.94,4.06c-0.83-2.43-2.13-3.97-3.88-4.63
			c0.64,0.66,0.87,1.06,0.99,1.28C122.24,79.51,121.1,81.4,120.25,83.43"/>
	</g>
	<g>
		<path class="st5" d="M100.21,68.13c-4.48,3.65-6.76,5.42-6.83,5.29c0.26-0.84,0.46-1.98,0.62-3.39c1.05-0.69,2.47-1.68,2.38-1.83
			c-0.66-1.12,0.02-1.11,0.05-1.08C99.35,67.94,100.17,68.16,100.21,68.13"/>
	</g>
	<g>
		<path class="st5" d="M110.13,73.64c0.54,0.33,0.76,0.62,0.66,0.88c0,0-0.21,0.4-0.64,1.19c0.04-0.03-0.28-0.44-0.97-1.24
			c0,0,0.32-0.04,0.97-0.13c0,0-1.54-0.56-4.61-1.68c0,0-0.88-1.72-2.65-5.16c-0.85-0.2-1.28-0.31-1.28-0.31c1.03,0,1.54,0,1.54,0
			c0.5-0.04,0.64-0.15,2.03-1.35c1.1,2.63,1.65,3.95,1.65,3.95c-0.59,1.38-0.88,2.07-0.88,2.07
			C108.74,73.05,110.13,73.64,110.13,73.64"/>
	</g>
	<g>
		<path class="st5" d="M103.78,74.15c-0.09,0.84-0.26,1.28-0.49,1.35c0,0-0.22,0.09-0.66,0.29c0,0-0.14,0.58-0.42,1.73
			c-0.06,0.16-0.14,0.25-0.26,0.25c-0.93-0.13-1.51-0.33-1.74-0.6c-0.06-0.1,0.49-0.13,0.89-0.09c-0.69-0.26-0.89-0.87-0.87-1.3
			c0,0,0.64,0.04,1.87,0.04c-0.09-0.09-0.95-0.43-2.58-1.04c0,0-0.16,0.68-0.49,2.04c-0.13,0.53-0.04,0.83,0.48,0.98
			c0.33,0.09,1.03,0.28,2.1,0.58c0,0-0.04,0.19-0.11,0.57c0,0-0.8-0.21-2.7-0.64c-0.45-0.1-0.61-0.43-0.52-0.9
			c0,0,0.34-1.8,1.01-5.4c-0.14-0.21-0.19-0.54-0.15-0.99c0,0,0.07-0.33,0.2-0.99c0.11-0.22,0.58-0.25,1.41-0.11
			c0.29-0.31,0.44-0.46,0.44-0.46c0.84,1.76,1.33,2.72,1.39,2.65c-1.87-0.06-2.58-0.07-2.58-0.07c0.02,0.65,2.95,0.86,2.95,0.86
			C103.65,74.01,103.78,74.15,103.78,74.15"/>
	</g>
	<g>
		<path class="st5" d="M96.55,73.23c-0.69,0.79-0.73,1.26-0.12,1.42c0,0,0.44,0.06,1.33,0.17c0.24-0.12,0.31-0.49,0.23-1.1
			c-0.19-0.22-0.4-0.02-0.62,0.61c0,0-0.04-0.33-0.13-0.98C97.3,73.35,97.07,73.31,96.55,73.23"/>
	</g>
	<g>
		<path class="st5" d="M92.16,81.04c0.65,0.3,1.1,0.98,1.1,1.78c0,1.07-0.83,1.94-1.86,1.94c-0.92,0-1.69-0.7-1.83-1.62
			c0.26,0.63,0.86,1.07,1.56,1.07c0.94,0,1.7-0.79,1.7-1.77C92.82,81.87,92.56,81.36,92.16,81.04 M91.5,80.21
			c1.36,0,2.46,1.15,2.46,2.57c0,1.42-1.1,2.57-2.46,2.57c-1.36,0-2.46-1.15-2.46-2.57C89.04,81.36,90.14,80.21,91.5,80.21z"/>
	</g>
	<g>
		<path class="st5" d="M96.58,83.21c-0.13-2.2-1.16-3.77-3.09-4.7c0,0,0.13,0.24,0.38,0.73c0,0-0.2,0.28-0.62,0.84
			c0.87,0.69,1.28,1.56,1.24,2.62c0.88,0.07,1.32,0.11,1.32,0.11c0.12,1.84-0.66,3.19-2.34,4.06c-1.91,0.67-3.4,0.3-4.45-1.1
			c0.5,0.25,0.75,0.38,0.75,0.38c0.18-0.43,0.24-0.51,0.24-0.51c-1.55-0.96-2.1-2.59-1.28-4.87c-1.84,2.33-1.25,5.96,1.78,6.98
			C93.83,88.87,96.52,86.58,96.58,83.21"/>
	</g>
	<g>
		<path class="st5" d="M100.55,80.36c-3.87-1.62-5.22-2.02-4.06-1.19c1.41,1.26,2.12,1.9,2.12,1.9c-0.5-0.07-0.75-0.11-0.75-0.11
			c-0.09,1.28-0.13,1.92-0.13,1.92c0.09,0.46,0.27,0.55,0.55,0.26C99.79,81.29,100.55,80.36,100.55,80.36"/>
	</g>
	<g>
		<path class="st5" d="M104.18,83.49c0.54-0.47,0.89-0.63,1.06-0.49c0.07,1.92,0.11,2.42-0.97,3.12c-0.85,0.54-2.8,1.84-5.86,3.85
			c-0.16-0.44-0.03-0.68,0.44-1.06c1.08-0.85,1.58-1.51,1.5-1.98c0.69-0.6,1.04-0.9,1.04-0.9
			C103.47,86.56,104.56,85.51,104.18,83.49"/>
	</g>
	<g>
		<path class="st5" d="M110.24,84.76c0.42,0.18,0.64,1.02,0.64,2.51c0,0-0.24,0.14-1.59,0.95c-0.28-0.51-0.4-1.42-0.46-2.36
			c-0.19-0.35-0.77-0.13-0.75,0.35c0.13,2.11,0.3,3.11,0.71,4.23c-1.12-0.99-1.57-0.87-2.34-0.29c-0.83,0.63-2.08,1.59-5.02,3.81
			c-0.54,0.5-1.82,1.06-2.4,1.06c0,0-1.68,0.19-6.28,0.38c-0.35,0.1-0.49,0.36-0.73,0.64c-0.49-0.61,0.98-2.36,1.86-2.4
			c1.53-0.06,4.87-0.24,6.05-0.69c0.09-0.07-1.8-0.36-1.71-0.43c6.78-5.2,9.91-7.57,9.91-7.57c0.94-0.41,1.74-0.56,2.4-0.44
			C110.33,84.68,110.24,84.76,110.24,84.76"/>
	</g>
	<g>
		<path class="st5" d="M86.69,97.22c-0.63,0.51-0.74,0.74-0.33,0.68c0,0,5.44-0.24,16.31-0.71c0.8-0.06,1.6-0.35,2.4-0.88
			c0,0,1.46-1.07,4.39-3.2c0.45-0.39,0.85-0.48,1.19-0.29c0,0,0.32,0.16,0.95,0.49c0,0,0.13-0.18,0.4-0.53
			c0.12-0.19,0.42-0.23,0.9-0.13c0,0-0.54-0.36-1.63-1.08c-0.42-0.29-0.84-0.26-1.26,0.09c0,0-1.57,1.2-4.72,3.62
			c-0.68,0.6-1.46,1-2.34,1.19C102.96,96.47,97.54,96.72,86.69,97.22"/>
	</g>
	<g>
		<path class="st5" d="M90.92,95.41c0.02,0.57-0.04,0.83-0.53,0.86c-1.06,0.08-4.86,0.35-11.41,0.81c-1.51,0.11-2.65,0-3.96-0.92
			c0,0-0.65-0.55-1.94-1.65c-0.41-0.35-0.15-1.35,0.95-0.79c2.09,1.02,2.35,1.45,4.74,1.3c0,0,1.37-0.09,4.12-0.26
			c0.02,0.41,0.5,1.18,0.97,1.3c-0.22-0.37-0.48-1.2-0.29-1.5c0,0,2.81-0.27,8.44-0.82C91.37,94.36,91.06,94.56,90.92,95.41"/>
	</g>
	<g>
		<path class="st5" d="M53.6,67.97c0.32-0.05,1.48-0.19,1.55-0.18c0.58,0.11,3.75,0.75,9.68,1.9c0.49,0.03,0.7,0.32,0.64,0.88
			c0,0-0.08,0.44-0.24,1.32c-0.16,0.63-0.43,1.03-0.84,1.19c0,0-1.54-1.15-4.63-3.44c0,0,1.35,1.29,4.03,3.88
			c0,0-0.25,0.22-0.75,0.66c-0.29,0.25-0.49,0.54-0.57,0.86c0,0-0.3,0.98-0.9,2.95c-0.31,0.7-1.31,0.89-3,0.55
			c0,0-2.45-0.6-7.34-1.81c-0.32-0.07-0.61-0.17-0.87-0.32c-0.3-0.26-0.62-0.59-1.03-1.07c-0.11-0.14-0.21-0.2-0.12-0.51
			c0,0,0.24-0.97,0.63-2.54c0.08-0.24,0.26-0.45,0.52-0.64c1.22-0.85,1.83-1.27,1.83-1.27c0.44-0.34,0.69-0.69,0.75-1.07
			c0.09-0.68,0.14-1.02,0.14-1.02C53.12,68.11,53.28,68,53.6,67.97 M49.86,71.32c0.33-0.27,1.17-0.89,1.73-1.35
			c0.4-0.33,0.6-0.5,0.64-0.8c0,0,0.08-0.4,0.24-1.19c0.07-0.38,0.28-0.61,0.64-0.68c0,0,0.55-0.11,1.65-0.33
			c3.25,0.73,6.75,1.39,10.49,1.98c3.11,0.64,6.24,3.06,7.74,4.79c-1.06-2.13-3.39-4.06-4.39-4.65l1.11-0.36
			c-0.92-0.54-1.8-0.96-2.65-1.28c-0.47-0.13-0.59-0.42-0.35-0.88c-0.13-0.23-0.69-0.45-1.68-0.66c-0.38-0.65-0.57-0.97-0.57-0.97
			c2.56,0.24,3.84,0.35,3.84,0.35c-0.27,0.28-0.48,0.69-0.64,1.21c0.62-0.68,1.14-0.98,1.57-0.9c0.47,0.09,1.05,0.43,1.74,1.04
			c2.22,1.75,5.56,2.02,8.29,2.25c0.57,0.59,1.2,1.25,2.16,2.05c0.38,0.31,0.14,1.13-0.66,1.08c-2.67-0.6-3.12-0.86-4-1.06
			c-0.5-0.11-0.03,1.7-0.03,1.7c-1.09-1.26-3.22-3.79-5.12-3.97c1.37,1.09,3.04,3.07,4.43,5.29c0.18,0.55-0.05,0.86-0.58,0.94
			c-3.76,0.58-6.37,0.61-9.06,0.93c3.88-0.62,6-1.28,6-1.28c-0.51-0.93-3.62-3.72-5.98-4.52c-0.34,1.63-0.51,2.16-0.51,2.16
			c-0.17,0.6-0.47,1.05-0.9,1.37c-0.75,0.68-1.13,1.02-1.13,1.02c-0.35,0.18-0.57,0.49-0.68,0.93c-0.5,1.82-0.75,2.73-0.75,2.73
			c-0.57,1.63-2.54,1.44-3.95,1.15c-3.94-0.94-6.36-1.5-7.34-1.74c-0.89-0.21-1.25-0.56-1.93-1.2c-0.64-0.75-0.87-0.7-0.61-1.65
			c0.5-1.83,0.75-2.74,0.75-2.74C49.48,71.71,49.64,71.46,49.86,71.32z"/>
	</g>
	<g>
		<path class="st5" d="M60.95,77.47c-0.04,0.26-0.48-0.1-1.02-0.54c-0.71-0.57-1.56-1.33-1.61-1.38c0.31,0.43,2.05,2.38,1.79,2.53
			c-0.08,0.05-0.2,0.06-0.36,0.03c0,0-1.18-0.29-3.55-0.86c-0.23-0.03-0.22-0.27,0.02-0.73c0.67-1,0.84-1.45,0.51-1.35
			c0,0-0.34,0.32-1.02,0.95c0.41-1.07,0.74-1.66,0.99-1.76c1.2,0.14,1.97,0.26,2.31,0.35c-0.28,0.18-0.42,0.26-0.42,0.26
			c1.5,0.24,2.25,0.35,2.25,0.35c0.4,0.11,0.59,0.25,0.6,0.44C61.21,76.64,61.05,77.21,60.95,77.47"/>
	</g>
	<g>
		<path class="st5" d="M62.82,79.41c0.03-0.06,0,0.06,0.03,0c0.26-0.88,0.4-1.32,0.4-1.32c0.19-0.43,0.47-0.5,0.84-0.2
			c0.93,1.32,1.39,1.98,1.39,1.98c0.46,0.7,0.8,1.21,0.77,1.24c-0.06,0.42-0.26,0.65-0.31,0.95c-0.05,0.31,0.24,0.73,0.21,0.87
			L62.82,79.41z M68.88,86.76c-0.39,0.55-1.9,2.07-0.99,2.61c0.66-0.96,1.2-1.61,1.62-1.95c0.06-0.05,1.15,1.03,1.2,0.99
			c0.06-0.04-0.9-1.2-0.84-1.22c0.23-0.15,0.73-0.39,1.52-0.73c0,0,0.47,0.51,1.41,1.54c0,0-0.54,0.3-1.61,0.9
			c-0.15,0.09-0.34,0.24-0.55,0.44c0,0-0.67,0.83-2.01,2.49c0,0-0.52-0.52-1.57-1.57c0,0-3.29-3.53-9.88-10.58
			c1.63,0.44,3.05,0.64,4.26,0.62c0.35-0.02,0.65-0.11,0.87-0.25L68.88,86.76z"/>
	</g>
	<g>
		<path class="st5" d="M73.26,89.26c-0.19,2.31-0.49,3.42-0.77,2.87c0,0-0.2-0.29-1.04-1.81c-0.08-0.2-0.31-0.18-0.68,0.07
			c0,0,0.18-0.23,0.55-0.68C71.79,89.46,73.29,88.36,73.26,89.26"/>
	</g>
	<g>
		<path class="st5" d="M64.91,68.21c0.43,0.28,0.38-0.5,0.17-0.85c-1.17-1.97-2.14-3-2.92-3.09c0,0-1.73-0.19-5.2-0.57
			c-0.86-1-2.07-1.88-3.4-2.02c-0.54-0.06-1.47-0.15-2.78-0.29c-0.63-0.06-0.83,0.03-1.48,0.23c-0.59,0.18-1.29,0.41-2.59,0.81
			c-0.64,0.19,0.38,0.89,0.64,1.09c-0.13-0.32-0.13-0.53,0.02-0.62c1.07-0.35,1.69-0.53,2.17-0.67c0.54-0.16,0.65-0.18,1.2-0.13
			c1.36,0.11,2.24,0.25,2.71,0.29c0.72,0.06,1.47,0.69,1.9,1.25c-1.25,0.19-1.76,0.52-1.59,0.63c4,0.46,6.28,0.76,7.42,0.89
			C62.84,65.36,63.98,66.85,64.91,68.21"/>
	</g>
	<g>
		<path class="st5" d="M74.4,83.56c-0.65,0.31-1.46,0.73-1.87,0.9c-1.06,0.45-1.23,0.05-1.41-0.09c0,0-1.05-1.1-2.63-2.89
			c0.22,0.53,0.79,1.43,0.99,2.01c0.1,0.28,0.16,0.52-0.04,0.55c-0.02,0.02-0.5-0.14-1.46-0.49c-0.51-0.25-0.54-0.37-0.5-0.74
			c0,0,0.17-0.48,0.54-1.73c-0.62-0.85-0.93-1.28-0.93-1.28c-0.12-0.12,0.09-0.39,0.64-0.79c0.45-0.32,0.81-0.32,1.08-0.02
			c1.95,2.56,2.93,3.84,2.93,3.84c1.54-1.35,2.76-2.4,2.76-2.4c-0.83,1.24-1.65,2.24-2.02,2.69c-0.21,0.25-0.49,0.64,0.13,0.7
			C72.97,83.86,75.11,82.86,74.4,83.56"/>
	</g>
	<g>
		<path class="st5" d="M85.88,47.58c0.65-2.95,1.93-5.15,2.6-6.55c-0.53,2.18-1.58,4.53-1.78,6.12c-0.1,0.82,0.08,1.27,0.06,1.89
			c-0.11,0.45-0.44,0.77-1.02,1.35c0.11-1.86,0.02-1.39-0.66-3.09C85.73,47.56,85.88,47.58,85.88,47.58"/>
	</g>
	<g>
		<path class="st5" d="M99.06,52.81c0.04,0.24-0.16,0.61,0.07,0.45c0.2-0.28,0.83-0.66,1.32-1.02c-1.8-2.13-3.29-4.88-5.18-7.2
			c-0.09-0.15-0.33-0.21-0.71-0.18c-0.46,0.38-0.56,0.41-0.31,0.09c0,0,0-0.31,0-0.93c0,0-0.59-1.22-1.76-3.66
			c-1.32-0.06-1.98-0.09-1.98-0.09c-0.32,0.19-0.3,0.54,0.09,1.06c0.65,0.03,0.97,0.04,0.97,0.04c-0.21,0.4-0.55,0.73-1.02,0.97
			c0.71,0.06,1.06,0.09,1.06,0.09c1.39,2.87,2.37,4.48,2.95,4.85c0.44-0.12,0.66-0.18,0.66-0.18c-0.29,0.67-0.65,1.17-1.1,1.5
			c0.82,0.09,1.24,0.13,1.24,0.13C97.45,50.93,98.68,52.28,99.06,52.81"/>
	</g>
	<g>
		<path class="st5" d="M72.62,39.05c-0.28,3.57-0.27,5.99,0.1,7.23c0,0,0.37,0.57,1.1,1.72c-1.77-0.83-2.29-0.91-1.57-0.24
			c-0.05-0.13,0.4,0.32,1.35,1.35c-0.55,0.07-1.21-0.35-1.72-0.77c-0.18-0.71-0.9-1.62-0.83-2.12
			C71.18,45.27,71.77,42.79,72.62,39.05"/>
	</g>
	<g>
		<path class="st5" d="M71.73,48.92c0.17,1.1,0.28,1.33,0.88,0.74C72.78,49.5,72.46,49.29,71.73,48.92"/>
	</g>
	<g>
		<path class="st5" d="M130.61,94.02c-0.33,0.56-0.63,0.59-0.91,0.09c-0.17-0.19-0.15-0.36,0.08-0.52
			C130.5,93.39,130.78,93.53,130.61,94.02"/>
	</g>
	<g>
		<path class="st5" d="M46.96,83.05c2.11,0.95,2.71,1.29,1.79,1.02c0,0-0.68-0.23-2.33-0.76c-0.45-0.19-0.28-0.51-0.17-0.73
			c0.34-0.65,1.15-2.46,2.43-5.43c0.26,0.26,0.45,0.4,0.58,0.44c-1.62,3.45-2.42,5.18-2.42,5.18C46.84,82.9,46.88,82.99,46.96,83.05
			 M50.07,74.7c0.21,0.75,0.63,1.17,1.28,1.26c0.94-1.81,2.06-3.29,3.35-4.45c0,0,1.33-0.51,3.99-1.54c0,0-0.96-0.3-2.87-0.9
			c0,0-0.21-0.2-0.64-0.6c0,0.44,0,0.66,0,0.66c-0.31,0.28-0.46,0.42-0.46,0.42c1.16,0.34,1.74,0.51,1.74,0.51
			c-0.36,0.49-1.19,0.68-2.49,0.57c-0.99,0.84-1.83,1.58-2.49,2.2c0.06,0.72,0.09,1.08,0.09,1.08C50.95,74.2,50.44,74.47,50.07,74.7
			z"/>
	</g>
	<g>
		<path class="st5" d="M117.88,67.56c-0.02,3.09,1.14,5.17,3.47,6.25c-2.05-1.28-2.97-3.7-2.78-7.28
			C118.06,66.61,117.84,66.95,117.88,67.56"/>
	</g>
	<g>
		<path class="st5" d="M70,77.57c2.83,0.57,4.81,0.68,5.79,0.89c0.49,0.11-0.28,1.86-0.15,1.66c0,0,4.23-4.91,4.76-5.64
			c0,0-3.14,2.66-3.51,2.7C75.93,77.27,73.54,77.36,70,77.57"/>
	</g>
	<g>
		<path class="st5" d="M127.1,60.53c-0.92,0.1-2.64-0.22-3.31-0.49c0,0,0.99,1.72,2.97,5.17c0,0-0.46-1.89-1.09-3.9
			C125.61,61.12,126.64,60.74,127.1,60.53"/>
	</g>
	<g>
		<path class="st5" d="M80.54,49.07c1.35,0.39,2.67,1.05,3.42,1.61c-0.76-2-1.57-3.1-2.41-3.3c0.46,1.07,0.19,1.54,0.19,1.54
			c-1-0.65-2.86-2.33-3.83-2.37C79.22,47.46,79.92,48.18,80.54,49.07"/>
	</g>
	<g>
		<path class="st6" d="M18.79,113.63H0v-6.12h18.79V113.63z M205.61,113.63h-18.79v-6.12h18.79V113.63z"/>
	</g>
</g>
<g>
	<path class="st7" d="M67.11,151.33h6.45c1.6,0,2.76,0.33,3.49,1s1.09,1.71,1.09,3.14c0,1.4-0.38,2.43-1.14,3.08
		c-0.76,0.65-1.96,0.98-3.6,0.98h-1.94v1.7l0.81,1.84h-5.16l0.48-1.84v-8.07L67.11,151.33z M74.37,155.52c0-0.64-0.1-1.07-0.31-1.32
		c-0.21-0.24-0.58-0.36-1.12-0.36h-1.55v3.25h1.52c0.55,0,0.94-0.11,1.15-0.33C74.26,156.54,74.37,156.13,74.37,155.52z"/>
	<path class="st7" d="M93.87,163.06h-4.68l-0.05-1.54l-0.09-0.21h-4.45l-0.09,0.21l-0.05,1.54h-3.92l4.38-10.35l-0.57-1.38h4.66
		L93.87,163.06z M88.15,158.93l-1.31-3.45l-1.32,3.45H88.15z"/>
	<path class="st7" d="M104.76,163.06l-0.09-1.55l-1.38-2.53h-1.22v2.24l0.5,1.84h-4.84l0.48-1.84v-8.07l-0.48-1.82h6.61
		c1.58,0,2.74,0.31,3.47,0.94s1.1,1.57,1.1,2.82c0,0.74-0.18,1.38-0.55,1.92c-0.36,0.54-0.92,0.93-1.68,1.19l3.11,4.86
		L104.76,163.06L104.76,163.06z M104.74,156.15c0.27-0.2,0.41-0.53,0.41-0.99c0-0.47-0.11-0.81-0.33-1.02
		c-0.22-0.21-0.59-0.32-1.1-0.32H102v2.63h1.5C104.06,156.45,104.47,156.35,104.74,156.15z"/>
	<path class="st7" d="M120.8,154.05v7.19l0.8,1.82h-5.46l0.8-1.82v-7.19h-1.75l-1.86,0.51l0.5-3.23h10.11l0.48,3.23l-1.84-0.51
		H120.8z"/>
	<path class="st7" d="M129.09,162.9l-0.57-3.75l2.47,1.34c0.54,0.13,1,0.22,1.38,0.27c0.38,0.05,0.75,0.08,1.11,0.08
		c0.48,0,0.85-0.08,1.1-0.24s0.38-0.38,0.38-0.66c0-0.21-0.05-0.39-0.16-0.52c-0.11-0.13-0.31-0.27-0.61-0.39
		c-0.3-0.12-0.75-0.25-1.33-0.38c-1.48-0.35-2.57-0.83-3.27-1.43c-0.69-0.6-1.04-1.43-1.04-2.47c0-1.13,0.43-2.03,1.3-2.7
		s2.15-1.01,3.86-1.01c1.44,0,2.84,0.12,4.22,0.35l0.53,3.59l-2.37-1.18c-0.69-0.17-1.38-0.25-2.05-0.25
		c-0.47,0-0.85,0.07-1.13,0.22c-0.28,0.15-0.43,0.35-0.43,0.61c0,0.29,0.13,0.54,0.41,0.73c0.27,0.19,0.83,0.39,1.66,0.57
		c1.52,0.35,2.62,0.83,3.31,1.44c0.69,0.61,1.03,1.4,1.03,2.39c0,0.77-0.2,1.44-0.61,2.02c-0.41,0.58-1,1.02-1.78,1.34
		c-0.78,0.32-1.71,0.48-2.81,0.48c-0.91,0-1.69-0.04-2.34-0.11C130.72,163.17,129.96,163.05,129.09,162.9z"/>
</g>
<g>
	<g>
		<path class="st1" d="M5.96,118.2c-1.33,8.35-2.63,16.7-3.9,25.05c-0.65,2.01-1.28,4.02-1.91,6.03c2.78-0.46,5.56-0.91,8.35-1.35
			c1.04-8.33,2.1-16.66,3.17-24.98c0-1.58,0-3.17,0.01-4.75C9.77,118.19,7.87,118.19,5.96,118.2z"/>
		<path class="st1" d="M17.38,118.19c1.26,7.58,2.54,15.15,3.85,22.73c0.63,1.65,1.27,3.29,1.91,4.93
			c-2.79,0.37-5.58,0.75-8.36,1.15c-1.05-8.01-2.09-16.03-3.11-24.04c0-1.58,0-3.17,0.01-4.75
			C13.57,118.19,15.48,118.19,17.38,118.19z"/>
		<path class="st1" d="M14.46,140.01c-2.13,0.23-4.26,0.47-6.39,0.72c0-1.59,0-3.18,0-4.77c2.13-0.2,4.26-0.39,6.39-0.57
			C14.47,136.93,14.47,138.47,14.46,140.01z"/>
		<g>
			<path class="st2" d="M39.52,118.37c-5.17-0.06-10.35-0.12-15.53-0.18c0.53,1.86,1.05,3.72,1.59,5.58
				c-0.01,5.58-0.03,11.17-0.04,16.75c-0.54,1.84-1.08,3.69-1.61,5.54c5.15-0.66,10.3-1.27,15.46-1.82
				c2.74-0.31,4.69-2.98,4.71-5.64c0.02-5.03,0.03-10.05,0.05-15.08C44.16,120.94,42.24,118.41,39.52,118.37z M36.9,139.08
				c-1.4,0.12-2.81,0.25-4.21,0.38c0.02-5.24,0.03-10.49,0.04-15.73c1.4-0.03,2.81-0.07,4.21-0.1
				C36.93,128.77,36.92,133.92,36.9,139.08z"/>
		</g>
		<path class="st3" d="M45.82,118.18c2,8.21,4.04,16.41,6.12,24.59c3.43-0.28,6.87-0.54,10.31-0.77c2.11-7.95,4.25-15.89,6.42-23.83
			c-3.52,0-7.04,0-10.57,0c0.63,1.67,1.27,3.34,1.91,5.01c-0.94,4.6-1.88,9.19-2.82,13.79c-0.88-4.57-1.76-9.13-2.63-13.7
			c0.61-1.7,1.22-3.4,1.83-5.09C52.87,118.18,49.34,118.18,45.82,118.18z"/>
		<path class="st3" d="M69.62,118.18c0.55,1.62,1.09,3.24,1.64,4.87c-0.01,4.61-0.02,9.23-0.03,13.84
			c-0.67,1.66-1.33,3.31-1.99,4.97c6.55-0.35,13.11-0.61,19.67-0.77c0-2.63,0.01-5.25,0.01-7.88c-2.2,1.09-4.39,2.19-6.58,3.3
			c-1.3,0.03-2.6,0.07-3.9,0.11c0-1.67,0.01-3.34,0.01-5.01c1.83-0.04,3.67-0.08,5.5-0.11c0-1.41,0-2.82,0.01-4.23
			c-1.85,0.02-3.7,0.05-5.55,0.08c0-1.53,0.01-3.06,0.01-4.58c1.39-0.01,2.78-0.02,4.16-0.03c1.95,0.99,3.91,1.98,5.87,2.96
			c0-2.44,0.01-4.87,0.01-7.31c-6.25,0.02-12.49,0.04-18.74,0.07"/>
		<path class="st3" d="M186.16,118.19c0.56,1.97,1.11,3.95,1.67,5.92c0.01,5.62,0.02,11.23,0.03,16.85
			c-0.65,1.88-1.3,3.77-1.96,5.65c6.54,0.91,13.07,1.91,19.58,3.01c0-3.6,0-7.21,0-10.81c-2.17,1.18-4.35,2.34-6.54,3.47
			c-1.29-0.16-2.59-0.32-3.89-0.48c0-2.14-0.01-4.28-0.01-6.41c1.83,0.16,3.66,0.33,5.49,0.5c0-1.87,0-3.74,0-5.62
			c-1.85-0.12-3.69-0.23-5.54-0.34c0-1.96,0-3.91-0.01-5.87c1.39,0.04,2.77,0.09,4.16,0.13c1.97,1.41,3.93,2.84,5.87,4.29
			c0-3.33,0-6.66,0-9.99c-6.25,0.01-12.49,0.03-18.74,0.04"/>
		<path class="st3" d="M90.16,118.18c0.65,1.57,1.31,3.14,1.97,4.72c0,4.42-0.01,8.84-0.01,13.26c-0.66,1.64-1.32,3.27-1.98,4.91
			c2.83-0.06,5.67-0.09,8.5-0.12c0-4.32,0-8.63,0-12.95c2.48,4.31,4.95,8.63,7.43,12.94c2.89,0.02,5.77,0.06,8.66,0.11
			c-0.64-1.58-1.28-3.16-1.93-4.75c0-4.56-0.01-9.11-0.01-13.67c0.64-1.48,1.28-2.97,1.92-4.45c-2.74,0-5.48,0-8.22,0
			c0,4.35,0,8.7,0,13.05c-2.53-4.35-5.06-8.7-7.58-13.05C96,118.17,93.08,118.17,90.16,118.18z"/>
		<path class="st3" d="M115.51,118.18c0,2.85,0.01,5.7,0.01,8.56c1.8-1.28,3.6-2.57,5.39-3.86c1.07,0.01,1.6,0.01,2.67,0.02
			c0.01,4.49,0.02,8.97,0.02,13.46c-0.62,1.62-1.24,3.24-1.86,4.87c3.65,0.12,7.31,0.27,10.96,0.44c-0.63-1.76-1.25-3.53-1.88-5.29
			c-0.01-4.44-0.02-8.87-0.03-13.31c1.15,0.01,1.73,0.02,2.88,0.03c1.74,1.25,3.47,2.5,5.19,3.77c-0.01-2.9-0.02-5.79-0.02-8.69
			C131.06,118.18,123.28,118.18,115.51,118.18z"/>
		<path class="st3" d="M148.97,118.18c-3.09,0-6.19,0-9.28,0c0.67,1.65,1.33,3.3,1.99,4.95c0.01,4.87,0.03,9.74,0.04,14.61
			c-0.07,2.37,1.99,4.53,4.31,4.72c1.63,0.12,3.26,0.24,4.89,0.37c-0.01-1.73-0.01-3.47-0.02-5.2c-0.79-0.05-1.19-0.07-1.98-0.12
			C148.93,131.06,148.95,124.62,148.97,118.18z"/>
		<path class="st3" d="M152.7,118.18c3.09,0,6.19,0,9.28,0c-0.65,1.75-1.3,3.5-1.96,5.25c0.02,5.16,0.03,10.33,0.05,15.49
			c0.02,2.26-1.83,4.64-4.28,4.31c-1.63-0.14-3.26-0.28-4.89-0.41c-0.01-1.73-0.01-3.47-0.02-5.2c0.79,0.05,1.19,0.07,1.98,0.13
			C152.81,131.23,152.76,124.71,152.7,118.18z"/>
		<g>
			<path class="st2" d="M183.67,140.85c0-1.39-0.01-2.77-0.01-4.16c0.07-2.04-1.25-4.14-3.22-4.74c-0.2-0.05-0.29-0.07-0.49-0.12
				l0,0c2.21,0.02,3.79-2.11,3.69-4.23c0-1.65-0.01-3.3-0.01-4.94c0-2.16-1.41-4.37-3.71-4.47c-5.63,0-11.27,0-16.9-0.01
				c0.54,1.7,1.08,3.4,1.62,5.11c0.02,5.08,0.03,10.16,0.05,15.24c-0.62,1.79-1.24,3.57-1.87,5.35c3.1,0.31,6.19,0.64,9.28,0.99
				c-0.01-3.62-0.02-7.24-0.03-10.86c1.42,0.1,2.84,0.2,4.27,0.3c0.01,2.82,0.02,5.64,0.02,8.46c0.02,1.32,0.86,2.64,2.23,2.87
				c2.24,0.28,4.49,0.57,6.73,0.88C184.76,144.64,184.22,142.75,183.67,140.85z M176.39,129.13c-1.4-0.07-2.8-0.13-4.2-0.2
				c-0.01-1.76-0.01-3.51-0.02-5.27c1.4,0.03,2.8,0.07,4.2,0.1C176.38,125.55,176.38,127.34,176.39,129.13z"/>
		</g>
	</g>
</g>
</svg>
